<?xml version="1.0" encoding="UTF-8" standalone="no"?>
<svg
   width="80"
   height="80"
   viewBox="0 0 80 80"
   fill="none"
   version="1.1"
   id="svg9"
   xml:space="preserve"
   xmlns:xlink="http://www.w3.org/1999/xlink"
   xmlns="http://www.w3.org/2000/svg"
   xmlns:svg="http://www.w3.org/2000/svg"><defs
     id="defs9"><linearGradient
       id="linearGradient19"><stop
         style="stop-color:#d43e80;stop-opacity:1;"
         offset="0"
         id="stop19" /><stop
         style="stop-color:#ff8646;stop-opacity:1;"
         offset="1"
         id="stop20" /></linearGradient><linearGradient
       id="linearGradient17"><stop
         style="stop-color:#4662c9;stop-opacity:1;"
         offset="0"
         id="stop17" /><stop
         style="stop-color:#c735ab;stop-opacity:1;"
         offset="1"
         id="stop18" /></linearGradient><linearGradient
       id="linearGradient15"><stop
         style="stop-color:#c63b8c;stop-opacity:1;"
         offset="0"
         id="stop15" /><stop
         style="stop-color:#f94e4a;stop-opacity:1;"
         offset="1"
         id="stop16" /></linearGradient><linearGradient
       xlink:href="#linearGradient15"
       id="linearGradient16"
       x1="31"
       y1="98.702049"
       x2="128.407"
       y2="98.702049"
       gradientUnits="userSpaceOnUse" /><linearGradient
       xlink:href="#linearGradient17"
       id="linearGradient18"
       x1="31"
       y1="68.997002"
       x2="128.407"
       y2="68.997002"
       gradientUnits="userSpaceOnUse" /><linearGradient
       xlink:href="#linearGradient19"
       id="linearGradient20"
       x1="61.378918"
       y1="74.920975"
       x2="97.718903"
       y2="74.920975"
       gradientUnits="userSpaceOnUse" /><linearGradient
       xlink:href="#linearGradient17"
       id="linearGradient21"
       gradientUnits="userSpaceOnUse"
       x1="31"
       y1="68.997002"
       x2="128.407"
       y2="68.997002" /><linearGradient
       xlink:href="#linearGradient17"
       id="linearGradient22"
       gradientUnits="userSpaceOnUse"
       x1="31"
       y1="68.997002"
       x2="128.407"
       y2="68.997002" /><linearGradient
       xlink:href="#linearGradient15"
       id="linearGradient23"
       gradientUnits="userSpaceOnUse"
       x1="31"
       y1="98.702049"
       x2="128.407"
       y2="98.702049" /><linearGradient
       xlink:href="#linearGradient15"
       id="linearGradient24"
       gradientUnits="userSpaceOnUse"
       x1="31"
       y1="98.702049"
       x2="128.407"
       y2="98.702049" /><linearGradient
       xlink:href="#linearGradient15"
       id="linearGradient25"
       gradientUnits="userSpaceOnUse"
       x1="31"
       y1="98.702049"
       x2="128.407"
       y2="98.702049" /><linearGradient
       xlink:href="#linearGradient15"
       id="linearGradient26"
       gradientUnits="userSpaceOnUse"
       x1="31"
       y1="98.702049"
       x2="128.407"
       y2="98.702049" /></defs><g
     id="g26"
     transform="matrix(0.58663827,0,0,0.58663827,-5.6166397,-7.8850529)"><g
       id="g16"
       style="fill:url(#linearGradient18)"><path
         d="M 128.407,68.9968 84.8656,105.131 c -2.9934,2.484 -7.3312,2.484 -10.3245,0 L 31,68.9968 74.5412,32.863 c 2.9934,-2.484 7.3312,-2.484 10.3246,0 z"
         fill="#4421AA"
         id="path1"
         style="fill:url(#linearGradient21)" /><path
         d="M 84.8653,32.8631 C 83.3688,31.621 81.536,31 79.7031,31 v 75.994 c 1.8329,0 3.6657,-0.621 5.1622,-1.864 L 128.407,68.9969 Z"
         fill="#4421AA"
         id="path2"
         style="fill:url(#linearGradient22)" /></g><path
       d="M 119.656,78.3233 V 50.9798 c 0,-2.1015 -1.703,-3.805 -3.805,-3.805 H 43.5569 c -2.1015,0 -3.8049,1.7035 -3.8049,3.805 v 27.3435 l 35.0811,29.2257 c 2.8217,2.351 6.9198,2.351 9.7418,0 z"
       fill="#ffffff"
       id="path3" /><path
       d="M 115.85,47.1748 H 79.7031 v 62.1372 c 1.7299,0 3.4601,-0.588 4.8709,-1.763 L 119.655,78.3233 V 50.9798 c 0,-2.1015 -1.703,-3.805 -3.805,-3.805 z"
       fill="#ffffff"
       id="path4" /><path
       d="m 79.5489,56.751 c -3.5937,0 -7.1067,1.0656 -10.0947,3.0622 -2.988,1.9965 -5.3169,4.8343 -6.6922,8.1544 -1.3752,3.3201 -1.735,6.9735 -1.034,10.4982 0.7011,3.5246 2.4317,6.7622 4.9728,9.3033 2.5411,2.5411 5.7787,4.2716 9.3033,4.9727 3.5247,0.7011 7.178,0.3413 10.4982,-1.0339 3.3201,-1.3753 6.1579,-3.7042 8.1544,-6.6922 1.9966,-2.9881 3.0622,-6.501 3.0622,-10.0947 C 97.7134,70.1037 95.7973,65.4853 92.391,62.0789 88.9846,58.6726 84.3662,56.7565 79.5489,56.751 Z m 9.3446,15.3147 -10.3206,10.3154 c -0.241,0.2413 -0.5273,0.4328 -0.8424,0.5634 -0.3152,0.1306 -0.6529,0.1978 -0.994,0.1978 -0.3412,0 -0.6789,-0.0672 -0.994,-0.1978 C 75.4273,82.8139 75.1411,82.6224 74.9,82.3811 l -4.6957,-4.6879 c -0.4867,-0.4881 -0.7596,-1.1495 -0.7586,-1.8388 0.001,-0.6893 0.2757,-1.35 0.7638,-1.8367 0.4881,-0.4868 1.1496,-0.7596 1.8389,-0.7587 0.6893,0.001 1.3499,0.2758 1.8367,0.7639 l 2.8553,2.8552 8.4724,-8.4802 c 0.4863,-0.488 1.1467,-0.7629 1.8357,-0.7642 0.6891,-0.0012 1.3504,0.2714 1.8385,0.7578 0.4881,0.4863 0.763,1.1467 0.7642,1.8357 0.0012,0.6891 -0.2713,1.3504 -0.7577,1.8385 z"
       fill="#7545FF"
       id="path5"
       style="fill:url(#linearGradient20)" /><g
       id="g9"
       style="fill:url(#linearGradient16)"><path
         d="M 128.407,68.9971 84.8656,105.131 c -2.9934,2.484 -7.3312,2.484 -10.3245,0 L 31,68.9971 v 51.3259 c 0,4.465 3.6191,8.084 8.0836,8.084 h 81.2394 c 4.465,0 8.084,-3.619 8.084,-8.084 z"
         fill="#7545FF"
         id="path6"
         style="fill:url(#linearGradient23);fill-opacity:1" /><path
         d="m 84.8653,105.131 c -1.4967,1.242 -3.3295,1.863 -5.1622,1.863 v 21.413 h 40.6199 c 4.464,0 8.084,-3.619 8.084,-8.084 V 68.9971 Z"
         fill="#7545FF"
         id="path7"
         style="fill:url(#linearGradient24);fill-opacity:1" /><path
         d="m 84.8669,105.131 c -2.9934,2.484 -7.3312,2.484 -10.3246,0 l -4.5783,-3.8 -36.3693,24.924 c 1.4417,1.335 3.3701,2.152 5.4902,2.152 h 81.2391 c 2.12,0 4.049,-0.817 5.49,-2.152 L 89.4454,101.331 Z"
         fill="#7545FF"
         id="path8"
         style="fill:url(#linearGradient25);fill-opacity:1" /><path
         d="m 125.813,126.255 -36.3692,-24.924 -4.5785,3.799 c -1.4967,1.242 -3.3295,1.864 -5.1622,1.864 v 21.413 h 40.6199 c 2.12,0 4.048,-0.817 5.49,-2.152 z"
         fill="#7545FF"
         id="path9"
         style="fill:url(#linearGradient26);fill-opacity:1" /></g></g></svg>
