<?xml version="1.0" encoding="UTF-8" standalone="no"?>
<svg
   height="280"
   width="1090"
   viewBox="-19.5036 -32.49725 153.53668 68.244225"
   version="1.1"
   id="svg9"
   xml:space="preserve"
   xmlns="http://www.w3.org/2000/svg"
   xmlns:svg="http://www.w3.org/2000/svg"><defs
     id="defs7"><radialGradient
       id="radial0"
       gradientUnits="userSpaceOnUse"
       cx="158.429"
       cy="578.08801"
       fx="158.429"
       fy="578.08801"
       r="65"
       gradientTransform="matrix(0,-0.304946,0.283701,0,-146.19289,74.852677)"><stop
         offset="0"
         style="stop-color:rgb(100%,86.666667%,33.333333%);stop-opacity:1;"
         id="stop1" /><stop
         offset="0.1"
         style="stop-color:rgb(100%,86.666667%,33.333333%);stop-opacity:1;"
         id="stop2" /><stop
         offset="0.5"
         style="stop-color:rgb(100%,32.941176%,24.313725%);stop-opacity:1;"
         id="stop3" /><stop
         offset="1"
         style="stop-color:rgb(78.431373%,21.568627%,67.058824%);stop-opacity:1;"
         id="stop4" /></radialGradient><radialGradient
       id="radial1"
       gradientUnits="userSpaceOnUse"
       cx="147.694"
       cy="473.45499"
       fx="147.694"
       fy="473.45499"
       r="65"
       gradientTransform="matrix(0.0267623,0.133661,-0.551093,0.110345,266.11121,-65.543354)"><stop
         offset="0"
         style="stop-color:rgb(21.568627%,44.313725%,78.431373%);stop-opacity:1;"
         id="stop5" /><stop
         offset="0.128"
         style="stop-color:rgb(21.568627%,44.313725%,78.431373%);stop-opacity:1;"
         id="stop6" /><stop
         offset="1"
         style="stop-color:rgb(40%,0%,100%);stop-opacity:0;"
         id="stop7" /></radialGradient></defs><style
     type="text/css"
     id="style1"><![CDATA[
	.st0{fill:#262626;}
]]></style><g
     id="g2"
     transform="translate(-14.164783,-0.60275668)"><path
       class="st0"
       d="m -27.053141,-29.825183 c -1.709595,0.685392 -3.596277,2.6306 -4.188851,5.065366 -0.756035,3.087523 2.383901,4.39303 2.635914,3.962213 0.299691,-0.502619 -0.565327,-0.672332 -0.742415,-2.278108 -0.224761,-2.062703 0.783276,-4.373447 2.04334,-5.385214 0.231606,-0.189298 0.22479,0.07182 0.22479,0.561366 0,0.868164 -0.04769,8.655511 -0.04769,10.28087 0,2.199776 -0.09535,2.891694 -0.265605,3.583612 -0.170282,0.698449 -0.449533,1.168428 -0.238367,1.344673 0.231609,0.202364 1.239625,-0.280694 1.818573,-1.057459 0.694735,-0.93344 0.939938,-2.049648 0.980801,-3.263768 0.05451,-1.462168 0.04769,-3.785972 0.05451,-5.11106 0,-1.214123 0.02079,-4.771628 -0.02051,-6.912656 -0.01356,-0.528733 -1.532507,-1.077041 -2.254486,-0.789835 z m 60.830265,10.293923 c -0.05449,1.142319 -0.320124,2.036592 -0.64706,2.669761 -0.633433,1.220649 -1.954793,1.599247 -2.513307,-0.156686 -0.306503,-0.95302 -0.320125,-2.552271 -0.102177,-3.890412 0.224764,-1.357727 0.844579,-2.389079 1.879873,-2.291164 1.02167,0.09138 1.491638,1.344669 1.38266,3.668475 z m -17.143634,7.09543 c -0.01356,1.899511 -0.326933,3.5640362 -0.994426,4.0470698 -0.946749,0.6853932 -2.22724,0.1697261 -1.96161,-1.2141183 0.231579,-1.2271785 1.341797,-2.4804655 2.956036,-4.0079085 0,0 0.0066,0.34596 0,1.174957 z m -0.258818,-7.101958 c -0.05451,1.044408 -0.340559,2.088815 -0.647058,2.676289 -0.633433,1.220649 -1.961609,1.599247 -2.513311,-0.156686 -0.374611,-1.201067 -0.286057,-2.754619 -0.102162,-3.733751 0.238365,-1.27287 0.824147,-2.447825 1.879875,-2.447825 1.021669,0 1.525696,1.077041 1.382662,3.661946 z m -9.9306396,-0.01965 c -0.061319,1.103154 -0.2860569,2.023539 -0.6470597,2.695874 -0.6538694,1.214121 -1.9411714,1.599244 -2.5133112,-0.156687 -0.4086668,-1.259814 -0.2724523,-2.983084 -0.1021784,-3.91652 0.2520295,-1.383838 0.8854474,-2.356444 1.879875,-2.265053 1.0148592,0.09791 1.5120756,1.344669 1.382663,3.642362 z m 45.5120106,1.285928 c -0.25201,0 -0.360989,0.248038 -0.456343,0.659278 -0.326935,1.436057 -0.667495,1.762439 -1.110213,1.762439 -0.490403,0 -0.933129,-0.711506 -1.048911,-2.134509 -0.08853,-1.122734 -0.07491,-3.178912 0.04089,-5.23508 0.02036,-0.424291 -0.09535,-0.835529 -1.280494,-1.24676 -0.510835,-0.176259 -1.246438,-0.437344 -1.61424,0.411231 -1.035293,2.402134 -1.44396,4.308175 -1.539315,5.078429 -0.0066,0.03917 -0.05449,0.0457 -0.06811,-0.0457 -0.06132,-0.620118 -0.197519,-1.749379 -0.211156,-4.112345 0,-0.463455 -0.102162,-0.85511 -0.640247,-1.174957 -0.347368,-0.208868 -1.389474,-0.580952 -1.770894,-0.13708 -0.326934,0.359011 -0.70836,1.325087 -1.096594,2.473936 -0.320123,0.933433 -0.544891,1.560078 -0.544891,1.560078 0,0 0.0066,-2.513103 0.0066,-3.466123 0,-0.359011 -0.258831,-0.476507 -0.333747,-0.502615 -0.347365,-0.09791 -1.035292,-0.261079 -1.328172,-0.261079 -0.360988,0 -0.449533,0.195857 -0.449533,0.476507 0,0.03917 -0.05449,3.309461 -0.05449,5.600628 0,0.09791 0,0.208869 0,0.326376 -0.197515,1.050932 -0.844582,2.480465 -1.552939,2.480465 -0.701546,0 -1.035293,-0.600534 -1.035293,-3.322518 0,-1.59272 0.04768,-2.284638 0.07492,-3.433483 0.01373,-0.665804 0.04086,-1.174958 0.04086,-1.285924 -0.0066,-0.352486 -0.647058,-0.535255 -0.939936,-0.600533 -0.29969,-0.06528 -0.558513,-0.09138 -0.762846,-0.07834 -0.28607,0.013 -0.490401,0.195831 -0.490401,0.443872 0,0.13055 0,0.385122 0,0.385122 -0.367803,-0.554839 -0.967183,-0.946489 -1.362229,-1.057457 -1.062538,-0.306796 -2.179563,-0.03266 -3.017334,1.090099 -0.667489,0.894267 -1.069346,1.90604 -1.226005,3.361676 -0.115776,1.06399 -0.07492,2.141033 0.129407,3.054891 -0.245192,1.031349 -0.70836,1.449109 -1.212381,1.449109 -0.735604,0 -1.266873,-1.148844 -1.205573,-3.126688 0.04086,-1.305509 0.313312,-2.219363 0.613002,-3.54445 0.129422,-0.561369 0.02039,-0.861638 -0.231584,-1.14232 -0.238401,-0.261078 -0.742413,-0.391652 -1.471203,-0.22844 -0.517649,0.117486 -1.260062,0.241507 -1.934364,0.33943 0,0 0.04086,-0.156686 0.07492,-0.430817 0.177091,-1.442584 -1.464396,-1.325089 -1.982041,-0.868162 -0.313315,0.274146 -0.524459,0.600534 -0.606192,1.18148 -0.129405,0.926917 0.660679,1.364254 0.660679,1.364254 -0.258817,1.135792 -0.892256,2.617543 -1.546129,3.688059 -0.347368,0.574424 -0.619813,0.998715 -0.967181,1.455642 0,-0.169725 0,-0.339428 0,-0.502618 -0.0066,-2.38908 0.02715,-4.262483 0.04084,-4.941345 0.01356,-0.665805 0.04084,-1.161901 0.04084,-1.272869 -0.0066,-0.261078 -0.163463,-0.359014 -0.4904,-0.483038 -0.292881,-0.110956 -0.633434,-0.18279 -0.987614,-0.208897 -0.449537,-0.05224 -0.721982,0.176259 -0.71517,0.443872 0,0.05224 0,0.365546 0,0.365546 -0.367802,-0.55484 -0.96718,-0.946497 -1.362228,-1.057465 -1.062537,-0.300261 -2.179563,-0.03267 -3.017332,1.090099 -0.667494,0.894274 -1.103408,2.147558 -1.226004,3.348623 -0.115777,1.122741 -0.09535,2.069234 0.06132,2.872119 -0.170282,0.802886 -0.653873,1.644942 -1.2055734,1.644942 -0.70155,0 -1.1034061,-0.600537 -1.1034061,-3.322515 0,-1.592723 0.047686,-2.284643 0.074935,-3.433487 0.013564,-0.66581 0.040847,-1.174956 0.040847,-1.285926 -0.00661,-0.352484 -0.6470581,-0.535255 -0.9399393,-0.60053 -0.3133102,-0.07182 -0.578945,-0.09138 -0.7832776,-0.07834 -0.2724532,0.01965 -0.463156,0.254546 -0.463156,0.424292 v 0.404707 c -0.3678021,-0.554844 -0.9671848,-0.946492 -1.3622315,-1.057459 -1.0625361,-0.300272 -2.1727519,-0.03267 -3.0173328,1.090097 -0.5517031,0.731084 -0.9944259,1.540498 -1.22600664,3.335571 -0.068088,0.515676 -0.095347,1.005239 -0.088531,1.455639 -0.2179428,1.285923 -1.19194721,2.774202 -1.98203586,2.774202 -0.4631596,0 -0.9058885,-0.861632 -0.9058885,-2.702403 0,-2.454348 0.1566817,-5.940052 0.1839176,-6.279485 0,0 1.00123965,-0.013 1.19876085,-0.01965 0.4972126,-0.0067 0.95355881,0.0063 1.62105151,-0.02602 0.33374604,-0.013 0.65386844,-1.168431 0.31331194,-1.305506 -0.1566817,-0.06527 -1.26006384,-0.124019 -1.70278475,-0.13055 -0.3678019,-0.0063 -1.39628265,-0.07832 -1.39628265,-0.07832 0,0 0.095346,-2.317277 0.1157759,-2.558796 0.020506,-0.202391 -0.258847,-0.30679 -0.4154773,-0.372064 -0.3814274,-0.156659 -0.7287919,-0.228497 -1.1374604,-0.313323 -0.5653267,-0.110955 -0.817338,0 -0.8650142,0.450396 -0.0749,0.691921 -0.1157768,2.715455 -0.1157768,2.715455 -0.4154799,0 -1.8253858,-0.07831 -2.2340543,-0.07831 -0.3814187,0 -0.7969007,1.57966 -0.2656067,1.599244 0.6130007,0.01965 1.6755412,0.03917 2.3770841,0.06529 0,0 -0.034079,3.550973 -0.034079,4.641071 0,0.117486 0,0.228496 0,0.339433 -0.3882353,1.938679 -1.7572738,2.983085 -1.7572738,2.983085 0.2928891,-1.2794 -0.3065031,-2.245477 -1.3894713,-3.061415 -0.39505,-0.300264 -1.185137,-0.868165 -2.063775,-1.494806 0,0 0.510834,-0.483037 0.96037,-1.44911 0.320123,-0.685394 0.333745,-1.468696 -0.449536,-1.644942 -1.294113,-0.287213 -2.370272,0.626644 -2.683586,1.599246 -0.245183,0.757197 -0.115777,1.318563 0.367801,1.899514 0.03408,0.03917 0.0749,0.08485 0.115777,0.130549 -0.292893,0.541782 -0.694742,1.266341 -1.035295,1.834235 -0.946748,1.566611 -1.661917,2.80684 -2.199998,2.80684 -0.429103,0 -0.429103,-1.259812 -0.429103,-2.441292 0,-1.018303 0.0749,-2.545748 0.143051,-4.125406 0.02051,-0.522204 -0.25203,-0.822472 -0.708355,-1.090098 -0.279239,-0.163192 -0.871824,-0.489569 -1.21238,-0.489569 -0.517651,0 -1.995668,0.06529 -3.398761,3.955689 -0.1771,0.489563 -0.524459,1.383836 -0.524459,1.383836 l 0.02716,-4.673711 c 0,-0.110955 -0.0613,-0.215431 -0.197493,-0.287213 -0.238367,-0.124018 -0.865014,-0.372072 -1.430342,-0.372072 -0.265608,0 -0.401855,0.117486 -0.401855,0.359019 l -0.06132,7.310837 c 0,0.554839 0.01356,1.201066 0.0749,1.48828 0.05451,0.280666 0.149867,0.515674 0.265606,0.652749 0.115776,0.137095 0.245183,0.24148 0.463159,0.287212 0.204338,0.03917 1.314551,0.176259 1.375846,-0.228414 0.06812,-0.489567 0.07493,-1.018298 0.653867,-2.989616 0.905886,-3.067941 2.097833,-4.562742 2.649536,-5.091472 0.09535,-0.09141 0.211156,-0.09791 0.204367,0.05224 -0.02743,0.672342 -0.108992,2.349916 -0.163493,3.779448 -0.149867,3.818608 0.572127,4.530105 1.607424,4.530105 0.790091,0 1.907116,-0.757194 3.105878,-2.663234 0.749224,-1.188008 1.471205,-2.356441 1.995667,-3.198491 0.360983,0.31985 0.769654,0.665809 1.178324,1.037878 0.94675,0.861637 1.260056,1.677576 1.048912,2.454357 -0.156681,0.594002 -0.749224,1.201066 -1.804953,0.607058 -0.306498,-0.176259 -0.442721,-0.306793 -0.749221,-0.502625 -0.163494,-0.104455 -0.422292,-0.137065 -0.57214,-0.02602 -0.39504,0.28721 -0.619812,0.652756 -0.749221,1.096628 -0.122592,0.437341 0.333744,0.672333 0.803711,0.874685 0.40867,0.176258 1.287307,0.332909 1.84582,0.352488 2.179563,0.07181 3.9300278,-1.011768 5.1492178,-3.792496 0.217944,2.402131 1.1442735,3.766386 2.7585093,3.766386 1.07616115,0 2.15913106,-1.331617 2.62909736,-2.643649 0.13622144,0.535258 0.33374604,0.998714 0.59257304,1.390365 1.2396284,1.886454 3.6507716,1.481751 4.8563414,-0.124018 0.3746134,-0.496096 0.4291035,-0.672341 0.4291035,-0.672341 0.1770984,1.507862 1.4439583,2.036593 2.1727522,2.036593 0.817335,0 1.6551044,-0.365537 2.2408614,-1.638413 0.06812,0.137096 0.143021,0.267613 0.224762,0.391657 1.239628,1.886456 3.650772,1.47522 4.856344,-0.124019 0.05451,-0.07178 0.108993,-0.143626 0.149836,-0.20239 l 0.03406,0.992186 c 0,0 -0.687926,0.607056 -1.110217,0.97913 -1.866254,1.63841 -3.282968,2.885171 -3.385135,4.3277554 -0.136221,1.8472924 1.430338,2.5326826 2.608664,2.624067 1.25325,0.097908 2.329412,-0.5678975 2.99009,-1.5013312 0.578949,-0.8159423 0.960373,-2.5783782 0.933124,-4.3212322 -0.01356,-0.698445 -0.02715,-1.579659 -0.04084,-2.532682 0.653869,-0.731082 1.389474,-1.651467 2.070586,-2.728505 0.742416,-1.174959 1.532507,-2.754626 1.941175,-3.981798 0,0 0.687923,0.0063 1.423528,-0.03917 0.2384,-0.013 0.3065,0.03267 0.258831,0.195858 -0.05449,0.202363 -0.926315,3.44001 -0.129406,5.600625 0.544889,1.475225 1.784518,1.951734 2.513309,1.951734 0.858203,0 1.675541,-0.620116 2.118263,-1.540502 0.05449,0.104455 0.108993,0.202366 0.170274,0.293745 1.239626,1.886453 3.637149,1.47522 4.85634,-0.124019 0.272441,-0.359015 0.429103,-0.672332 0.429103,-0.672332 0.258831,1.566605 1.532504,2.049642 2.254485,2.049642 0.756037,0 1.478017,-0.300265 2.056963,-1.618829 0.02712,0.580954 0.0613,1.057462 0.122591,1.207597 0.03408,0.09138 0.252012,0.208897 0.408667,0.261078 0.694736,0.248044 1.396282,0.13055 1.661917,0.07832 0.183911,-0.03267 0.320124,-0.176259 0.340558,-0.535255 0.04768,-0.946495 0.0204,-2.532681 0.32012,-3.707639 0.504027,-1.977844 0.967183,-2.748095 1.191951,-3.126692 0.122592,-0.215402 0.265623,-0.24804 0.272441,-0.02602 0.01373,0.456927 0.03408,1.795074 0.224767,3.590149 0.14302,1.325086 0.333744,2.101862 0.476778,2.349905 0.415479,0.704977 0.933128,0.737612 1.355417,0.737612 0.265623,0 0.824147,-0.07182 0.776468,-0.522198 -0.02714,-0.221964 0.0204,-1.573139 0.510836,-3.524871 0.320123,-1.272872 0.858202,-2.421716 1.055727,-2.839475 0.07492,-0.156687 0.102162,-0.03267 0.102162,-0.0063 -0.04086,0.874691 -0.129422,3.740283 0.238402,5.306888 0.504023,2.121451 1.968416,2.362966 2.472435,2.362966 1.082973,0 1.975237,-0.789831 2.274924,-2.878642 0.08857,-0.483038 -0.02036,-0.874687 -0.34056,-0.874687 z m 0,0 z"
       id="path1"
       style="stroke-width:0.666781" /><g
       id="surface1"
       transform="matrix(1.1166708,0,0,1.0701749,-73.874575,-36.385122)"><path
         style="fill:url(#radial0);fill-rule:nonzero;stroke:none"
         d="M 22.503906,5 C 18.328125,5 17.105469,5.003906 16.867188,5.023438 16.011719,5.09375 15.476562,5.230469 14.898438,5.519531 14.449219,5.742188 14.097656,6 13.746094,6.359375 c -0.632813,0.660156 -1.015625,1.472656 -1.15625,2.433594 -0.06641,0.46875 -0.08984,0.5625 -0.09375,2.953125 0,0.796875 0,1.84375 0,3.25 0,4.171875 0.0078,5.394531 0.02734,5.628906 0.06641,0.835938 0.199218,1.359375 0.476562,1.933594 0.527344,1.097656 1.539062,1.921875 2.730469,2.230468 0.414062,0.105469 0.867187,0.164063 1.453125,0.191407 C 17.429688,24.992188 19.957031,25 22.480469,25 c 2.527343,0 5.054687,-0.0039 5.296875,-0.01563 0.675781,-0.03125 1.070312,-0.08594 1.503906,-0.195313 1.195312,-0.308593 2.195312,-1.125 2.730469,-2.238281 0.273437,-0.558593 0.410156,-1.101562 0.472656,-1.894531 0.01172,-0.171875 0.01953,-2.917969 0.01953,-5.664062 0,-2.742188 -0.0078,-5.484376 -0.01953,-5.65625 C 32.417969,8.53125 32.28125,7.992188 32,7.421875 31.773438,6.953125 31.515625,6.605469 31.144531,6.246094 30.484375,5.617188 29.675781,5.230469 28.710938,5.089844 28.242188,5.023438 28.148438,5.003906 25.757812,5 Z m 0,0"
         id="path7" /><path
         style="fill:url(#radial1);fill-rule:nonzero;stroke:none"
         d="M 22.503906,5 C 18.328125,5 17.105469,5.003906 16.867188,5.023438 16.011719,5.09375 15.476562,5.230469 14.898438,5.519531 14.449219,5.742188 14.097656,6 13.746094,6.359375 c -0.632813,0.660156 -1.015625,1.472656 -1.15625,2.433594 -0.06641,0.46875 -0.08984,0.5625 -0.09375,2.953125 0,0.796875 0,1.84375 0,3.25 0,4.171875 0.0078,5.394531 0.02734,5.628906 0.06641,0.835938 0.199218,1.359375 0.476562,1.933594 0.527344,1.097656 1.539062,1.921875 2.730469,2.230468 0.414062,0.105469 0.867187,0.164063 1.453125,0.191407 C 17.429688,24.992188 19.957031,25 22.480469,25 c 2.527343,0 5.054687,-0.0039 5.296875,-0.01563 0.675781,-0.03125 1.070312,-0.08594 1.503906,-0.195313 1.195312,-0.308593 2.195312,-1.125 2.730469,-2.238281 0.273437,-0.558593 0.410156,-1.101562 0.472656,-1.894531 0.01172,-0.171875 0.01953,-2.917969 0.01953,-5.664062 0,-2.742188 -0.0078,-5.484376 -0.01953,-5.65625 C 32.417969,8.53125 32.28125,7.992188 32,7.421875 31.773438,6.953125 31.515625,6.605469 31.144531,6.246094 30.484375,5.617188 29.675781,5.230469 28.710938,5.089844 28.242188,5.023438 28.148438,5.003906 25.757812,5 Z m 0,0"
         id="path8" /><path
         style="fill:#ffffff;fill-opacity:1;fill-rule:nonzero;stroke:none"
         d="m 22.5,7.617188 c -2.007812,0 -2.257812,0.00781 -3.046875,0.042968 -0.785156,0.035156 -1.324219,0.160156 -1.792969,0.34375 -0.484375,0.1875 -0.898437,0.441406 -1.308594,0.851563 -0.410156,0.410156 -0.660156,0.820312 -0.851562,1.308593 -0.183594,0.46875 -0.308594,1.003907 -0.34375,1.792969 -0.03516,0.785157 -0.04297,1.039063 -0.04297,3.042969 0,2.007812 0.0078,2.257812 0.04297,3.046875 0.03906,0.785156 0.160156,1.320313 0.34375,1.789063 0.1875,0.488281 0.441406,0.898437 0.851562,1.308593 0.410157,0.414063 0.824219,0.664063 1.308594,0.855469 0.46875,0.179688 1.007813,0.304688 1.792969,0.339844 0.789063,0.03906 1.039063,0.04687 3.042969,0.04687 2.007812,0 2.257812,-0.0078 3.046875,-0.04687 0.785156,-0.03516 1.324219,-0.160156 1.792969,-0.339844 0.484374,-0.191406 0.898437,-0.441406 1.308593,-0.855469 0.410157,-0.410156 0.660157,-0.820312 0.851563,-1.308593 0.179687,-0.46875 0.304687,-1.003907 0.34375,-1.789063 0.03516,-0.789063 0.04297,-1.039063 0.04297,-3.046875 0,-2.003906 -0.0078,-2.257812 -0.04297,-3.042969 -0.03906,-0.789062 -0.164063,-1.324219 -0.34375,-1.792969 C 29.304688,9.675781 29.054688,9.265625 28.644531,8.855469 28.230469,8.445312 27.820312,8.191406 27.335938,8.003906 26.863281,7.820312 26.328125,7.695312 25.542969,7.660156 24.753906,7.625 24.503906,7.617188 22.496094,7.617188 Z m -0.664062,1.328124 c 0.195312,0 0.417968,0 0.664062,0 1.96875,0 2.203125,0.00781 2.984375,0.042969 0.71875,0.035157 1.109375,0.152344 1.371094,0.253907 0.34375,0.136718 0.589843,0.296874 0.847656,0.554687 0.257813,0.257813 0.417969,0.503906 0.550781,0.847656 0.101563,0.261719 0.222656,0.652344 0.253906,1.371094 0.03906,0.777344 0.04688,1.011719 0.04688,2.984375 0,1.96875 -0.0078,2.203125 -0.04688,2.984375 -0.03125,0.71875 -0.152343,1.109375 -0.253906,1.367187 -0.132812,0.347657 -0.292968,0.59375 -0.550781,0.851563 -0.257813,0.257813 -0.503906,0.417969 -0.847656,0.550781 -0.261719,0.101563 -0.652344,0.222656 -1.371094,0.253906 -0.78125,0.03516 -1.015625,0.04297 -2.984375,0.04297 -1.972656,0 -2.207031,-0.0078 -2.984375,-0.04297 -0.722656,-0.03125 -1.113281,-0.152343 -1.371094,-0.253906 -0.347656,-0.132812 -0.59375,-0.292968 -0.851562,-0.550781 -0.257813,-0.261719 -0.417969,-0.503906 -0.550781,-0.851563 -0.101563,-0.257812 -0.222657,-0.648437 -0.253907,-1.371093 -0.03516,-0.777344 -0.04297,-1.011719 -0.04297,-2.984375 0,-1.972656 0.0078,-2.203125 0.04297,-2.980469 0.03125,-0.722656 0.152344,-1.113281 0.253907,-1.371094 C 16.875,10.296875 17.035156,10.050781 17.292969,9.792969 17.550781,9.535156 17.796875,9.375 18.144531,9.242188 18.402344,9.140625 18.792969,9.019531 19.515625,8.984375 20.195312,8.957031 20.460938,8.945312 21.835938,8.945312 Z m 4.605468,1.226563 c -0.488281,0 -0.886718,0.398437 -0.886718,0.886719 0,0.488281 0.398437,0.886718 0.886718,0.886718 0.488282,0 0.886719,-0.398437 0.886719,-0.886718 0,-0.488282 -0.398437,-0.886719 -0.886719,-0.886719 z M 22.5,11.207031 c -2.097656,0 -3.792969,1.699219 -3.792969,3.792969 0,2.09375 1.695313,3.792969 3.792969,3.792969 2.09375,0 3.789062,-1.699219 3.789062,-3.792969 0,-2.09375 -1.695312,-3.792969 -3.789062,-3.792969 z m 0,1.332031 c 1.359375,0 2.460938,1.101563 2.460938,2.460938 0,1.359375 -1.101563,2.460938 -2.460938,2.460938 -1.359375,0 -2.464844,-1.101563 -2.464844,-2.460938 0,-1.359375 1.105469,-2.460938 2.464844,-2.460938 z m 0,0"
         id="path9" /></g></g></svg>
