<?xml version="1.0" encoding="UTF-8" standalone="no"?>
<svg
   height="136"
   width="600"
   viewBox="-19.5036 -32.49725 600 136"
   version="1.1"
   id="svg9"
   xml:space="preserve"
   xmlns="http://www.w3.org/2000/svg"
   xmlns:svg="http://www.w3.org/2000/svg"><defs
     id="defs7" /><style
     type="text/css"
     id="style1"><![CDATA[
	.st0{fill:#262626;}
]]></style><path
     class="st0"
     d="m 91.50206,-12.635046 c -2.776987,1.16169 -5.84163,4.458681 -6.804186,8.585439 -1.228071,5.2331342 3.872305,7.4458755 4.281662,6.7156633 0.486802,-0.8519022 -0.918283,-1.1395484 -1.205945,-3.8612268 -0.365101,-3.4961305 1.272322,-7.4126765 3.319117,-9.1275535 0.376226,-0.320861 0.365101,0.121752 0.365101,0.951482 0,1.471471 -0.07746,14.6704696 -0.07746,17.4253361 0,3.7284689 -0.154868,4.9012159 -0.431487,6.0739729 -0.276568,1.18382 -0.730202,1.980399 -0.387196,2.279118 0.376226,0.343007 2.013587,-0.47578 2.954011,-1.792316 1.128496,-1.58211 1.526791,-3.474011 1.593167,-5.5318537 0.08853,-2.4782725 0.07746,-6.416959 0.08853,-8.6628833 0,-2.0578528 0.03379,-8.087575 -0.03379,-11.716459 -0.02235,-0.896163 -2.489335,-1.82551 -3.662093,-1.338719 z m 98.80997,17.4474724 c -0.0885,1.9361526 -0.51999,3.451875 -1.05105,4.5250471 -1.02893,2.0689205 -3.17529,2.7106155 -4.08251,-0.2655469 -0.49784,-1.6153025 -0.51998,-4.3259129 -0.166,-6.5939677 0.3651,-2.3012535 1.3719,-4.049319 3.05359,-3.8833626 1.65955,0.1548676 2.42295,2.2791228 2.24593,6.2178093 z M 162.46468,16.838673 c -0.0223,3.219537 -0.53102,6.040785 -1.6153,6.859493 -1.53786,1.161695 -3.61783,0.287693 -3.18635,-2.057847 0.37614,-2.079978 2.17955,-4.204213 4.80165,-6.793118 0,0 0.0105,0.586356 0,1.991472 z M 162.04425,4.8013585 c -0.0885,1.7702014 -0.55317,3.5403923 -1.05106,4.536115 -1.02892,2.0689205 -3.18635,2.7106155 -4.08251,-0.2655469 -0.6085,-2.035717 -0.46465,-4.6688831 -0.166,-6.3284313 0.38718,-2.1574381 1.33871,-4.148899 3.05359,-4.148899 1.65955,0 2.47827,1.8255097 2.24593,6.2067362 z m -16.13089,-0.033791 c -0.0996,1.869771 -0.46465,3.4297599 -1.05106,4.5693135 -1.06212,2.057853 -3.15315,2.71061 -4.08251,-0.2655468 -0.66384,-2.1352919 -0.44259,-5.0561147 -0.166,-6.6382239 0.4094,-2.3455043 1.43828,-3.9940053 3.05359,-3.8391013 1.64849,0.1659408 2.45614,2.2791176 2.24593,6.1735429 z m 73.92767,2.1795635 c -0.40932,0 -0.58635,0.4204145 -0.74124,1.1174282 -0.53102,2.4340058 -1.08424,2.9872098 -1.80337,2.9872098 -0.79659,0 -1.51574,-1.2059561 -1.70381,-3.6178471 -0.14378,-1.9029488 -0.1217,-5.3880223 0.0664,-8.8730854 0.0328,-0.7191655 -0.15488,-1.4161635 -2.07997,-2.1131665 -0.82978,-0.298714 -2.02466,-0.741244 -2.6221,0.697019 -1.68168,4.0714443 -2.3455,7.3020493 -2.5004,8.6075749 -0.0104,0.066387 -0.0885,0.07746 -0.11059,-0.07746 -0.0996,-1.0510571 -0.32088,-2.9650738 -0.34303,-6.9701263 0,-0.7855308 -0.16592,-1.4493568 -1.03998,-1.9914768 -0.56429,-0.353975 -2.25701,-0.9846698 -2.87656,-0.232379 -0.5311,0.608501 -1.15063,2.2459293 -1.78127,4.1931445 -0.51998,1.5821091 -0.88509,2.6442237 -0.88509,2.6442237 0,0 0.0104,-4.2595314 0.0104,-5.8748282 0,-0.608507 -0.42044,-0.807646 -0.54214,-0.851897 -0.56428,-0.165941 -1.68168,-0.442509 -2.15743,-0.442509 -0.58635,0 -0.7302,0.331985 -0.7302,0.807651 0,0.06639 -0.0885,5.6092975 -0.0885,9.4926653 0,0.1659408 0,0.3539758 0,0.5531723 -0.3208,1.7812589 -1.3719,4.2042126 -2.52253,4.2042126 -1.13955,0 -1.68168,-1.017864 -1.68168,-5.631428 0,-2.6995477 0.0775,-3.8723051 0.1217,-5.8195151 0.0224,-1.1284857 0.0664,-1.9914661 0.0664,-2.1795431 -0.0104,-0.597464 -1.05105,-0.907221 -1.52679,-1.017863 -0.4868,-0.110679 -0.90722,-0.154868 -1.23913,-0.132826 -0.46466,0.02235 -0.79659,0.331934 -0.79659,0.752333 0,0.221254 0,0.652726 0,0.652726 -0.59746,-0.940414 -1.57105,-1.604234 -2.21274,-1.792316 -1.72594,-0.5199898 -3.54039,-0.05516 -4.90123,1.84764 -1.08424,1.5157277 -1.737,3.2305999 -1.99146,5.6978045 -0.18808,1.8033843 -0.1217,3.628894 0.21021,5.1778254 -0.39828,1.7480603 -1.15063,2.4561313 -1.96933,2.4561313 -1.19488,0 -2.05785,-1.9472099 -1.95829,-5.2995099 0.0664,-2.2127465 0.50896,-3.7616675 0.99574,-6.0075918 0.21022,-0.9514873 0.0328,-1.4604192 -0.37614,-1.9361475 -0.38724,-0.442508 -1.20594,-0.663836 -2.38975,-0.387195 -0.84085,0.199108 -2.04679,0.409342 -3.1421,0.5753186 0,0 0.0664,-0.2655466 0.1217,-0.7302016 0.28762,-2.4450688 -2.37869,-2.2459298 -3.21953,-1.4714668 -0.50895,0.4646548 -0.85191,1.0178638 -0.98467,2.0025188 -0.21022,1.5710567 1.07317,2.3123108 1.07317,2.3123108 -0.42044,1.9250951 -1.44934,4.4365557 -2.51146,6.2509976 -0.56428,0.9736076 -1.0068,1.6927623 -1.57104,2.467215 0,-0.2876931 0,-0.5753186 0,-0.851897 -0.0105,-4.0493293 0.044,-7.2246103 0.0664,-8.3752318 0.0224,-1.1284909 0.0664,-1.9693456 0.0664,-2.1574226 -0.0104,-0.442509 -0.26555,-0.608501 -0.79659,-0.818719 -0.47576,-0.188087 -1.02892,-0.309839 -1.60423,-0.35408 -0.73021,-0.08853 -1.17276,0.298714 -1.16169,0.752322 0,0.08853 0,0.619539 0,0.619539 -0.59747,-0.940415 -1.57104,-1.60424 -2.21275,-1.792327 -1.72593,-0.5089478 -3.54038,-0.05516 -4.90121,1.847645 -1.08425,1.5157227 -1.79234,3.639957 -1.99147,5.6756688 -0.18807,1.9029748 -0.15488,3.5072093 0.0996,4.8680433 -0.27659,1.3608392 -1.06213,2.7880601 -1.95828,2.7880601 -1.13956,0 -1.79233,-1.017869 -1.79233,-5.6314283 0,-2.6995529 0.0775,-3.8723103 0.1217,-5.8195203 0.0224,-1.1284961 0.0664,-1.9914606 0.0664,-2.1795526 -0.0112,-0.597465 -1.05105,-0.907211 -1.5268,-1.017854 -0.50895,-0.121752 -0.94041,-0.154867 -1.27232,-0.132825 -0.44258,0.03379 -0.75234,0.431383 -0.75234,0.719165 v 0.685982 c -0.59746,-0.940419 -1.57104,-1.604235 -2.21274,-1.792316 -1.72593,-0.5089478 -3.52932,-0.05521 -4.90122,1.847635 -0.89616,1.2391386 -1.6153,2.6110353 -1.99147,5.6535533 -0.11058,0.8740379 -0.15487,1.7038094 -0.1438,2.4672098 -0.35407,2.1795477 -1.93624,4.7020661 -3.21962,4.7020661 -0.75234,0 -1.47149,-1.4603986 -1.47149,-4.5803816 0,-4.1599357 0.25453,-10.0679576 0.29871,-10.6432714 0,0 1.62637,-0.02235 1.94722,-0.03379 0.80765,-0.01144 1.54892,0.0104 2.63316,-0.04419 0.54214,-0.02235 1.06212,-1.980404 0.50895,-2.212736 -0.25453,-0.110576 -2.04679,-0.210234 -2.76593,-0.221255 -0.59747,-0.0104 -2.26806,-0.132721 -2.26806,-0.132721 0,0 0.15487,-3.927624 0.18809,-4.336981 0.0338,-0.343007 -0.42042,-0.519984 -0.67488,-0.630648 -0.61954,-0.265547 -1.18381,-0.387247 -1.84763,-0.531026 -0.9183,-0.188087 -1.32766,0 -1.4051,0.76339 -0.1217,1.172758 -0.18808,4.602507 -0.18808,4.602507 -0.67488,0 -2.96508,-0.132721 -3.6289,-0.132721 -0.61955,0 -1.29445,2.677411 -0.43149,2.710605 0.99573,0.03379 2.72167,0.06639 3.86123,0.110679 0,0 -0.0552,6.018649 -0.0552,7.8662842 0,0.1991082 0,0.3872992 0,0.5753186 -0.63065,3.2859238 -2.85444,5.0561199 -2.85444,5.0561199 0.47578,-2.1685008 -0.49782,-3.8059287 -2.257,-5.1888829 -0.64169,-0.5089475 -1.92508,-1.4714716 -3.3523,-2.5335914 0,0 0.82978,-0.8187139 1.55998,-2.4561419 0.51999,-1.1616947 0.54214,-2.4893357 -0.7302,-2.7880545 -2.1021,-0.486801 -3.85017,1.0621148 -4.3591,2.7106051 -0.39827,1.2834002 -0.18809,2.2348719 0.59747,3.2195423 0.0551,0.066387 0.1217,0.1437945 0.18808,0.2212544 -0.47578,0.9182784 -1.1285,2.1463597 -1.68168,3.1088994 -1.53786,2.6552969 -2.69955,4.7573954 -3.57359,4.7573954 -0.69702,0 -0.69702,-2.1352919 -0.69702,-4.1378207 0,-1.7259505 0.12165,-4.3148554 0.23238,-6.9922673 0.0338,-0.8850958 -0.40939,-1.3940328 -1.15062,-1.8476408 -0.45353,-0.276568 -1.41615,-0.829781 -1.96934,-0.829781 -0.84084,0 -3.24167,0.110679 -5.52079,6.7046101 -0.28769,0.8297767 -0.85191,2.3455043 -0.85191,2.3455043 l 0.0442,-7.9216084 c 0,-0.188087 -0.0996,-0.365101 -0.3208,-0.486801 -0.3872,-0.210233 -1.40509,-0.630653 -2.323393,-0.630653 -0.431488,0 -0.652722,0.199108 -0.652722,0.608501 l -0.09961,12.3913474 c 0,0.9404138 0.02236,2.0357278 0.121649,2.5225288 0.08853,0.475676 0.2434,0.874033 0.431383,1.106365 0.188087,0.23238 0.398269,0.409342 0.752338,0.486802 0.331935,0.06639 2.135295,0.298714 2.234865,-0.387196 0.11068,-0.829776 0.1217,-1.72594 1.06211,-5.0671823 1.47148,-5.1999405 3.40763,-7.7335318 4.30379,-8.6296848 0.15487,-0.1549716 0.34301,-0.1659927 0.33198,0.088533 -0.0447,1.1395692 -0.17701,3.9829374 -0.26554,6.4058963 -0.24345,6.4722678 0.92933,7.6782078 2.61102,7.6782078 1.28339,0 3.09783,-1.2834 5.04505,-4.5139999 1.217,-2.0135863 2.38976,-3.9940001 3.24167,-5.4212104 0.58636,0.5421356 1.2502,1.1284961 1.91402,1.7591282 1.53786,1.460414 2.04678,2.8433682 1.70381,4.1599617 -0.25453,1.0067854 -1.21701,2.0357174 -2.93189,1.0289214 -0.49782,-0.298714 -0.71917,-0.5199895 -1.217,-0.8519127 -0.26555,-0.1770139 -0.68598,-0.2322755 -0.92936,-0.044189 -0.64168,0.4868013 -1.0068,1.1063707 -1.217,1.8587087 -0.19911,0.741238 0.54214,1.139553 1.30551,1.482524 0.66384,0.298714 2.09104,0.564281 2.99826,0.597464 3.5404,0.121701 6.38377,-1.714872 8.36417,-6.4280111 0.35398,4.0714441 1.85871,6.3837551 4.48081,6.3837551 1.74806,0 3.50718,-2.256992 4.27058,-4.4807959 0.22125,0.9072261 0.54213,1.6927469 0.96255,2.3565669 2.0136,3.197412 5.93015,2.511466 7.88843,-0.210233 0.6085,-0.84085 0.69702,-1.1395694 0.69702,-1.1395694 0.2877,2.5557224 2.3455,3.4518754 3.52932,3.4518754 1.32765,0 2.68848,-0.619539 3.63996,-2.776987 0.11066,0.232379 0.23229,0.453634 0.3651,0.663836 2.0136,3.197406 5.93015,2.500393 7.88844,-0.210233 0.0885,-0.121701 0.17703,-0.243401 0.2434,-0.343059 l 0.0552,1.681684 c 0,0 -1.11744,1.028926 -1.80338,1.659558 -3.03147,2.776993 -5.33271,4.890159 -5.49867,7.335239 -0.22126,3.131029 2.32338,4.292714 4.23739,4.447607 2.03573,0.16594 3.7838,-0.962544 4.85697,-2.544649 0.94042,-1.382964 1.55999,-4.370163 1.51573,-7.324185 -0.0224,-1.183815 -0.044,-2.677407 -0.0664,-4.292714 1.06211,-1.239129 2.25699,-2.7991126 3.36336,-4.6246223 1.20595,-1.9914713 2.48934,-4.6688884 3.15316,-6.7488615 0,0 1.11743,0.010397 2.31232,-0.066387 0.38724,-0.022354 0.49783,0.05521 0.42043,0.3319856 -0.0885,0.3430066 -1.50466,5.8305778 -0.21022,9.4926652 0.88509,2.500403 2.89869,3.308054 4.08251,3.308054 1.39402,0 2.72167,-1.051062 3.44081,-2.61104 0.0885,0.177014 0.17703,0.343006 0.27658,0.497926 2.01359,3.197401 5.90802,2.500388 7.88842,-0.210233 0.44258,-0.608502 0.69701,-1.1395539 0.69701,-1.1395539 0.42044,2.6552809 2.48933,3.4740009 3.66209,3.4740009 1.22807,0 2.40083,-0.508948 3.34124,-2.743804 0.044,0.984675 0.0996,1.792321 0.19911,2.04679 0.0552,0.154868 0.40932,0.35408 0.66383,0.442509 1.1285,0.420414 2.26805,0.221254 2.69955,0.132721 0.29873,-0.05521 0.51998,-0.298714 0.55317,-0.907221 0.0775,-1.604245 0.0328,-4.2927143 0.51998,-6.2841856 0.81872,-3.3523053 1.57105,-4.6578204 1.93616,-5.2995153 0.19918,-0.3651009 0.43147,-0.4204145 0.44258,-0.044188 0.0223,0.7744631 0.0552,3.0425232 0.3651,6.0850463 0.23229,2.2459295 0.54213,3.5625076 0.77445,3.9829266 0.67487,1.194883 1.51574,1.250197 2.20169,1.250197 0.43147,0 1.3387,-0.121752 1.26126,-0.885085 -0.044,-0.376226 0.0328,-2.666365 0.82977,-5.9744038 0.51999,-2.1574277 1.39403,-4.1046377 1.71488,-4.8127193 0.1217,-0.2655468 0.166,-0.05521 0.166,-0.010397 -0.0664,1.4825395 -0.21022,6.3395149 0.38724,8.9948013 0.81872,3.5957008 3.19741,4.0050578 4.01611,4.0050578 1.75914,0 3.20849,-1.338709 3.69529,-4.8790957 0.14385,-0.8187088 -0.0328,-1.4825291 -0.55317,-1.4825291 z m 0,0 z"
     id="path1"
     style="stroke-width:1.10637" /><path
     d="m 33.727422,-13.476421 c -5.359918,0 -6.032587,0.02391 -8.137737,0.119257 -2.101048,0.09618 -3.535183,0.428889 -4.790053,0.916901 -1.298039,0.504113 -2.399133,1.178388 -3.496121,2.275785 -1.097808,1.096987 -1.772114,2.198076 -2.277838,3.495705 -0.489297,1.255281 -0.822332,2.689837 -0.916896,4.7900534 -0.09373,2.1051605 -0.118425,2.7782344 -0.118425,8.1381528 0,5.3599238 0.02391,6.0305278 0.119257,8.1356888 0.09664,2.101043 0.429252,3.535178 0.916896,4.790043 0.504476,1.298044 1.178803,2.399138 2.276196,3.496131 1.096571,1.097803 2.19767,1.773757 3.494888,2.277833 1.255691,0.488049 2.690237,0.820684 4.790869,0.916896 2.105161,0.09581 2.777413,0.119257 8.136926,0.119257 5.360329,0 6.030939,-0.02287 8.1361,-0.119257 2.101032,-0.09617 3.536815,-0.428837 4.792512,-0.916896 1.297623,-0.504113 2.397075,-1.18003 3.493651,-2.277833 1.097809,-1.096993 1.772109,-2.198087 2.277844,-3.495721 0.48519,-1.255275 0.818215,-2.689821 0.916896,-4.790042 0.09456,-2.105161 0.119257,-2.776176 0.119257,-8.1360998 0,-5.3599184 -0.02443,-6.0325816 -0.119257,-8.1377421 -0.09867,-2.1010431 -0.431696,-3.5351831 -0.916896,-4.7900481 -0.505724,-1.298045 -1.180035,-2.399134 -2.277844,-3.496121 -1.097803,-1.097808 -2.195606,-1.772114 -3.494883,-2.275785 -1.258161,-0.488049 -2.693117,-0.820679 -4.79416,-0.916901 -2.105161,-0.09576 -2.775355,-0.119257 -8.136921,-0.119257 z m -1.770466,3.55656 c 0.525468,-8.21e-4 1.111787,0 1.770466,0 5.269467,0 5.894027,0.01923 7.974921,0.113487 1.924247,0.08801 2.968598,0.409549 3.664286,0.679645 0.921008,0.357719 1.577633,0.785323 2.267977,1.476077 0.690755,0.690755 1.118364,1.348618 1.476894,2.26962 0.270173,0.694856 0.5921,1.739223 0.679645,3.6634652 0.09456,2.0804825 0.11515,2.7054533 0.11515,7.9724563 0,5.2669975 -0.02079,5.8919635 -0.11515,7.9724515 -0.08801,1.924242 -0.40955,2.968598 -0.679645,3.663465 -0.357719,0.921002 -0.786139,1.576806 -1.476894,2.26715 -0.690754,0.690755 -1.346558,1.118364 -2.267977,1.476072 -0.694861,0.27137 -1.740039,0.5921 -3.664286,0.680092 -2.080483,0.09456 -2.705454,0.11515 -7.974921,0.11515 -5.269878,0 -5.894433,-0.02079 -7.97492,-0.11515 -1.924243,-0.08879 -2.968599,-0.410381 -3.664692,-0.680461 -0.921008,-0.357719 -1.578865,-0.785323 -2.269625,-1.476077 -0.690755,-0.690755 -1.118364,-1.346969 -1.476899,-2.268388 -0.270122,-0.694856 -0.592074,-1.739217 -0.67965,-3.663465 -0.09456,-2.080482 -0.113487,-2.705453 -0.113487,-7.9757366 0,-5.2702937 0.01924,-5.8919686 0.113487,-7.9724615 0.08796,-1.9242429 0.409497,-2.9685929 0.67965,-3.6642809 0.357719,-0.921003 0.78615,-1.578866 1.476899,-2.26962 0.69076,-0.69076 1.348617,-1.118364 2.269625,-1.476899 0.695683,-0.271369 1.740449,-0.592095 3.664692,-0.680461 1.820633,-0.08224 2.526188,-0.106936 6.204454,-0.111043 z m 12.305288,3.276972 a 2.3682996,2.3682996 0 1 0 2.368301,2.367479 c 0,-1.307501 -1.0608,-2.3683 -2.368301,-2.3683 z m -10.534822,2.76713 c -5.597164,0 -10.135171,4.5380076 -10.135171,10.1351714 0,5.5971636 4.538007,10.1331126 10.135171,10.1331126 5.597164,0 10.133944,-4.535949 10.133944,-10.1331126 0,-5.5971638 -4.537191,-10.1351714 -10.134354,-10.1351714 z m 0,3.5565604 c 3.633038,0 6.578616,2.9451577 6.578616,6.578611 0,3.6330321 -2.945578,6.5786106 -6.578616,6.5786106 -3.633448,0 -6.578611,-2.9455785 -6.578611,-6.5786106 0,-3.6334533 2.945163,-6.578611 6.578611,-6.578611 z"
     fill="#ffffff"
     id="path9"
     style="fill:#000000;stroke-width:0.411163" /><rect
     style="fill:#e5e5e5;fill-opacity:1;stroke-width:0.561324"
     id="rect12"
     width="0.45477596"
     height="42.521553"
     x="71.927795"
     y="-20.905933" /><rect
     style="fill:#e5e5e5;fill-opacity:1;stroke-width:0;stroke-dasharray:none"
     id="rect12-6"
     width="0.45477596"
     height="380.11884"
     x="37.925938"
     y="-377.18472"
     transform="rotate(90)" /><text
     xml:space="preserve"
     style="font-style:normal;font-variant:normal;font-weight:normal;font-stretch:normal;font-size:18.6968px;font-family:System-ui;-inkscape-font-specification:System-ui;text-align:start;writing-mode:lr-tb;direction:ltr;text-anchor:start;fill:#000000;stroke:#000000;stroke-width:0.4;stroke-dasharray:none"
     x="8.9440823"
     y="73.467018"
     id="text2"><tspan
       id="tspan2"
       x="8.9440823"
       y="73.467018"
       style="font-style:normal;font-variant:normal;font-weight:normal;font-stretch:normal;font-family:System-ui;-inkscape-font-specification:System-ui;stroke:#000000;stroke-width:0.4;stroke-dasharray:none">Verified badage for @ktsuve</tspan><tspan
       x="8.9440823"
       y="96.83802"
       id="tspan3"
       style="font-style:normal;font-variant:normal;font-weight:normal;font-stretch:normal;font-family:System-ui;-inkscape-font-specification:System-ui;stroke:#000000;stroke-width:0.4;stroke-dasharray:none" /></text><g
     style="fill:#228be6"
     id="g3"
     transform="matrix(0.34629237,0,0,0.34629237,246.65138,59.929671)"><path
       d="m 45.103,24.995 3.195,-6.245 -5.892,-3.807 -0.354,-7.006 -7.006,-0.35 -3.81,-5.89 -6.242,3.2 -6.245,-3.196 -3.806,5.893 -7.005,0.354 -0.352,7.007 -5.89,3.81 3.2,6.242 -3.194,6.243 5.892,3.807 0.354,7.006 7.006,0.35 3.81,5.891 6.242,-3.2 6.245,3.195 3.806,-5.893 7.005,-0.354 0.352,-7.006 5.89,-3.81 z m -22.863,7.567 -6.82,-6.819 2.121,-2.121 4.732,4.731 10.202,-9.888 2.088,2.154 z"
       id="path1-1" /></g></svg>
