<?xml version="1.0" encoding="UTF-8" standalone="no"?>
<svg
   height="82"
   width="300"
   viewBox="-19.5036 -32.49725 42.257802 19.985809"
   version="1.1"
   id="svg9"
   xml:space="preserve"
   xmlns="http://www.w3.org/2000/svg"
   xmlns:svg="http://www.w3.org/2000/svg"><defs
     id="defs7" /><style
     type="text/css"
     id="style1"><![CDATA[
	.st0{fill:#262626;}
]]></style><path
     class="st0"
     d="m -16.768574,-26.084395 c -0.534175,0.22346 -1.123683,0.857662 -1.308838,1.651476 -0.236229,1.006634 0.744868,1.432272 0.823611,1.29181 0.09364,-0.16387 -0.176639,-0.219201 -0.231973,-0.742737 -0.07023,-0.672508 0.244741,-1.425886 0.638458,-1.755756 0.07237,-0.06172 0.07023,0.02342 0.07023,0.183025 0,0.283049 -0.0149,2.821979 -0.0149,3.351899 0,0.7172 -0.02979,0.942787 -0.083,1.168376 -0.0532,0.227717 -0.14046,0.380945 -0.07448,0.438406 0.07237,0.06598 0.387329,-0.09152 0.568227,-0.344766 0.217075,-0.304331 0.29369,-0.668253 0.306458,-1.064095 0.01703,-0.476715 0.0149,-1.234352 0.01703,-1.666373 0,-0.395844 0.0065,-1.555708 -0.0065,-2.253752 -0.0043,-0.172384 -0.478843,-0.351151 -0.704432,-0.257513 z m 19.0068667,3.356157 c -0.017027,0.372434 -0.1000235,0.663995 -0.2021786,0.870428 -0.1979212,0.397973 -0.6107904,0.521408 -0.7853015,-0.05108 -0.095763,-0.310716 -0.1000235,-0.832123 -0.031931,-1.268401 0.07023,-0.442664 0.2638954,-0.778918 0.5873803,-0.746995 0.319229,0.02979 0.466074,0.438407 0.4320233,1.196044 z m -5.3566539,2.313342 c -0.0043,0.619303 -0.1021465,1.161992 -0.310717,1.319477 -0.2958188,0.223461 -0.6959172,0.05534 -0.612919,-0.395843 0.072353,-0.4001 0.4192538,-0.808713 0.923636,-1.306709 0,0 0.00201,0.11279 0,0.383075 z m -0.080874,-2.315471 c -0.017027,0.340512 -0.1064067,0.681022 -0.2021786,0.872557 -0.1979211,0.397973 -0.612919,0.521408 -0.7853029,-0.05108 -0.1170503,-0.391586 -0.08938,-0.898096 -0.031931,-1.217323 0.074476,-0.415 0.2575107,-0.798073 0.5873803,-0.798073 0.3192275,0 0.4767146,0.351151 0.4320232,1.193914 z m -3.1029019,-0.0065 c -0.019164,0.359665 -0.08938,0.659741 -0.20218,0.878943 -0.2043059,0.395844 -0.6065329,0.521407 -0.7853029,-0.05108 -0.1276939,-0.41074 -0.085134,-0.972583 -0.031931,-1.276914 0.078751,-0.451176 0.2766648,-0.768278 0.5873818,-0.738481 0.3171001,0.03192 0.4724586,0.438406 0.4320232,1.187529 z m 14.2205629,0.419256 c -0.078736,0 -0.11279,0.08087 -0.1425833,0.214946 -0.1021465,0.4682 -0.2085633,0.574613 -0.3468936,0.574613 -0.1532297,0 -0.2915628,-0.231975 -0.3277408,-0.695921 -0.027656,-0.366047 -0.02341,-1.036428 0.012766,-1.706807 0.00631,-0.138337 -0.029793,-0.27241 -0.4000998,-0.406484 -0.1596144,-0.05746 -0.3894576,-0.142584 -0.5043807,0.134077 -0.3234849,0.783174 -0.4511759,1.404606 -0.4809706,1.655734 -0.00201,0.01277 -0.017027,0.0149 -0.021273,-0.0149 -0.019164,-0.202179 -0.061724,-0.570355 -0.065984,-1.340758 0,-0.151103 -0.031916,-0.278795 -0.2000499,-0.383076 -0.1085441,-0.06809 -0.4341519,-0.189409 -0.5533281,-0.0447 -0.1021608,0.11705 -0.2213327,0.432022 -0.3426404,0.806584 -0.1000235,0.304331 -0.1702551,0.508637 -0.1702551,0.508637 0,0 0.00201,-0.819354 0.00201,-1.130069 0,-0.117051 -0.080874,-0.155357 -0.1042838,-0.163869 -0.1085441,-0.03192 -0.3234849,-0.08512 -0.4149979,-0.08512 -0.11279,0 -0.1404603,0.06386 -0.1404603,0.155358 0,0.01277 -0.017027,1.078992 -0.017027,1.825988 0,0.03192 0,0.06809 0,0.106407 -0.06171,0.342639 -0.2638955,0.808713 -0.4852281,0.808713 -0.2192026,0 -0.323485,-0.195794 -0.323485,-1.083249 0,-0.519279 0.014904,-0.744868 0.02341,-1.119429 0.0043,-0.217073 0.012767,-0.383074 0.012767,-0.419252 -0.00201,-0.114927 -0.2021786,-0.174511 -0.2936901,-0.195794 -0.09364,-0.02129 -0.1745112,-0.02979 -0.2383567,-0.02555 -0.08938,0.0043 -0.1532297,0.06385 -0.1532297,0.144717 0,0.04256 0,0.125557 0,0.125557 -0.1149274,-0.180896 -0.3022036,-0.308587 -0.4256386,-0.344766 -0.3319983,-0.100024 -0.6810206,-0.01061 -0.94278866,0.355408 -0.2085618,0.291562 -0.3341255,0.621431 -0.3830744,1.096017 -0.036177,0.346895 -0.02341,0.698046 0.040437,0.995995 -0.076613,0.336253 -0.22133266,0.472456 -0.37881696,0.472456 -0.22984456,0 -0.39584376,-0.374561 -0.37669106,-1.019402 0.012767,-0.425639 0.097901,-0.723586 0.1915379,-1.155607 0.040437,-0.183026 0.00631,-0.280923 -0.072353,-0.372433 -0.07449,-0.08512 -0.2319719,-0.127694 -0.45968776,-0.07448 -0.1617446,0.0383 -0.3937165,0.07874 -0.60440706,0.110667 0,0 0.012767,-0.05108 0.02341,-0.14046 0.055326,-0.470328 -0.4575606,-0.432022 -0.6193023,-0.283048 -0.097901,0.08938 -0.1638719,0.195794 -0.1894092,0.3852 -0.040437,0.302205 0.2064331,0.444791 0.2064331,0.444791 -0.080874,0.370307 -0.278792,0.853406 -0.4830993,1.202428 -0.1085441,0.187281 -0.1936652,0.325616 -0.3022021,0.474588 0,-0.05534 0,-0.110667 0,-0.163869 -0.00201,-0.77892 0.00846,-1.38971 0.012766,-1.611041 0.0043,-0.217074 0.012766,-0.378819 0.012766,-0.414997 -0.00201,-0.08512 -0.05108,-0.11705 -0.1532298,-0.157487 -0.091517,-0.03618 -0.1979211,-0.0596 -0.3085868,-0.06811 -0.1404603,-0.01703 -0.2255886,0.05746 -0.2234599,0.144715 0,0.01703 0,0.119173 0,0.119173 -0.1149274,-0.180896 -0.3022021,-0.308588 -0.4256386,-0.344768 -0.3319968,-0.0979 -0.6810205,-0.01061 -0.9427871,0.355409 -0.2085633,0.291561 -0.3447692,0.700174 -0.3830744,1.091759 -0.036177,0.366052 -0.029793,0.674639 0.019164,0.936406 -0.053203,0.261768 -0.2043073,0.536305 -0.3766897,0.536305 -0.219204,0 -0.3447677,-0.195795 -0.3447677,-1.083249 0,-0.51928 0.014904,-0.744869 0.02341,-1.11943 0.0043,-0.217075 0.012767,-0.383073 0.012767,-0.419254 -0.00215,-0.114927 -0.2021772,-0.174509 -0.2936916,-0.195792 -0.0979,-0.02342 -0.1808944,-0.02979 -0.2447399,-0.02555 -0.085134,0.0065 -0.1447178,0.08298 -0.1447178,0.138337 v 0.131954 c -0.1149273,-0.180897 -0.3022035,-0.308587 -0.4256385,-0.344766 -0.3319969,-0.0979 -0.6788932,-0.01062 -0.9427873,0.355407 -0.172384,0.238358 -0.310716,0.502253 -0.383076,1.087505 -0.02127,0.168128 -0.02979,0.327741 -0.02766,0.474587 -0.06809,0.419253 -0.372432,0.904479 -0.6193006,0.904479 -0.144718,0 -0.283052,-0.280919 -0.283052,-0.881072 0,-0.800196 0.04896,-1.93665 0.05746,-2.047316 0,0 0.312845,-0.0043 0.374563,-0.0065 0.1553566,-0.0022 0.2979456,0.002 0.5065084,-0.0085 0.104284,-0.0043 0.204306,-0.380946 0.0979,-0.425637 -0.04896,-0.02127 -0.3937168,-0.04044 -0.5320478,-0.04256 -0.1149276,-0.002 -0.4362796,-0.02553 -0.4362796,-0.02553 0,0 0.02979,-0.755509 0.03618,-0.834252 0.0065,-0.06598 -0.08087,-0.100023 -0.129817,-0.12131 -0.1191732,-0.05108 -0.2277162,-0.07449 -0.3554072,-0.102147 -0.1766408,-0.03618 -0.2553848,0 -0.2702808,0.146844 -0.02341,0.225589 -0.03618,0.885328 -0.03618,0.885328 -0.129817,0 -0.5703558,-0.02553 -0.6980468,-0.02553 -0.119174,0 -0.248998,0.515021 -0.083,0.521406 0.191537,0.0065 0.5235348,0.01277 0.7427368,0.02129 0,0 -0.01061,1.157734 -0.01061,1.513141 0,0.0383 0,0.0745 0,0.110667 -0.12131,0.632073 -0.5490728,0.972584 -0.5490728,0.972584 0.09152,-0.417128 -0.09576,-0.7321 -0.434152,-0.998122 -0.123434,-0.0979 -0.370304,-0.283049 -0.644841,-0.487356 0,0 0.159614,-0.157486 0.300075,-0.472458 0.100023,-0.223461 0.104284,-0.478843 -0.140461,-0.536304 -0.404355,-0.09364 -0.74061,0.204306 -0.838506,0.521406 -0.07661,0.246872 -0.03618,0.429895 0.114927,0.619304 0.01061,0.01277 0.02341,0.02766 0.03618,0.04256 -0.09152,0.176638 -0.217077,0.412869 -0.323485,0.598021 -0.295819,0.510767 -0.519279,0.915122 -0.687407,0.915122 -0.134077,0 -0.134077,-0.41074 -0.134077,-0.795942 0,-0.332 0.0234,-0.829996 0.0447,-1.345017 0.0065,-0.170255 -0.07875,-0.268153 -0.221332,-0.355408 -0.08724,-0.0532 -0.272407,-0.159615 -0.378817,-0.159615 -0.161743,0 -0.623561,0.02129 -1.061967,1.289684 -0.05534,0.159614 -0.163871,0.451176 -0.163871,0.451176 l 0.0085,-1.523783 c 0,-0.03618 -0.01915,-0.07023 -0.06171,-0.09364 -0.07448,-0.04044 -0.27028,-0.121311 -0.446922,-0.121311 -0.083,0 -0.125556,0.0383 -0.125556,0.11705 l -0.01916,2.383572 c 0,0.180896 0.0043,0.391588 0.0234,0.485228 0.01703,0.0915 0.04682,0.168127 0.08298,0.212818 0.03618,0.0447 0.07661,0.07874 0.144718,0.09364 0.06385,0.01277 0.41074,0.05746 0.429893,-0.07448 0.02129,-0.159614 0.02341,-0.331998 0.204306,-0.974712 0.283051,-1.000249 0.655483,-1.487605 0.827867,-1.659987 0.02979,-0.02981 0.06598,-0.03193 0.06386,0.01703 -0.0086,0.219205 -0.03405,0.766149 -0.05108,1.232224 -0.04683,1.244991 0.178764,1.476963 0.50225,1.476963 0.24687,0 0.595892,-0.246872 0.970455,-0.868303 0.2341,-0.387329 0.459689,-0.768277 0.623561,-1.042812 0.11279,0.104284 0.240484,0.217075 0.368176,0.338382 0.295819,0.280922 0.393714,0.546944 0.32774,0.800201 -0.04896,0.193663 -0.234101,0.391586 -0.563971,0.197921 -0.09576,-0.05746 -0.138337,-0.100024 -0.234099,-0.163872 -0.05108,-0.03405 -0.131954,-0.04468 -0.17877,-0.0085 -0.123433,0.09364 -0.193665,0.212819 -0.234099,0.357537 -0.0383,0.142583 0.104284,0.219202 0.251125,0.285175 0.127694,0.05746 0.402228,0.108544 0.576739,0.114927 0.681022,0.02341 1.227968,-0.329869 1.6089128,-1.236478 0.06809,0.783174 0.3575368,1.227965 0.861918,1.227965 0.3362536,0 0.6746346,-0.43415 0.8214794,-0.861916 0.04256,0.174512 0.104284,0.325613 0.185154,0.453304 0.3873318,0.615047 1.1407113,0.4831 1.517401,-0.04044 0.1170503,-0.161744 0.1340771,-0.219205 0.1340771,-0.219205 0.055341,0.491613 0.4511759,0.663995 0.6788932,0.663995 0.255382,0 0.5171501,-0.119173 0.7001732,-0.534175 0.021287,0.0447 0.044683,0.08726 0.07023,0.127694 0.3873318,0.615046 1.1407112,0.48097 1.5174024,-0.04044 0.017027,-0.02341 0.034054,-0.04682 0.04682,-0.06599 l 0.010615,0.323485 c 0,0 -0.2149479,0.197922 -0.3468949,0.319229 -0.5831257,0.534176 -1.0257882,0.94066 -1.0577117,1.41099 -0.04256,0.602278 0.4469199,0.825737 0.8150962,0.855532 0.3915878,0.03192 0.7278421,-0.185153 0.9342752,-0.489483 0.1808973,-0.266024 0.3000763,-0.840635 0.2915615,-1.408864 -0.0043,-0.227716 -0.00846,-0.51502 -0.012766,-0.825737 0.2043044,-0.238356 0.4341505,-0.538431 0.6469683,-0.889582 0.2319748,-0.383075 0.4788434,-0.898097 0.6065343,-1.298196 0,0 0.2149466,0.002 0.44479266,-0.01277 0.07449,-0.0043 0.095763,0.01062 0.080874,0.06386 -0.017027,0.06598 -0.28943406,1.121557 -0.040437,1.825988 0.1702537,0.480972 0.55758546,0.63633 0.78530142,0.63633 0.2681513,0 0.52353476,-0.20218 0.66186636,-0.502254 0.017027,0.03405 0.034054,0.06598 0.053203,0.09578 0.38732896,0.615045 1.13645386,0.480969 1.51739816,-0.04044 0.085134,-0.11705 0.1340771,-0.219202 0.1340771,-0.219202 0.080874,0.510764 0.478842,0.668251 0.7044307,0.668251 0.2362293,0 0.461818,-0.0979 0.6427138,-0.527792 0.00846,0.18941 0.01915,0.344767 0.038299,0.393716 0.010615,0.02979 0.078736,0.06811 0.1276939,0.08512 0.2170752,0.08087 0.4362778,0.04256 0.5192788,0.02553 0.057464,-0.01062 0.1000235,-0.05746 0.1064067,-0.174511 0.014904,-0.308589 0.00631,-0.825737 0.1000235,-1.208812 0.1574872,-0.644842 0.3022036,-0.895968 0.3724338,-1.019403 0.038314,-0.07023 0.082997,-0.08087 0.085134,-0.0085 0.0043,0.148974 0.010615,0.585253 0.07023,1.170506 0.044683,0.432022 0.1042838,0.685276 0.1489723,0.766147 0.1298169,0.229845 0.2915629,0.240485 0.4235113,0.240485 0.082997,0 0.2575092,-0.02342 0.2426126,-0.170253 -0.00846,-0.07237 0.00631,-0.512896 0.1596144,-1.149223 0.1000235,-0.414998 0.2681514,-0.789559 0.3298696,-0.925764 0.02341,-0.05108 0.031931,-0.01062 0.031931,-0.002 -0.012767,0.285178 -0.040437,1.219455 0.07449,1.73022 0.1574858,0.691661 0.6150449,0.770404 0.7725292,0.770404 0.3383844,0 0.6171779,-0.257511 0.7108182,-0.938532 0.02767,-0.157485 -0.00631,-0.285176 -0.1064068,-0.285176 z m 0,0 z"
     id="path1"
     style="stroke-width:0.212818" /><path
     d="m -27.881975,-26.24624 c -1.031022,0 -1.160415,0.0046 -1.565357,0.02294 -0.404153,0.0185 -0.68002,0.0825 -0.921404,0.176373 -0.249688,0.09697 -0.461492,0.226672 -0.672506,0.437765 -0.211172,0.211014 -0.34088,0.422817 -0.43816,0.672426 -0.09412,0.241463 -0.158182,0.517411 -0.176372,0.921404 -0.01803,0.404944 -0.02278,0.534415 -0.02278,1.565437 0,1.031023 0.0046,1.160019 0.02294,1.564963 0.01859,0.404152 0.08257,0.680019 0.176372,0.921402 0.09704,0.249689 0.226752,0.461493 0.437844,0.672508 0.210934,0.211171 0.422739,0.341196 0.672269,0.438159 0.241542,0.09388 0.517488,0.157865 0.921561,0.176372 0.404944,0.01843 0.534257,0.02294 1.565201,0.02294 1.031101,0 1.160098,-0.0044 1.565042,-0.02294 0.40415,-0.0185 0.680334,-0.08249 0.921877,-0.176372 0.249608,-0.09697 0.461096,-0.226988 0.672031,-0.438159 0.211172,-0.211015 0.340879,-0.422819 0.438161,-0.672429 0.09333,-0.241462 0.15739,-0.517408 0.176372,-0.921402 0.01819,-0.404944 0.02294,-0.534019 0.02294,-1.565042 0,-1.031022 -0.0047,-1.160414 -0.02294,-1.565358 -0.01898,-0.404152 -0.08304,-0.68002 -0.176372,-0.921403 -0.09728,-0.249689 -0.226989,-0.461492 -0.438161,-0.672506 -0.211171,-0.211172 -0.422342,-0.34088 -0.672268,-0.437765 -0.242017,-0.09388 -0.518042,-0.157864 -0.922194,-0.176373 -0.404944,-0.01842 -0.533861,-0.02294 -1.5652,-0.02294 z m -0.340563,0.684132 c 0.101078,-1.58e-4 0.213861,0 0.340563,0 1.013623,0 1.133762,0.0037 1.534038,0.02183 0.370144,0.01693 0.571033,0.07878 0.704854,0.130735 0.177163,0.06881 0.30347,0.151063 0.436263,0.283935 0.132872,0.132872 0.215126,0.259417 0.284092,0.436579 0.05197,0.133661 0.113895,0.334553 0.130735,0.704696 0.01819,0.400197 0.02215,0.520415 0.02215,1.533564 0,1.013148 -0.004,1.133365 -0.02215,1.533563 -0.01693,0.370143 -0.07878,0.571033 -0.130735,0.704696 -0.06881,0.177162 -0.15122,0.303311 -0.284092,0.436104 -0.132872,0.132872 -0.259021,0.215126 -0.436263,0.283934 -0.133662,0.0522 -0.33471,0.113895 -0.704854,0.130821 -0.400197,0.01819 -0.520415,0.02215 -1.534038,0.02215 -1.013702,0 -1.13384,-0.004 -1.534038,-0.02215 -0.370143,-0.01708 -0.571033,-0.07894 -0.704932,-0.130892 -0.177163,-0.06881 -0.303707,-0.151063 -0.43658,-0.283935 -0.132872,-0.132872 -0.215126,-0.2591 -0.284093,-0.436342 -0.05196,-0.133661 -0.11389,-0.334552 -0.130736,-0.704696 -0.01819,-0.400197 -0.02183,-0.520415 -0.02183,-1.534195 0,-1.013782 0.0037,-1.133366 0.02183,-1.533565 0.01692,-0.370143 0.07877,-0.571032 0.130736,-0.704853 0.06881,-0.177162 0.151222,-0.303707 0.284093,-0.436579 0.132873,-0.132873 0.259417,-0.215126 0.43658,-0.284093 0.13382,-0.0522 0.334789,-0.113894 0.704932,-0.130892 0.350213,-0.01582 0.485932,-0.02057 1.193475,-0.02136 z m 2.367018,0.630351 a 0.45556086,0.45556086 0 1 0 0.455561,0.455403 c 0,-0.251508 -0.204053,-0.455561 -0.455561,-0.455561 z m -2.026455,0.532279 c -1.076658,0 -1.949579,0.872921 -1.949579,1.949579 0,1.076658 0.872921,1.949183 1.949579,1.949183 1.076658,0 1.949343,-0.872525 1.949343,-1.949183 0,-1.076658 -0.872764,-1.949579 -1.949422,-1.949579 z m 0,0.684132 c 0.698843,0 1.265448,0.566524 1.265448,1.265447 0,0.698842 -0.566605,1.265447 -1.265448,1.265447 -0.698922,0 -1.265447,-0.566605 -1.265447,-1.265447 0,-0.698923 0.566525,-1.265447 1.265447,-1.265447 z"
     fill="#ffffff"
     id="path9"
     style="fill:#000000;stroke-width:0.0790904" /><rect
     style="fill:#e5e5e5;fill-opacity:1;stroke-width:0.107975"
     id="rect12"
     width="0.087479696"
     height="8.1793518"
     x="-20.533836"
     y="-26.905933" /><rect
     style="fill:#e5e5e5;fill-opacity:1;stroke-width:0;stroke-dasharray:none"
     id="rect12-6"
     width="0.087479696"
     height="73.118813"
     x="-12.511441"
     y="-38.184708"
     transform="rotate(90)" /></svg>
