<?xml version="1.0" encoding="UTF-8" standalone="no"?>
<svg
   height="129"
   width="1090"
   viewBox="-19.5036 -32.49725 153.53668 31.44109"
   version="1.1"
   id="svg9"
   xml:space="preserve"
   xmlns="http://www.w3.org/2000/svg"
   xmlns:svg="http://www.w3.org/2000/svg"><defs
     id="defs7"><radialGradient
       id="radial0"
       gradientUnits="userSpaceOnUse"
       cx="158.429"
       cy="578.08801"
       fx="158.429"
       fy="578.08801"
       r="65"
       gradientTransform="matrix(0,-0.304946,0.283701,0,-146.19289,74.852677)"><stop
         offset="0"
         style="stop-color:rgb(100%,86.666667%,33.333333%);stop-opacity:1;"
         id="stop1" /><stop
         offset="0.1"
         style="stop-color:rgb(100%,86.666667%,33.333333%);stop-opacity:1;"
         id="stop2" /><stop
         offset="0.5"
         style="stop-color:rgb(100%,32.941176%,24.313725%);stop-opacity:1;"
         id="stop3" /><stop
         offset="1"
         style="stop-color:rgb(78.431373%,21.568627%,67.058824%);stop-opacity:1;"
         id="stop4" /></radialGradient><radialGradient
       id="radial1"
       gradientUnits="userSpaceOnUse"
       cx="147.694"
       cy="473.45499"
       fx="147.694"
       fy="473.45499"
       r="65"
       gradientTransform="matrix(0.0267623,0.133661,-0.551093,0.110345,266.11121,-65.543354)"><stop
         offset="0"
         style="stop-color:rgb(21.568627%,44.313725%,78.431373%);stop-opacity:1;"
         id="stop5" /><stop
         offset="0.128"
         style="stop-color:rgb(21.568627%,44.313725%,78.431373%);stop-opacity:1;"
         id="stop6" /><stop
         offset="1"
         style="stop-color:rgb(40%,0%,100%);stop-opacity:0;"
         id="stop7" /></radialGradient></defs><style
     type="text/css"
     id="style1"><![CDATA[
	.st0{fill:#262626;}
]]></style><g
     id="g2"
     transform="matrix(0.87001848,0,0,0.83379269,-0.54920021,-5.7107842)"><path
       class="st0"
       d="m -39.816575,-28.921335 c -1.96501,0.822017 -4.133565,3.15498 -4.81467,6.07509 -0.868987,3.702986 2.740058,5.268732 3.029722,4.752036 0.344465,-0.602811 -0.649787,-0.806354 -0.853332,-2.732224 -0.258341,-2.473879 0.900298,-5.245245 2.348617,-6.458696 0.266208,-0.227033 0.258373,0.08613 0.258373,0.673268 0,1.041223 -0.05481,10.380891 -0.05481,12.330247 0,2.638277 -0.109591,3.468121 -0.305287,4.2979659 -0.195722,0.837676 -0.516693,1.4013402 -0.273979,1.6127182 0.266212,0.242703 1.424826,-0.336647 2.09027,-1.2682522 0.798529,-1.1195099 1.080365,-2.4582219 1.127333,-3.9143629 0.06265,-1.753636 0.05481,-4.540664 0.06265,-6.129893 0,-1.456146 0.0239,-5.7228 -0.02357,-8.290618 -0.01559,-0.63413 -1.761465,-1.291737 -2.591308,-0.947279 z m 69.918359,12.345902 c -0.06263,1.370027 -0.367951,2.442564 -0.743731,3.201948 -0.728069,1.463972 -2.246841,1.918039 -2.888797,-0.18792 -0.352295,-1.142994 -0.367952,-3.061038 -0.117443,-4.665922 0.258344,-1.628375 0.97076,-2.865316 2.160728,-2.747882 1.174308,0.109592 1.71449,1.612714 1.58923,4.399745 z m -19.704908,8.5098243 c -0.01559,2.278158 -0.375777,4.2744868 -1.1429936,4.8538078 -1.088194,0.8220187 -2.5599916,0.2035591 -2.2546766,-1.4561393 0.2661776,-1.4718019 1.5422626,-2.9749184 3.3976702,-4.8068399 0,0 0.0076,0.4149234 0,1.4091714 z m -0.297485,-8.5176543 c -0.06265,1.2526 -0.3914386,2.505197 -0.7437296,3.209778 -0.728068,1.463972 -2.2546746,1.918039 -2.8888026,-0.18792 -0.430578,-1.440486 -0.328794,-3.303721 -0.117425,-4.478033 0.273978,-1.526602 0.9472766,-2.935771 2.1607306,-2.935771 1.174307,0 1.7536366,1.291737 1.5892326,4.391914 z m -11.4142862,-0.02357 c -0.07048,1.323055 -0.328794,2.426909 -0.743731,3.233266 -0.751558,1.456143 -2.231184,1.918036 -2.888802,-0.187921 -0.469722,-1.510943 -0.313157,-3.577728 -0.117444,-4.697234 0.289683,-1.659691 1.017734,-2.826175 2.16073,-2.716567 1.16648,0.117425 1.737981,1.612714 1.589234,4.368427 z m 52.3115442,1.542263 c -0.28966,0 -0.41492,0.297482 -0.52452,0.790698 -0.37578,1.722319 -0.76722,2.113761 -1.27608,2.113761 -0.56367,0 -1.07254,-0.853336 -1.20562,-2.559999 -0.10176,-1.346539 -0.0861,-3.812593 0.047,-6.278635 0.0234,-0.508869 -0.10959,-1.002082 -1.471802,-1.495288 -0.587154,-0.211394 -1.432656,-0.524524 -1.855408,0.493206 -1.189967,2.880972 -1.659689,5.166961 -1.76929,6.090757 -0.0076,0.04698 -0.06263,0.05481 -0.07828,-0.05481 -0.07048,-0.743732 -0.227029,-2.098098 -0.242703,-4.932095 0,-0.55584 -0.117425,-1.025567 -0.735901,-1.409172 -0.399265,-0.250503 -1.597062,-0.696758 -2.035467,-0.164405 -0.375778,0.430576 -0.814189,1.589228 -1.260426,2.967087 -0.367949,1.119503 -0.626298,1.871063 -0.626298,1.871063 0,0 0.0076,-3.014063 0.0076,-4.157056 0,-0.430576 -0.297501,-0.571494 -0.383609,-0.602806 -0.399262,-0.117425 -1.189966,-0.313122 -1.526602,-0.313122 -0.41492,0 -0.516694,0.234899 -0.516694,0.571493 0,0.04698 -0.06263,3.969165 -0.06263,6.717051 0,0.117425 0,0.250505 0,0.391435 -0.227024,1.260424 -0.970763,2.974919 -1.784949,2.974919 -0.806358,0 -1.189967,-0.720244 -1.189967,-3.984825 0,-1.910211 0.0548,-2.740056 0.08611,-4.11791 0.01578,-0.798525 0.04696,-1.409173 0.04696,-1.542259 -0.0076,-0.42275 -0.743729,-0.641952 -1.080363,-0.720242 -0.344464,-0.07829 -0.641956,-0.109592 -0.876816,-0.09396 -0.328809,0.01559 -0.563668,0.234867 -0.563668,0.532353 0,0.156573 0,0.461892 0,0.461892 -0.422753,-0.66544 -1.111681,-1.135162 -1.565747,-1.26825 -1.221282,-0.367952 -2.505191,-0.03917 -3.468126,1.307398 -0.767213,1.07253 -1.229107,2.285988 -1.409171,4.031789 -0.133073,1.276085 -0.08611,2.567824 0.14874,3.66385 -0.281824,1.236937 -0.814189,1.737973 -1.393512,1.737973 -0.845504,0 -1.456145,-1.377854 -1.385686,-3.749959 0.04696,-1.565748 0.360121,-2.661768 0.704585,-4.250997 0.148757,-0.673272 0.02344,-1.033396 -0.266183,-1.370029 -0.274018,-0.313121 -0.85333,-0.469723 -1.691002,-0.273977 -0.594986,0.140906 -1.448317,0.289649 -2.22336,0.407092 0,0 0.04696,-0.18792 0.08611,-0.516695 0.203548,-1.730148 -1.683178,-1.589231 -2.27816,-1.041221 -0.360124,0.328794 -0.602813,0.720244 -0.696757,1.416995 -0.148739,1.111687 0.759385,1.636203 0.759385,1.636203 -0.297485,1.362199 -1.02556,3.139321 -1.777122,4.423232 -0.399265,0.688929 -0.712414,1.197798 -1.111679,1.745809 0,-0.203558 0,-0.40709 0,-0.60281 -0.0076,-2.865316 0.03121,-5.112161 0.04694,-5.926347 0.01559,-0.798526 0.04694,-1.393513 0.04694,-1.526601 -0.0076,-0.313122 -0.187885,-0.43058 -0.563667,-0.579327 -0.336637,-0.133073 -0.728069,-0.219227 -1.135164,-0.250538 -0.516698,-0.06265 -0.829847,0.211394 -0.822017,0.532353 0,0.06265 0,0.438413 0,0.438413 -0.4227516,-0.665441 -1.1116776,-1.13517 -1.5657456,-1.268258 -1.221282,-0.360115 -2.5051926,-0.03918 -3.4681246,1.307398 -0.767218,1.072537 -1.268258,2.57565 -1.409171,4.016134 -0.133074,1.346547 -0.109592,2.481712 0.07048,3.444644 -0.195722,0.962932 -0.751562,1.972842 -1.385686,1.972842 -0.8063621,0 -1.2682561,-0.720247 -1.2682561,-3.984821 0,-1.910215 0.05481,-2.740061 0.08613,-4.117914 0.01559,-0.798532 0.04695,-1.409171 0.04695,-1.542261 -0.0076,-0.422748 -0.74372906,-0.641953 -1.08036702,-0.72024 -0.36011896,-0.08613 -0.66543992,-0.109592 -0.90029992,-0.09396 -0.31315796,0.02357 -0.53235196,0.305286 -0.53235196,0.508869 v 0.485381 c -0.422752,-0.665446 -1.111683,-1.135164 -1.56575,-1.268252 -1.22128,-0.360128 -2.497363,-0.03918 -3.468125,1.307396 -0.634128,0.876818 -1.142994,1.847579 -1.409173,4.00048 -0.07826,0.618471 -0.109592,1.205623 -0.101758,1.745805 -0.2505036,1.542257 -1.3700252,3.327208 -2.2781538,3.327208 -0.532356,0 -1.041229,-1.033389 -1.041229,-3.241097 0,-2.943595 0.18009,-7.124135 0.211395,-7.531231 0,0 1.1508258,-0.01559 1.3778568,-0.02357 0.5714966,-0.008 1.0960214,0.0076 1.863238,-0.03121 0.383608,-0.01559 0.751557,-1.401345 0.360121,-1.565745 -0.18009,-0.07828 -1.4483184,-0.14874 -1.9571822,-0.156573 -0.4227518,-0.0076 -1.6048886,-0.09393 -1.6048886,-0.09393 0,0 0.109591,-2.779201 0.133073,-3.068864 0.02357,-0.242735 -0.297519,-0.367945 -0.47755,-0.446231 -0.438413,-0.187887 -0.837674,-0.274045 -1.307398,-0.37578 -0.649787,-0.133073 -0.939449,0 -0.994248,0.540177 -0.08609,0.829848 -0.133074,3.256751 -0.133074,3.256751 -0.477553,0 -2.0981,-0.09392 -2.567824,-0.09392 -0.438403,0 -0.915958,1.894548 -0.305288,1.918035 0.704583,0.02357 1.925868,0.04698 2.732222,0.0783 0,0 -0.03917,4.258821 -0.03917,5.566217 0,0.140906 0,0.274045 0,0.407096 -0.446238,2.325133 -2.019812,3.57773 -2.019812,3.57773 0.336647,-1.534435 -0.352295,-2.693088 -1.59706,-3.671674 -0.45407,-0.360119 -1.362197,-1.041224 -2.372105,-1.79278 0,0 0.587154,-0.579325 1.103851,-1.737974 0.367949,-0.822019 0.383606,-1.761464 -0.516697,-1.972842 -1.487455,-0.344466 -2.724393,0.751558 -3.084517,1.918037 -0.281813,0.908136 -0.133074,1.581405 0.422751,2.278162 0.03917,0.04698 0.08609,0.101758 0.133074,0.156572 -0.336651,0.64978 -0.798536,1.518772 -1.189968,2.19987 -1.088194,1.878897 -1.910209,3.366352 -2.52868,3.366352 -0.493212,0 -0.493212,-1.510942 -0.493212,-2.927937 0,-1.22129 0.08609,-3.053214 0.164424,-4.947759 0.02357,-0.6263 -0.289684,-0.986423 -0.814184,-1.307398 -0.320958,-0.195722 -1.002076,-0.587158 -1.393511,-0.587158 -0.594988,0 -2.293823,0.0783 -3.906539,4.744211 -0.203559,0.587152 -0.602813,1.659689 -0.602813,1.659689 l 0.03122,-5.605364 c 0,-0.133073 -0.07046,-0.258375 -0.226999,-0.344466 -0.273979,-0.148739 -0.994248,-0.44624 -1.644037,-0.44624 -0.305289,0 -0.461892,0.140906 -0.461892,0.430585 l -0.07048,8.768172 c 0,0.66544 0.01559,1.440485 0.08609,1.784951 0.06265,0.336614 0.172257,0.618469 0.305288,0.782868 0.133073,0.164423 0.281813,0.289616 0.532355,0.344464 0.234866,0.04698 1.510946,0.211395 1.581399,-0.273945 0.0783,-0.587157 0.08613,-1.221285 0.751555,-3.585563 1.041226,-3.679501 2.411251,-5.472274 3.045379,-6.1064 0.109592,-0.109628 0.242703,-0.117425 0.2349,0.06265 -0.03153,0.806367 -0.125276,2.818346 -0.187919,4.53284 -0.172258,4.579805 0.657603,5.43313 1.847574,5.43313 0.908131,0 2.192041,-0.908132 3.569899,-3.19412 0.861159,-1.424824 1.691004,-2.826171 2.293821,-3.836074 0.414915,0.383608 0.884642,0.79853 1.354367,1.244767 1.088195,1.033395 1.44831,2.011983 1.205621,2.943606 -0.18009,0.71241 -0.861159,1.440485 -2.074615,0.728068 -0.352289,-0.211394 -0.508864,-0.367949 -0.861155,-0.602817 -0.18792,-0.125277 -0.485383,-0.164388 -0.657619,-0.03121 -0.454059,0.344462 -0.712412,0.782876 -0.861155,1.315229 -0.140907,0.52452 0.383606,0.806355 0.923786,1.049044 0.469726,0.211393 1.479632,0.399271 2.121587,0.422752 2.505192,0.08613 4.517178,-1.213452 5.918516,-4.548487 0.250505,2.880969 1.315229,4.517173 3.170633,4.517173 1.2369406,0 2.4817072,-1.59706 3.0218868,-3.170631 0.156573,0.641955 0.383608,1.197796 0.681104,1.667518 1.42483,2.2624979 4.1962,1.777122 5.581883,-0.148739 0.43058096,-0.594988 0.49321196,-0.806365 0.49321196,-0.806365 0.203557,1.808438 1.65968698,2.442565 2.49736294,2.442565 0.9394461,0 1.9023781,-0.438403 2.5756481,-1.965012 0.0783,0.164424 0.164388,0.320959 0.258341,0.469729 1.42483,2.2625009 4.1962016,1.769289 5.5818872,-0.14874 0.06265,-0.08609 0.125276,-0.172257 0.172221,-0.242735 l 0.03915,1.189967 c 0,0 -0.7907026,0.728067 -1.2760846,1.174309 -2.1450736,1.9650087 -3.7734466,3.4602975 -3.8908776,5.1904454 -0.156572,2.2155289 1.644032,3.0375441 2.9984016,3.147145 1.440486,0.117425 2.6774276,-0.6811016 3.4368116,-1.8006049 0.665445,-0.9785914 1.103854,-3.0923489 1.072534,-5.1826214 -0.01559,-0.8376722 -0.03121,-1.8945461 -0.04694,-3.0375431 0.751558,-0.876816 1.597063,-1.980669 2.379934,-3.272403 0.853334,-1.409174 1.761465,-3.30373 2.231188,-4.775525 0,0 0.790699,0.0076 1.636205,-0.04698 0.274017,-0.01559 0.352291,0.03918 0.2975,0.2349 -0.06263,0.242702 -1.064707,4.125738 -0.148739,6.717047 0.626296,1.769295 2.051126,2.340791 2.888799,2.340791 0.986419,0 1.925868,-0.74373 2.434734,-1.847584 0.06263,0.125277 0.125276,0.242705 0.195713,0.352299 1.424827,2.2624969 4.180542,1.769289 5.581881,-0.14874 0.313144,-0.430581 0.493211,-0.806354 0.493211,-0.806354 0.297501,1.87889 1.761462,2.458215 2.591307,2.458215 0.86899,0 1.698835,-0.360119 2.364276,-1.941525 0.03117,0.696761 0.07046,1.268256 0.140906,1.448319 0.03917,0.109592 0.289662,0.250538 0.469722,0.313121 0.79853,0.297488 1.604888,0.156573 1.910209,0.09393 0.211387,-0.03918 0.367951,-0.211394 0.391437,-0.641952 0.0548,-1.135168 0.02345,-3.037542 0.367947,-4.446715 0.579329,-2.372106 1.111681,-3.295897 1.370029,-3.749964 0.140907,-0.25834 0.305307,-0.297484 0.313144,-0.03121 0.01578,0.54801 0.03917,2.152902 0.258348,4.305805 0.164387,1.589227 0.383605,2.520845 0.548008,2.818333 0.477553,0.845506 1.072539,0.884646 1.557918,0.884646 0.305307,0 0.947275,-0.08613 0.892473,-0.626292 -0.03119,-0.26621 0.02345,-1.886726 0.587155,-4.227515 0.36795,-1.526604 0.986419,-2.904458 1.213454,-3.405493 0.08611,-0.18792 0.117425,-0.03918 0.117425,-0.0076 -0.04696,1.049051 -0.148758,4.485867 0.274019,6.364758 0.579325,2.544338 2.262499,2.833996 2.841819,2.833996 1.24477,0 2.27034,-0.947274 2.6148,-3.452467 0.1018,-0.579326 -0.0234,-1.049046 -0.39144,-1.049046 z m 0,0 z"
       id="path1"
       style="stroke-width:0.782871" /><g
       id="surface1"
       transform="matrix(1.2835024,0,0,1.2835024,-89.822722,-37.150381)"><path
         style="fill:url(#radial0);fill-rule:nonzero;stroke:none"
         d="M 22.503906,5 C 18.328125,5 17.105469,5.003906 16.867188,5.023438 16.011719,5.09375 15.476562,5.230469 14.898438,5.519531 14.449219,5.742188 14.097656,6 13.746094,6.359375 c -0.632813,0.660156 -1.015625,1.472656 -1.15625,2.433594 -0.06641,0.46875 -0.08984,0.5625 -0.09375,2.953125 0,0.796875 0,1.84375 0,3.25 0,4.171875 0.0078,5.394531 0.02734,5.628906 0.06641,0.835938 0.199218,1.359375 0.476562,1.933594 0.527344,1.097656 1.539062,1.921875 2.730469,2.230468 0.414062,0.105469 0.867187,0.164063 1.453125,0.191407 C 17.429688,24.992188 19.957031,25 22.480469,25 c 2.527343,0 5.054687,-0.0039 5.296875,-0.01563 0.675781,-0.03125 1.070312,-0.08594 1.503906,-0.195313 1.195312,-0.308593 2.195312,-1.125 2.730469,-2.238281 0.273437,-0.558593 0.410156,-1.101562 0.472656,-1.894531 0.01172,-0.171875 0.01953,-2.917969 0.01953,-5.664062 0,-2.742188 -0.0078,-5.484376 -0.01953,-5.65625 C 32.417969,8.53125 32.28125,7.992188 32,7.421875 31.773438,6.953125 31.515625,6.605469 31.144531,6.246094 30.484375,5.617188 29.675781,5.230469 28.710938,5.089844 28.242188,5.023438 28.148438,5.003906 25.757812,5 Z m 0,0"
         id="path7" /><path
         style="fill:url(#radial1);fill-rule:nonzero;stroke:none"
         d="M 22.503906,5 C 18.328125,5 17.105469,5.003906 16.867188,5.023438 16.011719,5.09375 15.476562,5.230469 14.898438,5.519531 14.449219,5.742188 14.097656,6 13.746094,6.359375 c -0.632813,0.660156 -1.015625,1.472656 -1.15625,2.433594 -0.06641,0.46875 -0.08984,0.5625 -0.09375,2.953125 0,0.796875 0,1.84375 0,3.25 0,4.171875 0.0078,5.394531 0.02734,5.628906 0.06641,0.835938 0.199218,1.359375 0.476562,1.933594 0.527344,1.097656 1.539062,1.921875 2.730469,2.230468 0.414062,0.105469 0.867187,0.164063 1.453125,0.191407 C 17.429688,24.992188 19.957031,25 22.480469,25 c 2.527343,0 5.054687,-0.0039 5.296875,-0.01563 0.675781,-0.03125 1.070312,-0.08594 1.503906,-0.195313 1.195312,-0.308593 2.195312,-1.125 2.730469,-2.238281 0.273437,-0.558593 0.410156,-1.101562 0.472656,-1.894531 0.01172,-0.171875 0.01953,-2.917969 0.01953,-5.664062 0,-2.742188 -0.0078,-5.484376 -0.01953,-5.65625 C 32.417969,8.53125 32.28125,7.992188 32,7.421875 31.773438,6.953125 31.515625,6.605469 31.144531,6.246094 30.484375,5.617188 29.675781,5.230469 28.710938,5.089844 28.242188,5.023438 28.148438,5.003906 25.757812,5 Z m 0,0"
         id="path8" /><path
         style="fill:#ffffff;fill-opacity:1;fill-rule:nonzero;stroke:none"
         d="m 22.5,7.617188 c -2.007812,0 -2.257812,0.00781 -3.046875,0.042968 -0.785156,0.035156 -1.324219,0.160156 -1.792969,0.34375 -0.484375,0.1875 -0.898437,0.441406 -1.308594,0.851563 -0.410156,0.410156 -0.660156,0.820312 -0.851562,1.308593 -0.183594,0.46875 -0.308594,1.003907 -0.34375,1.792969 -0.03516,0.785157 -0.04297,1.039063 -0.04297,3.042969 0,2.007812 0.0078,2.257812 0.04297,3.046875 0.03906,0.785156 0.160156,1.320313 0.34375,1.789063 0.1875,0.488281 0.441406,0.898437 0.851562,1.308593 0.410157,0.414063 0.824219,0.664063 1.308594,0.855469 0.46875,0.179688 1.007813,0.304688 1.792969,0.339844 0.789063,0.03906 1.039063,0.04687 3.042969,0.04687 2.007812,0 2.257812,-0.0078 3.046875,-0.04687 0.785156,-0.03516 1.324219,-0.160156 1.792969,-0.339844 0.484374,-0.191406 0.898437,-0.441406 1.308593,-0.855469 0.410157,-0.410156 0.660157,-0.820312 0.851563,-1.308593 0.179687,-0.46875 0.304687,-1.003907 0.34375,-1.789063 0.03516,-0.789063 0.04297,-1.039063 0.04297,-3.046875 0,-2.003906 -0.0078,-2.257812 -0.04297,-3.042969 -0.03906,-0.789062 -0.164063,-1.324219 -0.34375,-1.792969 C 29.304688,9.675781 29.054688,9.265625 28.644531,8.855469 28.230469,8.445312 27.820312,8.191406 27.335938,8.003906 26.863281,7.820312 26.328125,7.695312 25.542969,7.660156 24.753906,7.625 24.503906,7.617188 22.496094,7.617188 Z m -0.664062,1.328124 c 0.195312,0 0.417968,0 0.664062,0 1.96875,0 2.203125,0.00781 2.984375,0.042969 0.71875,0.035157 1.109375,0.152344 1.371094,0.253907 0.34375,0.136718 0.589843,0.296874 0.847656,0.554687 0.257813,0.257813 0.417969,0.503906 0.550781,0.847656 0.101563,0.261719 0.222656,0.652344 0.253906,1.371094 0.03906,0.777344 0.04688,1.011719 0.04688,2.984375 0,1.96875 -0.0078,2.203125 -0.04688,2.984375 -0.03125,0.71875 -0.152343,1.109375 -0.253906,1.367187 -0.132812,0.347657 -0.292968,0.59375 -0.550781,0.851563 -0.257813,0.257813 -0.503906,0.417969 -0.847656,0.550781 -0.261719,0.101563 -0.652344,0.222656 -1.371094,0.253906 -0.78125,0.03516 -1.015625,0.04297 -2.984375,0.04297 -1.972656,0 -2.207031,-0.0078 -2.984375,-0.04297 -0.722656,-0.03125 -1.113281,-0.152343 -1.371094,-0.253906 -0.347656,-0.132812 -0.59375,-0.292968 -0.851562,-0.550781 -0.257813,-0.261719 -0.417969,-0.503906 -0.550781,-0.851563 -0.101563,-0.257812 -0.222657,-0.648437 -0.253907,-1.371093 -0.03516,-0.777344 -0.04297,-1.011719 -0.04297,-2.984375 0,-1.972656 0.0078,-2.203125 0.04297,-2.980469 0.03125,-0.722656 0.152344,-1.113281 0.253907,-1.371094 C 16.875,10.296875 17.035156,10.050781 17.292969,9.792969 17.550781,9.535156 17.796875,9.375 18.144531,9.242188 18.402344,9.140625 18.792969,9.019531 19.515625,8.984375 20.195312,8.957031 20.460938,8.945312 21.835938,8.945312 Z m 4.605468,1.226563 c -0.488281,0 -0.886718,0.398437 -0.886718,0.886719 0,0.488281 0.398437,0.886718 0.886718,0.886718 0.488282,0 0.886719,-0.398437 0.886719,-0.886718 0,-0.488282 -0.398437,-0.886719 -0.886719,-0.886719 z M 22.5,11.207031 c -2.097656,0 -3.792969,1.699219 -3.792969,3.792969 0,2.09375 1.695313,3.792969 3.792969,3.792969 2.09375,0 3.789062,-1.699219 3.789062,-3.792969 0,-2.09375 -1.695312,-3.792969 -3.789062,-3.792969 z m 0,1.332031 c 1.359375,0 2.460938,1.101563 2.460938,2.460938 0,1.359375 -1.101563,2.460938 -2.460938,2.460938 -1.359375,0 -2.464844,-1.101563 -2.464844,-2.460938 0,-1.359375 1.105469,-2.460938 2.464844,-2.460938 z m 0,0"
         id="path9" /></g></g></svg>
