<?xml version="1.0" encoding="UTF-8" standalone="no"?>
<svg
   height="28"
   width="300"
   viewBox="-19.5036 -32.49725 42.257802 6.8244226"
   version="1.1"
   id="svg9"
   xml:space="preserve"
   xmlns="http://www.w3.org/2000/svg"
   xmlns:svg="http://www.w3.org/2000/svg"><defs
     id="defs7" /><style
     type="text/css"
     id="style1"><![CDATA[
	.st0{fill:#262626;}
]]></style><g
     id="g12"
     transform="matrix(0.30883956,0,0,0.30883956,18.03681,-24.105374)"><path
       class="st0"
       d="m -2.8005672,-23.830237 c -1.2057812,0.504411 -2.5364641,1.935978 -2.9544081,3.727836 -0.5332333,2.272249 1.6813721,3.233032 1.8591176,2.915974 0.2113723,-0.369901 -0.3987261,-0.4948 -0.5236277,-1.676564 -0.1585241,-1.518038 0.5524469,-3.218621 1.4411743,-3.963227 0.1633513,-0.139313 0.1585438,0.05286 0.1585438,0.413136 0,0.638921 -0.033634,6.369988 -0.033634,7.566163 0,1.618917 -0.067252,2.128131 -0.1873323,2.637345 -0.1200999,0.514021 -0.3170571,0.8599 -0.1681207,0.989606 0.1633539,0.148929 0.8743099,-0.206575 1.2826444,-0.778232 0.4899978,-0.68696 0.66294,-1.50843 0.6917609,-2.401956 0.038437,-1.076078 0.033635,-2.786271 0.038437,-3.761465 0,-0.893528 0.014665,-3.51166 -0.014466,-5.087341 -0.00956,-0.389118 -1.0808812,-0.792644 -1.5900948,-0.581275 z m 42.9037462,7.575771 c -0.03844,0.840685 -0.225783,1.49882 -0.456374,1.964798 -0.446761,0.898333 -1.378721,1.176961 -1.772641,-0.115312 -0.216177,-0.701371 -0.225785,-1.878333 -0.07206,-2.863133 0.158526,-0.999213 0.595684,-1.758231 1.325878,-1.686172 0.720587,0.06725 1.052057,0.989604 0.975195,2.699799 z m -12.091448,5.221851 c -0.0096,1.3979389 -0.230587,2.6229386 -0.701372,2.978424 -0.667744,0.5044128 -1.570878,0.124909 -1.383528,-0.893525 0.163333,-0.9031365 0.946371,-1.825488 2.0849,-2.949603 0,0 0.0046,0.254608 0,0.864704 z m -0.182545,-5.226656 c -0.03844,0.768629 -0.240197,1.537254 -0.456372,1.969603 -0.446763,0.898333 -1.383528,1.176961 -1.772646,-0.115312 -0.264214,-0.88392 -0.201756,-2.02725 -0.07206,-2.747837 0.16812,-0.936765 0.581274,-1.801468 1.325881,-1.801468 0.720585,0 1.076077,0.792644 0.975194,2.694993 z m -7.004106,-0.01446 c -0.04325,0.811861 -0.201758,1.489216 -0.456374,1.984017 -0.461175,0.893529 -1.369113,1.176958 -1.772645,-0.115313 -0.288233,-0.927153 -0.192161,-2.195388 -0.07207,-2.882346 0.177757,-1.01843 0.624509,-1.734215 1.325881,-1.666958 0.715783,0.07206 1.066471,0.989605 0.975196,2.680583 z m 32.099737,0.946374 c -0.177742,0 -0.254605,0.182543 -0.321859,0.485193 -0.230588,1.056859 -0.470786,1.297059 -0.783036,1.297059 -0.345882,0 -0.658139,-0.52363 -0.7398,-1.570883 -0.06244,-0.826271 -0.05283,-2.339507 0.02884,-3.852735 0.01437,-0.312256 -0.06725,-0.614905 -0.903137,-0.917548 -0.360293,-0.129717 -0.879114,-0.321863 -1.138526,0.302643 -0.730195,1.767841 -1.01843,3.170584 -1.085684,3.737449 -0.0046,0.02882 -0.03844,0.03364 -0.04803,-0.03363 -0.04325,-0.456373 -0.139312,-1.287448 -0.148929,-3.026462 0,-0.341079 -0.07206,-0.629316 -0.451569,-0.864706 -0.244999,-0.153716 -0.979999,-0.42755 -1.249015,-0.100884 -0.230587,0.264213 -0.499608,0.975193 -0.773431,1.820683 -0.225783,0.686957 -0.384313,1.148134 -0.384313,1.148134 0,0 0.0046,-1.849509 0.0046,-2.55088 0,-0.264212 -0.182555,-0.350682 -0.235392,-0.369897 -0.244998,-0.07206 -0.730195,-0.192141 -0.936764,-0.192141 -0.254606,0 -0.317056,0.144142 -0.317056,0.350685 0,0.02882 -0.03844,2.435584 -0.03844,4.121759 0,0.07206 0,0.153717 0,0.240194 -0.139308,0.773429 -0.595685,1.825488 -1.095291,1.825488 -0.494803,0 -0.730196,-0.44196 -0.730196,-2.445193 0,-1.172155 0.03364,-1.68137 0.05284,-2.526857 0.0097,-0.489997 0.02881,-0.864706 0.02881,-0.946371 -0.0046,-0.259411 -0.456372,-0.393918 -0.662939,-0.441959 -0.211373,-0.04804 -0.393921,-0.06724 -0.538038,-0.05766 -0.201766,0.0096 -0.345882,0.14412 -0.345882,0.326666 0,0.09608 0,0.283429 0,0.283429 -0.259412,-0.408331 -0.682156,-0.696564 -0.960782,-0.778232 -0.749412,-0.225785 -1.537252,-0.02404 -2.128134,0.802254 -0.470782,0.658134 -0.754213,1.402743 -0.864704,2.474013 -0.08166,0.783039 -0.05284,1.575684 0.09127,2.248234 -0.172934,0.759017 -0.499608,1.066465 -0.855095,1.066465 -0.518824,0 -0.893529,-0.845487 -0.850294,-2.301073 0.02882,-0.960784 0.220981,-1.633331 0.432351,-2.608523 0.09128,-0.413138 0.01439,-0.63412 -0.163335,-0.840686 -0.168145,-0.19214 -0.523626,-0.288234 -1.037644,-0.168119 -0.3651,0.08646 -0.888726,0.177735 -1.364312,0.249802 0,0 0.02881,-0.115314 0.05284,-0.317059 0.124903,-1.061663 -1.032842,-0.975193 -1.397938,-0.638919 -0.220983,0.201756 -0.369903,0.441961 -0.427549,0.869505 -0.09127,0.682161 0.465979,1.004017 0.465979,1.004017 -0.182546,0.835882 -0.629311,1.92637 -1.09049,2.714212 -0.244998,0.422744 -0.437156,0.735001 -0.682155,1.071273 0,-0.124908 0,-0.249801 0,-0.369898 -0.0046,-1.758235 0.01915,-3.136958 0.02881,-3.636563 0.0096,-0.489997 0.02881,-0.855098 0.02881,-0.936763 -0.0046,-0.192139 -0.115291,-0.264216 -0.345881,-0.35549 -0.206569,-0.08166 -0.446762,-0.134524 -0.696566,-0.153736 -0.317059,-0.03844 -0.509216,0.129715 -0.504411,0.326664 0,0.03844 0,0.269023 0,0.269023 -0.259411,-0.408333 -0.682154,-0.69657 -0.960783,-0.778237 -0.74941,-0.220976 -1.537251,-0.02404 -2.128132,0.802254 -0.470785,0.658136 -0.778237,1.580487 -0.864704,2.464405 -0.08166,0.826277 -0.06725,1.522844 0.04325,2.113724 -0.120101,0.590881 -0.461179,1.210589 -0.850294,1.210589 -0.494804,0 -0.778235,-0.441964 -0.778235,-2.445192 0,-1.172158 0.03364,-1.681373 0.05286,-2.52686 0.0096,-0.49 0.02881,-0.864704 0.02881,-0.946372 -0.0047,-0.25941 -0.456371,-0.393919 -0.662942,-0.441958 -0.220978,-0.05286 -0.408331,-0.06725 -0.552448,-0.05766 -0.192162,0.01446 -0.326665,0.187331 -0.326665,0.312254 v 0.297844 c -0.259412,-0.408335 -0.682157,-0.696567 -0.960785,-0.778234 -0.74941,-0.220984 -1.532448,-0.02404 -2.128132,0.802254 -0.389118,0.538038 -0.701371,1.133723 -0.864706,2.454799 -0.04802,0.37951 -0.06724,0.739802 -0.06244,1.071272 -0.153716,0.94637 -0.840683,2.041661 -1.397935,2.041661 -0.326668,0 -0.638927,-0.634113 -0.638927,-1.988822 0,-1.806266 0.110509,-4.371556 0.129717,-4.62136 0,0 0.706178,-0.0096 0.845491,-0.01446 0.350686,-0.0049 0.672547,0.0046 1.143333,-0.01915 0.235391,-0.0096 0.461175,-0.859902 0.22098,-0.960783 -0.11051,-0.04803 -0.888727,-0.09127 -1.20098,-0.09608 -0.259412,-0.0046 -0.984803,-0.05764 -0.984803,-0.05764 0,0 0.06724,-1.705392 0.08165,-1.883136 0.01446,-0.148948 -0.182566,-0.225781 -0.293038,-0.27382 -0.269021,-0.115292 -0.514019,-0.16816 -0.802253,-0.230588 -0.398728,-0.08166 -0.576472,0 -0.610098,0.331468 -0.05283,0.509216 -0.08165,1.998427 -0.08165,1.998427 -0.293039,0 -1.287449,-0.05763 -1.575685,-0.05763 -0.269016,0 -0.562056,1.162544 -0.187333,1.176958 0.43235,0.01446 1.181764,0.02882 1.676564,0.04805 0,0 -0.02403,2.613325 -0.02403,3.415577 0,0.08646 0,0.168161 0,0.249805 -0.273823,1.426764 -1.239411,2.195391 -1.239411,2.195391 0.206577,-0.941571 -0.216177,-1.652551 -0.979998,-2.253036 -0.278628,-0.220981 -0.83588,-0.638922 -1.4555856,-1.100099 0,0 0.3602938,-0.355488 0.6773516,-1.066465 0.225783,-0.504414 0.235391,-1.080881 -0.3170578,-1.210588 -0.9127421,-0.211374 -1.6717599,0.461175 -1.8927413,1.176957 -0.1729273,0.557257 -0.081658,0.970393 0.2594115,1.39794 0.024039,0.02882 0.052828,0.06244 0.081657,0.09608 -0.2065777,0.398722 -0.4900022,0.931959 -0.7301956,1.349899 -0.667744,1.15294 -1.1721543,2.065682 -1.5516648,2.065682 -0.3026478,0 -0.3026478,-0.927154 -0.3026478,-1.796659 0,-0.749416 0.052828,-1.873532 0.1008952,-3.036075 0.014462,-0.384315 -0.1777578,-0.605295 -0.4996048,-0.802255 -0.1969479,-0.1201 -0.6148999,-0.360295 -0.8550955,-0.360295 -0.3651001,0 -1.4075499,0.04805 -2.3971548,2.911172 -0.1249097,0.360293 -0.3699018,1.01843 -0.3699018,1.01843 l 0.019161,-3.439599 c 0,-0.08166 -0.043237,-0.158546 -0.1392928,-0.211374 -0.1681203,-0.09127 -0.61009656,-0.273824 -1.00882426,-0.273824 -0.18733366,0 -0.28342876,0.08646 -0.28342876,0.264218 l -0.043244,5.380381 c 0,0.408331 0.00956,0.88392 0.05282,1.095292 0.038441,0.206556 0.1057008,0.379509 0.1873325,0.480389 0.081657,0.100895 0.17292696,0.177717 0.32666646,0.211373 0.1441203,0.02882 0.92715636,0.129717 0.97038826,-0.1681 0.048048,-0.360295 0.052851,-0.749413 0.4611738,-2.200196 0.6389235,-2.257839 1.4796063,-3.357932 1.8687248,-3.747048 0.067253,-0.06727 0.1489287,-0.07206 0.1441407,0.03844 -0.019342,0.494808 -0.076873,1.729411 -0.1153117,2.781469 -0.1057022,2.810289 0.4035227,3.333913 1.1337199,3.333913 0.557253,0 1.3450938,-0.557255 2.1905843,-1.959998 0.5284294,-0.874308 1.0376445,-1.734213 1.4075477,-2.353915 0.2546038,0.235391 0.5428397,0.489999 0.8310758,0.763821 0.6677458,0.634119 0.8887208,1.234607 0.7398008,1.806275 -0.110507,0.437153 -0.5284298,0.883919 -1.2730387,0.446761 -0.2161736,-0.129716 -0.312252,-0.225784 -0.5284271,-0.369903 -0.1153125,-0.07687 -0.2978439,-0.100874 -0.4035325,-0.01915 -0.278622,0.211372 -0.4371549,0.480393 -0.5284271,0.80706 -0.086464,0.321858 0.2353909,0.494801 0.5668595,0.64372 0.2882368,0.129719 0.9079413,0.245004 1.3018611,0.259413 1.5372518,0.05285 2.7718608,-0.744607 3.6317588,-2.791072 0.153717,1.767839 0.80706,2.771857 1.945585,2.771857 0.759019,0 1.522841,-0.979999 1.85431,-1.945583 0.09608,0.39392 0.235391,0.734998 0.417943,1.023233 0.874313,1.388327 2.574899,1.090489 3.42519,-0.09127 0.264216,-0.3651 0.302648,-0.494806 0.302648,-0.494806 0.124909,1.109705 1.018428,1.498822 1.532449,1.498822 0.576467,0 1.167349,-0.269016 1.580484,-1.205783 0.04805,0.100895 0.100874,0.196949 0.158525,0.288238 0.874314,1.38833 2.5749,1.085682 3.425195,-0.09127 0.03844,-0.05283 0.07687,-0.105701 0.105679,-0.148949 l 0.02402,0.730196 c 0,0 -0.485196,0.446761 -0.783038,0.720586 -1.316275,1.205782 -2.315487,2.12333 -2.387546,3.1849938 -0.09608,1.3595071 1.008821,1.8639169 1.839898,1.9311709 0.883919,0.072055 1.642939,-0.4179415 2.108917,-1.1048982 0.408334,-0.6004896 0.677354,-1.8975455 0.658134,-3.1801925 -0.0096,-0.514018 -0.01915,-1.162543 -0.0288,-1.863916 0.461174,-0.538038 0.979999,-1.215391 1.460388,-2.008033 0.523629,-0.864706 1.080882,-2.027256 1.369116,-2.930388 0,0 0.485193,0.0046 1.004018,-0.02882 0.168145,-0.0096 0.216176,0.02404 0.182554,0.144141 -0.03844,0.148929 -0.653331,2.531663 -0.09127,4.121756 0.384311,1.085687 1.258624,1.436373 1.772643,1.436373 0.605292,0 1.181762,-0.456373 1.494016,-1.133727 0.03844,0.07687 0.07687,0.148931 0.120095,0.21618 0.874311,1.388328 2.56529,1.085682 3.425188,-0.09127 0.192154,-0.264215 0.302648,-0.4948 0.302648,-0.4948 0.182555,1.152936 1.080879,1.508427 1.590094,1.508427 0.533235,0 1.04245,-0.220979 1.450783,-1.191372 0.01912,0.427551 0.04324,0.778235 0.08646,0.888727 0.02404,0.06724 0.177744,0.153737 0.288234,0.19214 0.489999,0.182545 0.9848,0.09608 1.172154,0.05764 0.129713,-0.02404 0.225784,-0.129717 0.240196,-0.39392 0.03364,-0.696569 0.01439,-1.863915 0.225782,-2.72862 0.355492,-1.455588 0.682157,-2.022449 0.840686,-2.301077 0.08647,-0.158524 0.187344,-0.182544 0.192153,-0.01915 0.0097,0.336274 0.02404,1.321077 0.15853,2.642155 0.100871,0.975192 0.235389,1.546857 0.336273,1.729403 0.293038,0.518825 0.658137,0.542843 0.955979,0.542843 0.187344,0 0.581272,-0.05286 0.547644,-0.384309 -0.01913,-0.163354 0.01439,-1.157746 0.360295,-2.594115 0.225783,-0.936765 0.605292,-1.782251 0.744606,-2.089701 0.05284,-0.115312 0.07206,-0.02404 0.07206,-0.0046 -0.02881,0.643726 -0.09128,2.752647 0.168145,3.905584 0.355489,1.561273 1.388328,1.739015 1.743814,1.739015 0.763824,0 1.393141,-0.581274 1.604511,-2.118525 0.06247,-0.35549 -0.01437,-0.643723 -0.240198,-0.643723 z m 0,0 z"
       id="path1"
       style="stroke-width:0.48039" /><path
       d="m -27.88658,-24.195567 c -2.327302,0 -2.619377,0.01023 -3.533444,0.05178 -0.912284,0.04178 -1.534991,0.186206 -2.079862,0.39812 -0.563615,0.218876 -1.041716,0.511663 -1.518032,0.988158 -0.476673,0.476314 -0.769459,0.954415 -0.989049,1.517851 -0.21245,0.54505 -0.357059,1.167937 -0.398119,2.079863 -0.04071,0.914069 -0.05143,1.20632 -0.05143,3.533623 0,2.327302 0.01034,2.618483 0.05178,3.532553 0.04195,0.912282 0.186385,1.534991 0.39812,2.079861 0.219054,0.5636146 0.511842,1.0417156 0.988336,1.5180323 0.476136,0.4766705 0.954237,0.7701726 1.517496,0.9890492 0.545227,0.2119138 1.168114,0.3563436 2.080218,0.3981194 0.914069,0.041597 1.205964,0.051774 3.533089,0.051774 2.327482,0 2.618662,-0.01018 3.53273,-0.051774 0.912282,-0.041775 1.535705,-0.1862056 2.080932,-0.3981194 0.563437,-0.2188766 1.040824,-0.5123787 1.516961,-0.9890492 0.476672,-0.4763167 0.769458,-0.9544177 0.98905,-1.5178553 0.210664,-0.545047 0.355273,-1.167935 0.39812,-2.079861 0.04106,-0.914068 0.05178,-1.205428 0.05178,-3.53273 0,-2.327303 -0.01068,-2.619376 -0.05178,-3.533445 -0.04284,-0.912283 -0.187456,-1.534991 -0.39812,-2.079861 -0.219592,-0.563616 -0.512378,-1.041717 -0.98905,-1.518031 -0.476673,-0.476673 -0.953345,-0.769461 -1.517496,-0.988158 -0.546298,-0.211914 -1.169364,-0.356344 -2.081647,-0.39812 -0.914068,-0.04159 -1.20507,-0.05178 -3.533087,-0.05178 z m -0.768745,1.544274 c 0.228159,-3.56e-4 0.482743,0 0.768745,0 2.288028,0 2.559213,0.0083 3.462747,0.04928 0.835516,0.0382 1.28898,0.177814 1.59105,0.295108 0.399905,0.15532 0.685015,0.340989 0.984766,0.640917 0.299928,0.299929 0.485599,0.585575 0.641275,0.98548 0.117298,0.301715 0.257083,0.755179 0.295109,1.590693 0.04105,0.903356 0.04999,1.17472 0.04999,3.461678 0,2.286954 -0.009,2.558318 -0.04999,3.461674 -0.0382,0.835515 -0.177815,1.288979 -0.295109,1.590694 -0.15532,0.399904 -0.341347,0.6846568 -0.641275,0.9844078 -0.299929,0.2999281 -0.584683,0.4855986 -0.984766,0.6409179 -0.301713,0.1178346 -0.755534,0.2570817 -1.59105,0.2952879 -0.903356,0.041051 -1.174719,0.04999 -3.462747,0.04999 -2.288205,0 -2.559389,-0.00896 -3.462747,-0.04999 -0.835515,-0.038558 -1.288979,-0.1781725 -1.591227,-0.2954648 -0.399905,-0.1553217 -0.685551,-0.3409909 -0.98548,-0.640919 -0.299928,-0.299929 -0.4856,-0.5848618 -0.641277,-0.9849448 -0.117296,-0.301715 -0.257081,-0.755177 -0.295107,-1.590693 -0.04107,-0.903356 -0.04928,-1.17472 -0.04928,-3.463104 0,-2.288384 0.0083,-2.558319 0.04928,-3.461676 0.0382,-0.835515 0.177814,-1.288978 0.295107,-1.59105 0.155321,-0.399904 0.341349,-0.685551 0.641277,-0.98548 0.299929,-0.299928 0.585575,-0.485597 0.98548,-0.641275 0.30207,-0.117835 0.755712,-0.257082 1.591227,-0.295465 0.790527,-0.03571 1.096883,-0.04643 2.694002,-0.0482 z m 5.343013,1.422877 a 1.0283266,1.0283266 0 1 0 1.028326,1.02797 c 0,-0.567723 -0.460603,-1.028327 -1.028326,-1.028327 z m -4.574268,1.201499 c -2.430315,0 -4.400737,1.970424 -4.400737,4.400738 0,2.430314 1.970422,4.399846 4.400737,4.399846 2.430314,0 4.400203,-1.969532 4.400203,-4.399846 0,-2.430314 -1.970067,-4.400738 -4.400382,-4.400738 z m 0,1.544275 c 1.577482,0 2.856463,1.278803 2.856463,2.856463 0,1.577481 -1.278981,2.856464 -2.856463,2.856464 -1.57766,0 -2.856463,-1.278983 -2.856463,-2.856464 0,-1.57766 1.278803,-2.856463 2.856463,-2.856463 z"
       fill="#ffffff"
       id="path9"
       style="fill:#000000;stroke-width:0.178529" /><rect
       style="fill:#808080;stroke-width:0.243729"
       id="rect12"
       width="0.19746582"
       height="18.463055"
       x="-11.299807"
       y="-25.684679" /></g></svg>
