<?xml version="1.0" encoding="UTF-8" standalone="no"?>
<svg
   version="1.1"
   id="Layer_1"
   x="0px"
   y="0px"
   viewBox="0 0 318 101.417"
   xml:space="preserve"
   width="318"
   height="101.417"
   xmlns="http://www.w3.org/2000/svg"
   xmlns:svg="http://www.w3.org/2000/svg"><defs
     id="defs1" /><style
     type="text/css"
     id="style1"><![CDATA[
	.st0{fill:#262626;}
]]></style><g
     id="g1"
     transform="matrix(1.3096714,0,0,1.3096714,99.057679,24.616696)"><path
       class="st0"
       d="m -9.3181984,-0.17496605 c -2.6360776,1.10274174 -5.5452146,4.23242795 -6.4589156,8.14978675 -1.165756,4.9675883 3.675806,7.0680493 4.06439,6.3748973 0.462102,-0.808677 -0.87169,-1.081737 -1.144749,-3.665303 -0.346577,-3.3187278 1.207763,-7.0365429 3.1506895,-8.6643998 0.3570782,-0.3045668 0.346576,0.1155253 0.346576,0.903198 0,1.3968063 -0.073516,13.9260528 -0.073516,16.5411268 0,3.539275 -0.1470322,4.65252 -0.4095898,5.765763 -0.2625577,1.123747 -0.6931517,1.879913 -0.3675817,2.163475 0.357078,0.325572 1.9114201,-0.451599 2.8041159,-1.701373 1.0712349,-1.501829 1.4493178,-3.297723 1.5123316,-5.251151 0.084018,-2.352516 0.073516,-6.091336 0.084018,-8.223303 0,-1.953429 0.031507,-7.6771833 -0.031507,-11.1219384 -0.021005,-0.85068658 -2.363018,-1.73287989 -3.4762619,-1.27077865 z M 84.477865,16.387165 c -0.08402,1.837903 -0.493608,3.276719 -0.997719,4.295441 -0.976713,1.963931 -3.01416,2.573065 -3.87535,-0.252054 -0.472603,-1.533337 -0.493608,-4.106401 -0.157534,-6.259373 0.346576,-2.184479 1.302286,-3.843842 2.898636,-3.686308 1.575346,0.147032 2.300004,2.163475 2.131967,5.902294 z M 58.04357,27.803168 c -0.02101,3.05617 -0.504111,5.734257 -1.533336,6.511428 -1.45982,1.102741 -3.434254,0.27306 -3.024663,-1.953428 0.357078,-1.974434 2.068953,-3.990876 4.557999,-6.448415 0,0 0.0105,0.556622 0,1.890415 z M 57.644482,16.376663 c -0.08402,1.680368 -0.525114,3.360737 -0.997718,4.305943 -0.976715,1.963931 -3.024663,2.573065 -3.87535,-0.252054 -0.577626,-1.932424 -0.441096,-4.431972 -0.157534,-6.007317 0.367581,-2.047949 1.270778,-3.938364 2.898635,-3.938364 1.575345,0 2.352516,1.73288 2.131967,5.891792 z m -15.312356,-0.03151 c -0.09452,1.774889 -0.441098,3.255715 -0.997719,4.337451 -1.008221,1.953429 -2.993157,2.573065 -3.87535,-0.252054 -0.630138,-2.026945 -0.420092,-4.799553 -0.157535,-6.301382 0.388586,-2.226488 1.3653,-3.791332 2.898636,-3.644299 1.564843,0.157535 2.331511,2.163475 2.131968,5.860284 z m 70.176384,2.068954 c -0.38858,0 -0.55662,0.399088 -0.70365,1.060733 -0.50411,2.310506 -1.02922,2.835621 -1.71187,2.835621 -0.75617,0 -1.43882,-1.14475 -1.61735,-3.434252 -0.13653,-1.806396 -0.11554,-5.114622 0.063,-8.422847 0.0315,-0.68265 -0.14704,-1.3442945 -1.97444,-2.0059398 -0.78767,-0.2835622 -1.92192,-0.7036542 -2.48904,0.6616453 -1.59636,3.8648475 -2.22649,6.9315195 -2.37353,8.1707915 -0.0105,0.06301 -0.0841,0.07352 -0.10501,-0.07352 -0.0946,-0.99772 -0.30457,-2.814618 -0.32558,-6.616451 0,-0.745664 -0.15754,-1.3758018 -0.98722,-1.8904145 -0.535617,-0.3360736 -2.142469,-0.9347049 -2.730598,-0.2205484 -0.504111,0.5776265 -1.09224,2.1319669 -1.690871,3.9803729 -0.493608,1.501829 -0.840185,2.51005 -0.840185,2.51005 0,0 0.0105,-4.043386 0.0105,-5.5767228 0,-0.5776263 -0.399087,-0.7666678 -0.514612,-0.808677 -0.535618,-0.1575345 -1.59635,-0.4200922 -2.047949,-0.4200922 -0.556623,0 -0.693152,0.3150691 -0.693152,0.7666684 0,0.063013 -0.08402,5.3246666 -0.08402,9.0109746 0,0.157535 0,0.336074 0,0.525116 -0.304567,1.690871 -1.302286,3.990875 -2.394525,3.990875 -1.081737,0 -1.59635,-0.966212 -1.59635,-5.345672 0,-2.562562 0.07352,-3.675806 0.115526,-5.524211 0.02101,-1.071235 0.06301,-1.890414 0.06301,-2.068953 -0.01049,-0.567121 -0.997707,-0.8611856 -1.449307,-0.9662086 -0.4621,-0.1050231 -0.861189,-0.1470323 -1.176258,-0.1260276 -0.441096,0.021005 -0.756165,0.315069 -0.756165,0.714156 0,0.2100464 0,0.6196362 0,0.6196362 -0.567125,-0.8926951 -1.491327,-1.5228337 -2.100461,-1.7013729 -1.638359,-0.4936082 -3.360736,-0.052512 -4.65252,1.7538849 -1.029225,1.438815 -1.648861,3.066672 -1.890414,5.408685 -0.178539,1.711876 -0.115526,3.444756 0.199543,4.915078 -0.378082,1.659364 -1.092238,2.331511 -1.869409,2.331511 -1.134248,0 -1.953428,-1.848405 -1.858908,-5.030602 0.06301,-2.100461 0.483106,-3.570784 0.945208,-5.702751 0.199543,-0.903198 0.03151,-1.386304 -0.357078,-1.837903 -0.367581,-0.420092 -1.144751,-0.6301379 -2.268498,-0.367581 -0.798175,0.189042 -1.942926,0.388586 -2.982654,0.54612 0,0 0.06301,-0.252055 0.115525,-0.6931514 0.27306,-2.3210092 -2.257995,-2.1319678 -3.056169,-1.3968066 -0.483107,0.4410968 -0.808678,0.966212 -0.934706,1.900917 -0.199544,1.491327 1.018724,2.194981 1.018724,2.194981 -0.399088,1.827401 -1.375802,4.211424 -2.384023,5.933801 -0.535617,0.924203 -0.955709,1.606853 -1.491327,2.342013 0,-0.27306 0,-0.54612 0,-0.808677 -0.0105,-3.843842 0.04201,-6.858003 0.06301,-7.950243 0.02101,-1.071235 0.06301,-1.86941 0.06301,-2.047949 C 61.047224,9.1300741 60.805673,8.9725395 60.301562,8.7729957 59.849963,8.5944566 59.324848,8.4789312 58.778728,8.436922 58.085576,8.352904 57.665484,8.7204842 57.675986,9.1510786 c 0,0.08402 0,0.5881294 0,0.5881294 -0.567124,-0.8926967 -1.491327,-1.5228343 -2.10046,-1.7013735 -1.638359,-0.4831059 -3.360737,-0.052512 -4.65252,1.7538845 -1.029226,1.438816 -1.701373,3.455258 -1.890415,5.387681 -0.178539,1.806396 -0.147031,3.32923 0.09452,4.621014 -0.262557,1.291782 -1.008221,2.646579 -1.858907,2.646579 -1.081737,0 -1.701373,-0.966211 -1.701373,-5.345671 0,-2.562562 0.07352,-3.675806 0.115525,-5.524212 0.02101,-1.071234 0.06301,-1.890414 0.06301,-2.068953 C 45.734869,8.9410322 44.747655,8.6469681 44.296055,8.541945 43.812949,8.4264198 43.403359,8.3949128 43.08829,8.4159174 42.668198,8.4474247 42.374134,8.8255068 42.374134,9.0985668 V 9.74971 C 41.80701,8.8570141 40.882807,8.2268759 40.273674,8.0483369 c -1.638359,-0.483106 -3.350235,-0.052512 -4.65252,1.7538841 -0.850686,1.176258 -1.533336,2.478544 -1.890414,5.366677 -0.105023,0.829682 -0.147032,1.617355 -0.13653,2.342013 -0.336074,2.068954 -1.837903,4.463479 -3.05617,4.463479 -0.714156,0 -1.396806,-1.386304 -1.396806,-4.347954 0,-3.948865 0.241552,-9.5570946 0.283561,-10.1032143 0,0 1.543839,-0.021005 1.848406,-0.031507 0.766668,-0.010502 1.470322,0.010503 2.499548,-0.042009 0.514612,-0.021005 1.008221,-1.8799122 0.483106,-2.1004605 -0.241553,-0.105023 -1.942926,-0.1995437 -2.625576,-0.2100461 -0.567124,-0.010503 -2.152972,-0.1260276 -2.152972,-0.1260276 0,0 0.147033,-3.7283174 0.178539,-4.11690261 0.03151,-0.3255713 -0.399087,-0.4936082 -0.64064,-0.59863123 -0.588129,-0.25205526 -1.123746,-0.36758062 -1.753884,-0.50411052 -0.871692,-0.17853912 -1.260276,0 -1.333793,0.72465885 C 25.812004,1.6314301 25.74899,4.8871438 25.74899,4.8871438 c -0.640641,0 -2.814617,-0.1260276 -3.444755,-0.1260276 -0.588129,0 -1.228769,2.5415572 -0.40959,2.5730641 0.945207,0.031507 2.583566,0.063014 3.665303,0.105023 0,0 -0.05251,5.7132527 -0.05251,7.4671367 0,0.189042 0,0.367581 0,0.54612 -0.598631,3.119184 -2.709594,4.799553 -2.709594,4.799553 0.451599,-2.058452 -0.472604,-3.612793 -2.14247,-4.92558 -0.609134,-0.483106 -1.827401,-1.396806 -3.182197,-2.405028 0,0 0.787673,-0.77717 1.480824,-2.331511 0.493609,-1.102741 0.514613,-2.363018 -0.693151,-2.6465801 -1.995438,-0.4621013 -3.654802,1.0082215 -4.137908,2.5730641 -0.378083,1.218267 -0.178539,2.121465 0.567124,3.056169 0.05251,0.06301 0.115526,0.13653 0.178539,0.210047 -0.451599,0.871691 -1.071234,2.037447 -1.59635,2.951147 -1.45982,2.520553 -2.562561,4.51599 -3.3922431,4.51599 -0.6616455,0 -0.6616455,-2.026945 -0.6616455,-3.927861 0,-1.638359 0.1155255,-4.095898 0.2205492,-6.637455 C 9.4704178,9.84423 9.0503291,9.361125 8.3466745,8.9305305 7.91608,8.6679726 7.0023797,8.1428576 6.4772646,8.1428576 c -0.7981751,0 -3.0771747,0.105023 -5.240649,6.3643954 -0.27305988,0.787673 -0.8086773,2.226488 -0.8086773,2.226488 L 0.4699474,9.2140922 c 0,-0.178539 -0.0945209,-0.3465753 -0.30456671,-0.4621011 C -0.20219986,8.5524474 -1.1684117,8.1533599 -2.0401028,8.1533599 c -0.4095898,0 -0.6196358,0.1890414 -0.6196358,0.5776266 l -0.094521,11.7625785 c 0,0.892696 0.021005,1.932424 0.1155252,2.394525 0.084018,0.451599 0.2310508,0.829682 0.4095898,1.050231 0.1785392,0.220548 0.3780829,0.388585 0.7141566,0.4621 0.3150691,0.06301 2.02694445,0.283563 2.12146517,-0.367579 0.10502299,-0.787673 0.11552526,-1.63836 1.00822113,-4.810056 1.3968062,-4.936081 3.2347091,-7.341108 4.0853956,-8.191796 0.1470322,-0.147031 0.3255713,-0.157534 0.3150691,0.08402 -0.042009,1.081738 -0.1680369,3.780829 -0.2520553,6.080833 -0.2310506,6.143847 0.8821934,7.288599 2.4785434,7.288599 1.2182677,0 2.9406449,-1.218268 4.7890499,-4.28494 1.155254,-1.911419 2.268498,-3.791332 3.077175,-5.146128 0.556623,0.514613 1.186761,1.071234 1.816899,1.669865 1.45982,1.386305 1.942925,2.699093 1.617354,3.948866 -0.241553,0.955709 -1.155253,1.932424 -2.783111,0.976715 -0.472603,-0.283563 -0.682649,-0.493609 -1.155252,-0.808678 -0.252056,-0.168037 -0.651143,-0.220548 -0.882194,-0.042 -0.609133,0.462102 -0.95571,1.050231 -1.155253,1.764387 -0.189041,0.703655 0.514612,1.081737 1.239271,1.407308 0.630139,0.283563 1.984936,0.535618 2.846125,0.567125 3.360736,0.115525 6.059828,-1.627857 7.93974,-6.101838 0.336074,3.864848 1.764387,6.059828 4.253433,6.059828 1.659363,0 3.32923,-2.142469 4.053889,-4.253432 0.210045,0.861189 0.514612,1.606853 0.9137,2.236991 1.911419,3.035165 5.629234,2.384022 7.488141,-0.199544 0.577627,-0.798175 0.661646,-1.081737 0.661646,-1.081737 0.27306,2.426032 2.226488,3.276718 3.350234,3.276718 1.260276,0 2.55206,-0.588129 3.455257,-2.636078 0.105024,0.220548 0.220549,0.430594 0.346576,0.630138 1.911419,3.035165 5.629235,2.373521 7.488142,-0.199544 0.08402,-0.115525 0.168037,-0.23105 0.231051,-0.325571 l 0.05251,1.596351 c 0,0 -1.060733,0.976713 -1.711876,1.575345 -2.877631,2.636077 -5.06211,4.642017 -5.219644,6.963026 -0.210047,2.972152 2.205483,4.074893 4.022381,4.221925 1.932424,0.157535 3.591788,-0.9137 4.610511,-2.415529 0.892696,-1.312788 1.480825,-4.14841 1.438816,-6.952524 -0.02101,-1.123746 -0.04201,-2.541557 -0.06301,-4.074893 1.008221,-1.176259 2.14247,-2.657083 3.1927,-4.389963 1.144751,-1.890414 2.363018,-4.431972 2.993156,-6.406404 0,0 1.060733,0.0105 2.194981,-0.06301 0.367581,-0.02101 0.472603,0.05251 0.399088,0.315069 -0.08402,0.325572 -1.428314,5.534715 -0.199544,9.010976 0.840184,2.373521 2.751603,3.140188 3.875349,3.140188 1.323291,0 2.583567,-0.997718 3.266216,-2.478542 0.08402,0.168036 0.168038,0.325571 0.262559,0.472603 1.911419,3.035166 5.608228,2.37352 7.488141,-0.199544 0.420092,-0.577627 0.661645,-1.081737 0.661645,-1.081737 0.399088,2.520553 2.363018,3.297723 3.476262,3.297723 1.165756,0 2.279,-0.483106 3.171695,-2.604571 0.042,0.934705 0.09452,1.701373 0.189042,1.942926 0.05251,0.147032 0.388585,0.336073 0.630138,0.420092 1.071235,0.399088 2.152972,0.210046 2.562562,0.126028 0.283562,-0.05251 0.493608,-0.283562 0.525115,-0.86119 0.07352,-1.522833 0.03151,-4.074892 0.493608,-5.965306 0.777171,-3.182199 1.491327,-4.42147 1.837903,-5.030604 0.189041,-0.346576 0.40959,-0.399087 0.420092,-0.042 0.02101,0.735161 0.05251,2.888134 0.346576,5.776266 0.220549,2.131967 0.514613,3.381742 0.735161,3.780829 0.640643,1.134249 1.438813,1.18676 2.089963,1.18676 0.40959,0 1.27077,-0.115524 1.19726,-0.840184 -0.042,-0.357078 0.0315,-2.531055 0.78767,-5.671243 0.49362,-2.047949 1.3233,-3.896354 1.62787,-4.568501 0.11552,-0.252056 0.15752,-0.05251 0.15752,-0.0105 -0.063,1.407309 -0.19954,6.017819 0.36758,8.538372 0.77717,3.413248 3.03517,3.801834 3.81234,3.801834 1.66987,0 3.04567,-1.27078 3.50777,-4.631516 0.13653,-0.777171 -0.0314,-1.407309 -0.52512,-1.407309 z m 0,0 z"
       id="path1"
       style="stroke-width:1.05023" /></g></svg>
