<?xml version="1.0" encoding="UTF-8" standalone="no"?>
<svg
   height="129"
   width="1090"
   viewBox="-19.5036 -32.49725 153.53668 31.44109"
   version="1.1"
   id="svg9"
   xml:space="preserve"
   xmlns="http://www.w3.org/2000/svg"
   xmlns:svg="http://www.w3.org/2000/svg"><defs
     id="defs7"><linearGradient
       id="Grad_Logo1"
       x1="61"
       y1="117"
       x2="259"
       y2="127"
       gradientUnits="userSpaceOnUse"><stop
         style="stop-color:#0064e1"
         offset="0"
         id="stop1" /><stop
         style="stop-color:#0064e1"
         offset="0.4"
         id="stop2" /><stop
         style="stop-color:#0073ee"
         offset="0.83"
         id="stop3" /><stop
         style="stop-color:#0082fb"
         offset="1"
         id="stop4" /></linearGradient><linearGradient
       id="Grad_Logo2"
       x1="45"
       y1="139"
       x2="45"
       y2="66"
       gradientUnits="userSpaceOnUse"><stop
         style="stop-color:#0082fb"
         offset="0"
         id="stop5" /><stop
         style="stop-color:#0064e0"
         offset="1"
         id="stop6" /></linearGradient></defs><style
     type="text/css"
     id="style1"><![CDATA[
	.st0{fill:#262626;}
]]></style><path
     class="st0"
     d="m -68.287707,-30.117311 c -1.96501,0.822017 -4.133565,3.15498 -4.81467,6.07509 -0.868987,3.702986 2.740058,5.268732 3.029722,4.752036 0.344465,-0.602811 -0.649787,-0.806354 -0.853332,-2.732224 -0.258341,-2.473879 0.900298,-5.245245 2.348617,-6.458696 0.266208,-0.227033 0.258373,0.08613 0.258373,0.673268 0,1.041223 -0.05481,10.380891 -0.05481,12.330247 0,2.638277 -0.109591,3.468122 -0.305287,4.297966 -0.195722,0.837676 -0.516693,1.4013398 -0.273979,1.6127178 0.266212,0.242703 1.424826,-0.336647 2.09027,-1.2682518 0.798529,-1.119509 1.080365,-2.458222 1.127333,-3.914363 0.06265,-1.753636 0.05481,-4.540664 0.06265,-6.129893 0,-1.456146 0.0239,-5.7228 -0.02357,-8.290618 -0.01559,-0.63413 -1.761465,-1.291737 -2.591308,-0.947279 z m 69.9183585,12.345902 c -0.06263,1.370027 -0.367951,2.442564 -0.74373099,3.201948 -0.728069,1.463972 -2.24684101,1.918039 -2.88879701,-0.18792 -0.352295,-1.142994 -0.367952,-3.061038 -0.117443,-4.665922 0.258344,-1.628375 0.97076,-2.865316 2.16072801,-2.747882 1.17430799,0.109592 1.71448999,1.612714 1.58922999,4.399745 z m -19.7049055,8.509824 c -0.01559,2.278158 -0.375777,4.2744868 -1.142994,4.8538078 -1.088194,0.8220187 -2.559992,0.2035591 -2.254677,-1.4561393 0.266178,-1.4718019 1.542263,-2.9749184 3.397671,-4.8068395 0,0 0.0076,0.414923 0,1.409171 z m -0.297485,-8.517654 c -0.06265,1.2526 -0.391439,2.505197 -0.74373,3.209778 -0.728068,1.463972 -2.254675,1.918039 -2.888803,-0.18792 -0.430578,-1.440486 -0.328794,-3.303721 -0.117425,-4.478033 0.273978,-1.526602 0.947277,-2.935771 2.160731,-2.935771 1.174307,0 1.753637,1.291737 1.589233,4.391914 z m -11.414287,-0.02357 c -0.07048,1.323055 -0.328794,2.426909 -0.743731,3.233266 -0.751558,1.456143 -2.231184,1.918036 -2.888802,-0.187921 -0.469722,-1.510943 -0.313157,-3.577728 -0.117444,-4.697234 0.289683,-1.659691 1.017734,-2.826175 2.16073,-2.716567 1.16648,0.117425 1.737981,1.612714 1.589234,4.368427 z m 52.311543,1.542263 c -0.28966,0 -0.41492,0.297482 -0.52452,0.790698 -0.37578,1.722319 -0.76722,2.113761 -1.27608,2.113761 -0.56367,0 -1.07254,-0.853336 -1.20562,-2.559999 -0.10176,-1.346539 -0.0861,-3.812593 0.047,-6.278635 0.0234,-0.508869 -0.10959,-1.002082 -1.471802,-1.495288 -0.587154,-0.211394 -1.432656,-0.524524 -1.855408,0.493206 -1.189967,2.880972 -1.659689,5.166961 -1.76929,6.090757 -0.0076,0.04698 -0.06263,0.05481 -0.07828,-0.05481 -0.07048,-0.743732 -0.227029,-2.098098 -0.242703,-4.932095 0,-0.55584 -0.117425,-1.025567 -0.735901,-1.409172 -0.399265,-0.250503 -1.597062,-0.696758 -2.035467,-0.164405 -0.375778,0.430576 -0.814189,1.589228 -1.260426,2.967087 -0.3679495,1.119503 -0.6262985,1.871063 -0.6262985,1.871063 0,0 0.0076,-3.014063 0.0076,-4.157056 0,-0.430576 -0.297501,-0.571494 -0.383609,-0.602806 -0.399262,-0.117425 -1.189966,-0.313122 -1.526602,-0.313122 -0.41492,0 -0.516694,0.234899 -0.516694,0.571493 0,0.04698 -0.06263,3.969165 -0.06263,6.717051 0,0.117425 0,0.250505 0,0.391435 -0.227024,1.260424 -0.970763,2.974919 -1.784949,2.974919 -0.806358,0 -1.189967,-0.720244 -1.189967,-3.984825 0,-1.910211 0.0548,-2.740056 0.08611,-4.11791 0.01578,-0.798525 0.04696,-1.409173 0.04696,-1.542259 -0.0076,-0.42275 -0.743729,-0.641952 -1.080363,-0.720242 -0.344464,-0.07829 -0.641956,-0.109592 -0.876816,-0.09396 -0.328809,0.01559 -0.563668,0.234867 -0.563668,0.532353 0,0.156573 0,0.461892 0,0.461892 -0.422753,-0.66544 -1.11168099,-1.135162 -1.56574699,-1.26825 -1.22128201,-0.367952 -2.50519101,-0.03917 -3.46812601,1.307398 -0.767213,1.07253 -1.229107,2.285988 -1.409171,4.031789 -0.133073,1.276085 -0.08611,2.567824 0.14874,3.66385 -0.281824,1.236937 -0.814189,1.737973 -1.393512,1.737973 -0.845504,0 -1.456145,-1.377854 -1.385686,-3.749959 0.04696,-1.565748 0.360121,-2.661768 0.704585,-4.250997 0.148757,-0.673272 0.02344,-1.033396 -0.266183,-1.370029 -0.274018,-0.313121 -0.85333,-0.469723 -1.691002,-0.273977 -0.594986,0.140906 -1.4483165,0.289649 -2.2233595,0.407092 0,0 0.04696,-0.18792 0.08611,-0.516695 0.203548,-1.730148 -1.683178,-1.589231 -2.27816,-1.041221 -0.360124,0.328794 -0.602813,0.720244 -0.696757,1.416995 -0.148739,1.111687 0.759385,1.636203 0.759385,1.636203 -0.297485,1.362199 -1.02556,3.139321 -1.777122,4.423232 -0.399265,0.688929 -0.712414,1.197798 -1.111679,1.745809 0,-0.203558 0,-0.40709 0,-0.60281 -0.0076,-2.865316 0.03121,-5.112161 0.04694,-5.926347 0.01559,-0.798526 0.04694,-1.393513 0.04694,-1.526601 -0.0076,-0.313122 -0.187885,-0.43058 -0.563667,-0.579327 -0.336636,-0.133073 -0.728068,-0.219227 -1.135163,-0.250538 -0.516697,-0.06265 -0.829846,0.211394 -0.822016,0.532353 0,0.06265 0,0.438413 0,0.438413 -0.422752,-0.665441 -1.111678,-1.13517 -1.565746,-1.268258 -1.221282,-0.360115 -2.505193,-0.03918 -3.468125,1.307398 -0.767218,1.072537 -1.268258,2.57565 -1.409171,4.016134 -0.133074,1.346547 -0.109592,2.481712 0.07048,3.444644 -0.195722,0.962932 -0.751562,1.972842 -1.385686,1.972842 -0.806362,0 -1.268256,-0.720247 -1.268256,-3.984821 0,-1.910215 0.05481,-2.740061 0.08613,-4.117914 0.01559,-0.798532 0.04695,-1.409171 0.04695,-1.542261 -0.0076,-0.422748 -0.743729,-0.641953 -1.080367,-0.72024 -0.360119,-0.08613 -0.66544,-0.109592 -0.9003,-0.09396 -0.313158,0.02357 -0.532352,0.305286 -0.532352,0.508869 v 0.485381 c -0.422752,-0.665446 -1.111683,-1.135164 -1.56575,-1.268252 -1.22128,-0.360128 -2.497363,-0.03918 -3.468125,1.307396 -0.634128,0.876818 -1.142994,1.847579 -1.409173,4.00048 -0.07826,0.618471 -0.109592,1.205623 -0.101758,1.745805 -0.250504,1.542257 -1.370026,3.327208 -2.278155,3.327208 -0.532356,0 -1.041229,-1.033389 -1.041229,-3.241097 0,-2.943595 0.18009,-7.124135 0.211395,-7.531231 0,0 1.150826,-0.01559 1.377857,-0.02357 0.571497,-0.008 1.096022,0.0076 1.863239,-0.03121 0.383608,-0.01559 0.751557,-1.401345 0.360121,-1.565745 -0.18009,-0.07828 -1.448319,-0.14874 -1.957183,-0.156573 -0.422752,-0.0076 -1.604889,-0.09393 -1.604889,-0.09393 0,0 0.109591,-2.779201 0.133073,-3.068864 0.02357,-0.242735 -0.297519,-0.367945 -0.47755,-0.446231 -0.438413,-0.187887 -0.837674,-0.274045 -1.307398,-0.37578 -0.649787,-0.133073 -0.939449,0 -0.994248,0.540177 -0.08609,0.829848 -0.133074,3.256751 -0.133074,3.256751 -0.477553,0 -2.0981,-0.09392 -2.567824,-0.09392 -0.438403,0 -0.915958,1.894548 -0.305288,1.918035 0.704583,0.02357 1.925868,0.04698 2.732222,0.0783 0,0 -0.03917,4.258821 -0.03917,5.566217 0,0.140906 0,0.274045 0,0.407096 -0.446238,2.325133 -2.019812,3.57773 -2.019812,3.57773 0.336647,-1.534435 -0.352295,-2.693088 -1.59706,-3.671674 -0.45407,-0.360119 -1.362197,-1.041224 -2.372105,-1.79278 0,0 0.587154,-0.579325 1.103851,-1.737974 0.367949,-0.822019 0.383606,-1.761464 -0.516697,-1.972842 -1.487455,-0.344466 -2.724393,0.751558 -3.084517,1.918037 -0.281813,0.908136 -0.133074,1.581405 0.422751,2.278162 0.03917,0.04698 0.08609,0.101758 0.133074,0.156572 -0.336651,0.64978 -0.798536,1.518772 -1.189968,2.19987 -1.088194,1.878897 -1.910209,3.366352 -2.52868,3.366352 -0.493212,0 -0.493212,-1.510942 -0.493212,-2.927937 0,-1.22129 0.08609,-3.053214 0.164424,-4.947759 0.02357,-0.6263 -0.289684,-0.986423 -0.814184,-1.307398 -0.320958,-0.195722 -1.002076,-0.587158 -1.393511,-0.587158 -0.594988,0 -2.293823,0.0783 -3.906539,4.744211 -0.203559,0.587152 -0.602813,1.659689 -0.602813,1.659689 l 0.03122,-5.605364 c 0,-0.133073 -0.07046,-0.258375 -0.226999,-0.344466 -0.273979,-0.148739 -0.994248,-0.44624 -1.644037,-0.44624 -0.305289,0 -0.461892,0.140906 -0.461892,0.430585 l -0.07048,8.768172 c 0,0.66544 0.01559,1.440485 0.08609,1.784951 0.06265,0.336614 0.172257,0.618469 0.305288,0.782868 0.133073,0.164424 0.281813,0.289617 0.532355,0.344465 0.234866,0.04698 1.510946,0.211394 1.581399,-0.273945 0.0783,-0.587158 0.08613,-1.221286 0.751555,-3.585564 1.041226,-3.679501 2.411251,-5.472274 3.045379,-6.1064 0.109592,-0.109628 0.242703,-0.117425 0.2349,0.06265 -0.03153,0.806367 -0.125276,2.818346 -0.187919,4.53284 -0.172258,4.579805 0.657603,5.433131 1.847574,5.433131 0.908131,0 2.192041,-0.908133 3.569899,-3.194121 0.861159,-1.424824 1.691004,-2.826171 2.293821,-3.836074 0.414915,0.383608 0.884642,0.79853 1.354367,1.244767 1.088195,1.033395 1.44831,2.011983 1.205621,2.943606 -0.18009,0.71241 -0.861159,1.440485 -2.074615,0.728068 -0.352289,-0.211394 -0.508864,-0.367949 -0.861155,-0.602817 -0.18792,-0.125277 -0.485383,-0.164388 -0.657619,-0.03121 -0.454059,0.344462 -0.712412,0.782876 -0.861155,1.315229 -0.140907,0.52452 0.383606,0.806355 0.923786,1.049044 0.469726,0.211394 1.479632,0.399272 2.121587,0.422753 2.505192,0.08613 4.517178,-1.213453 5.918516,-4.548488 0.250505,2.880969 1.315229,4.517174 3.170633,4.517174 1.236941,0 2.481708,-1.597061 3.021888,-3.170632 0.156573,0.641955 0.383608,1.197796 0.681104,1.667518 1.42483,2.262498 4.1962,1.777122 5.581883,-0.148739 0.430581,-0.594988 0.493212,-0.806365 0.493212,-0.806365 0.203557,1.808438 1.659687,2.442566 2.497363,2.442566 0.939446,0 1.902378,-0.438404 2.575648,-1.965013 0.0783,0.164424 0.164388,0.320959 0.258341,0.469729 1.42483,2.262501 4.196202,1.769289 5.581888,-0.14874 0.06265,-0.08609 0.125276,-0.172257 0.172221,-0.242735 l 0.03915,1.189967 c 0,0 -0.790703,0.728068 -1.276085,1.174309 -2.145074,1.9650084 -3.773447,3.4602972 -3.890878,5.1904451 -0.156572,2.2155289 1.644032,3.037544 2.998402,3.1471449 1.440486,0.117425 2.677427,-0.6811015 3.436811,-1.8006048 0.665444,-0.9785914 1.103853,-3.0923489 1.072533,-5.1826214 -0.01559,-0.8376718 -0.03121,-1.8945448 -0.04694,-3.0375428 0.751558,-0.876816 1.597063,-1.980669 2.379934,-3.272403 0.853334,-1.409174 1.761465,-3.30373 2.231188,-4.775525 0,0 0.790699,0.0076 1.6362045,-0.04698 0.274017,-0.01559 0.352291,0.03918 0.2975,0.2349 -0.06263,0.242702 -1.0647065,4.125738 -0.148739,6.717047 0.626296,1.769295 2.051126,2.340792 2.888799,2.340792 0.986419,0 1.925868,-0.743731 2.434734,-1.847585 0.06263,0.125277 0.125276,0.242705 0.195713,0.352299 1.424827,2.262497 4.18054201,1.769289 5.581881,-0.14874 0.313144,-0.430581 0.493211,-0.806354 0.493211,-0.806354 0.297501,1.87889 1.761462,2.458216 2.591307,2.458216 0.86899,0 1.698835,-0.360119 2.364276,-1.941526 0.03117,0.696761 0.07046,1.268256 0.140906,1.448319 0.03917,0.109592 0.289662,0.250539 0.469722,0.313122 0.79853,0.297487 1.604888,0.156573 1.910209,0.09393 0.211387,-0.03918 0.367951,-0.211394 0.391437,-0.641953 0.0548,-1.135168 0.02345,-3.037542 0.3679475,-4.446715 0.579329,-2.372106 1.111681,-3.295897 1.370029,-3.749964 0.140907,-0.25834 0.305307,-0.297484 0.313144,-0.03121 0.01578,0.54801 0.03917,2.152902 0.258348,4.305805 0.164387,1.589227 0.383605,2.520845 0.548008,2.818333 0.477553,0.845506 1.072539,0.884646 1.557918,0.884646 0.305307,0 0.947275,-0.08613 0.892473,-0.626292 -0.03119,-0.26621 0.02345,-1.886726 0.587155,-4.227515 0.36795,-1.526604 0.986419,-2.904458 1.213454,-3.405493 0.08611,-0.18792 0.117425,-0.03918 0.117425,-0.0076 -0.04696,1.049051 -0.148758,4.485867 0.274019,6.364758 0.579325,2.544339 2.262499,2.833997 2.841819,2.833997 1.24477,0 2.27034,-0.947275 2.6148,-3.452468 0.1018,-0.579326 -0.0234,-1.049046 -0.39144,-1.049046 z m 0,0 z"
     id="path1"
     style="stroke-width:0.782871" /><g
     id="g1"
     transform="matrix(0.08909546,0,0,0.08909546,94.312574,-29.534548)"><path
       id="Logo0"
       style="fill:#0081fb"
       d="m 31.06,125.96 c 0,10.98 2.41,19.41 5.56,24.51 4.13,6.68 10.29,9.51 16.57,9.51 8.1,0 15.51,-2.01 29.79,-21.76 11.44,-15.83 24.92,-38.05 33.99,-51.98 l 15.36,-23.6 C 143,46.25 155.35,28.03 169.51,15.68 181.07,5.6 193.54,0 206.09,0 c 21.07,0 41.14,12.21 56.5,35.11 16.81,25.08 24.97,56.67 24.97,89.27 0,19.38 -3.82,33.62 -10.32,44.87 -6.28,10.88 -18.52,21.75 -39.11,21.75 v -31.02 c 17.63,0 22.03,-16.2 22.03,-34.74 0,-26.42 -6.16,-55.74 -19.73,-76.69 -9.63,-14.86 -22.11,-23.94 -35.84,-23.94 -14.85,0 -26.8,11.2 -40.23,31.17 -7.14,10.61 -14.47,23.54 -22.7,38.13 l -9.06,16.05 c -18.2,32.27 -22.81,39.62 -31.91,51.75 C 84.74,182.95 71.12,191 53.19,191 31.92,191 18.47,181.79 10.14,167.91 3.34,156.6 0,141.76 0,124.85 Z" /><path
       id="Logo1"
       style="fill:url(#Grad_Logo1)"
       d="M 24.49,37.3 C 38.73,15.35 59.28,0 82.85,0 c 13.65,0 27.22,4.04 41.39,15.61 15.5,12.65 32.02,33.48 52.63,67.81 l 7.39,12.32 c 17.84,29.72 27.99,45.01 33.93,52.22 7.64,9.26 12.99,12.02 19.94,12.02 17.63,0 22.03,-16.2 22.03,-34.74 l 27.4,-0.86 c 0,19.38 -3.82,33.62 -10.32,44.87 -6.28,10.88 -18.52,21.75 -39.11,21.75 -12.8,0 -24.14,-2.78 -36.68,-14.61 -9.64,-9.08 -20.91,-25.21 -29.58,-39.71 L 146.08,93.6 C 133.14,71.98 121.27,55.86 114.4,48.56 107.01,40.71 97.51,31.23 82.35,31.23 c -12.27,0 -22.69,8.61 -31.41,21.78 z" /><path
       id="Logo2"
       style="fill:url(#Grad_Logo2)"
       d="m 82.35,31.23 c -12.27,0 -22.69,8.61 -31.41,21.78 -12.33,18.61 -19.88,46.33 -19.88,72.95 0,10.98 2.41,19.41 5.56,24.51 L 10.14,167.91 C 3.34,156.6 0,141.76 0,124.85 0,94.1 8.44,62.05 24.49,37.3 38.73,15.35 59.28,0 82.85,0 Z" /><path
       id="Text"
       style="fill:#192830"
       d="m 347.94,6.04 h 35.93 l 61.09,110.52 61.1,-110.52 h 35.15 v 181.6 H 511.9 V 48.46 l -53.58,96.38 h -27.5 L 377.25,48.46 v 139.18 h -29.31 z m 285.11,67.71 c -21.02,0 -33.68,15.82 -36.71,35.41 h 71.34 C 666.21,88.98 654.57,73.75 633.05,73.75 Z m -65.77,46.57 c 0,-41.22 26.64,-71.22 66.28,-71.22 38.99,0 62.27,29.62 62.27,73.42 v 8.05 h -99.49 c 3.53,21.31 17.67,35.67 40.47,35.67 18.19,0 29.56,-5.55 40.34,-15.7 l 15.57,19.07 c -14.67,13.49 -33.33,21.27 -56.95,21.27 -42.91,0 -68.49,-31.29 -68.49,-70.56 z M 731.37,76.35 h -26.98 v -24 h 26.98 V 12.66 h 28.28 v 39.69 h 40.99 v 24 h -40.99 v 60.83 c 0,20.77 6.64,28.15 22.96,28.15 7.45,0 11.72,-0.64 18.03,-1.69 v 23.74 c -7.86,2.22 -15.36,3.24 -23.48,3.24 -30.53,0 -45.79,-16.68 -45.79,-50.07 z m 188.35,23.34 c -5.68,-14.34 -18.35,-24.9 -36.97,-24.9 -24.2,0 -39.69,17.17 -39.69,45.14 0,27.27 14.26,45.27 38.53,45.27 19.08,0 32.7,-11.1 38.13,-24.91 z M 948,187.64 H 920.24 V 168.7 c -7.76,11.15 -21.88,22.18 -44.75,22.18 -36.78,0 -61.36,-30.79 -61.36,-70.95 0,-40.54 25.17,-70.83 62.92,-70.83 18.66,0 33.3,7.46 43.19,20.63 V 52.35 H 948 Z" /></g></svg>
