<?xml version="1.0" encoding="UTF-8" standalone="no"?>
<svg
   height="76"
   width="1010"
   viewBox="-19.5036 -32.49725 142.26793 18.523433"
   version="1.1"
   id="svg9"
   sodipodi:docname="Instagram-Logo.wine.svg"
   xml:space="preserve"
   inkscape:export-filename="Instagramheader.svg"
   inkscape:export-xdpi="96"
   inkscape:export-ydpi="96"
   xmlns:inkscape="http://www.inkscape.org/namespaces/inkscape"
   xmlns:sodipodi="http://sodipodi.sourceforge.net/DTD/sodipodi-0.dtd"
   xmlns:xlink="http://www.w3.org/1999/xlink"
   xmlns="http://www.w3.org/2000/svg"
   xmlns:svg="http://www.w3.org/2000/svg"><sodipodi:namedview
     id="namedview9"
     pagecolor="#ffffff"
     bordercolor="#999999"
     borderopacity="1"
     inkscape:showpageshadow="2"
     inkscape:pageopacity="0"
     inkscape:pagecheckerboard="0"
     inkscape:deskcolor="#d1d1d1"
     showgrid="false"
     showguides="true"><sodipodi:guide
       position="23.38265,-0.97491754"
       orientation="0,-1"
       id="guide10"
       inkscape:locked="false" /><sodipodi:guide
       position="9.5784351,7.3118819"
       orientation="1,0"
       id="guide11"
       inkscape:locked="false" /><inkscape:page
       x="0"
       y="0"
       width="142.26793"
       height="18.523434"
       id="page2"
       margin="0"
       bleed="0" /></sodipodi:namedview><defs
     id="defs7"><linearGradient
       id="b"><stop
         stop-color="#3771c8"
         offset="0"
         id="stop1" /><stop
         offset=".128"
         stop-color="#3771c8"
         id="stop2" /><stop
         stop-opacity="0"
         stop-color="#60f"
         offset="1"
         id="stop3" /></linearGradient><linearGradient
       id="a"><stop
         stop-color="#fd5"
         offset="0"
         id="stop4" /><stop
         stop-color="#fd5"
         offset=".1"
         id="stop5" /><stop
         stop-color="#ff543e"
         offset=".5"
         id="stop6" /><stop
         stop-color="#c837ab"
         offset="1"
         id="stop7" /></linearGradient><radialGradient
       fy="578.08801"
       fx="158.429"
       gradientTransform="matrix(0,-1.98198,1.8439,0,-1031.399,454.004)"
       gradientUnits="userSpaceOnUse"
       xlink:href="#a"
       r="65"
       cy="578.08801"
       cx="158.429"
       id="c-5" /><radialGradient
       fy="473.45499"
       fx="147.694"
       gradientTransform="matrix(0.17394,0.86872,-3.5818,0.71718,1648.351,-458.493)"
       gradientUnits="userSpaceOnUse"
       xlink:href="#b"
       r="65"
       cy="473.45499"
       cx="147.694"
       id="d-3" /></defs><style
     type="text/css"
     id="style1"><![CDATA[
	.st0{fill:#262626;}
]]></style><g
     id="g11"
     transform="matrix(0.76866806,0,0,0.76866806,48.869225,-8.1536803)"><path
       class="st0"
       d="m -12.061712,-28.436007 c -1.451206,0.607079 -3.052736,2.330028 -3.555748,4.4866 -0.641768,2.734743 2.023598,3.891084 2.237522,3.509492 0.254395,-0.445191 -0.479883,-0.595512 -0.630207,-2.017813 -0.19079,-1.827019 0.664892,-3.873739 1.734511,-4.769902 0.1966,-0.167669 0.190814,0.06361 0.190814,0.497225 0,0.768968 -0.04048,7.666536 -0.04048,9.106182 0,1.948431 -0.08094,2.561291 -0.225462,3.17415 -0.144545,0.618645 -0.381591,1.034924 -0.20234,1.191031 0.196603,0.179242 1.052267,-0.248622 1.543714,-0.936634 0.589732,-0.826784 0.797875,-1.815456 0.832562,-2.890851 0.04626,-1.295102 0.04048,-3.353388 0.04626,-4.527073 0,-1.075397 0.01765,-4.226424 -0.01741,-6.122819 -0.01151,-0.468319 -1.300884,-0.953979 -1.913743,-0.699588 z m 51.636377,9.117744 c -0.04626,1.011798 -0.271739,1.803891 -0.549263,2.364714 -0.537696,1.081179 -1.659346,1.416519 -2.133445,-0.138783 -0.260178,-0.844128 -0.271742,-2.260649 -0.08673,-3.445895 0.190793,-1.202593 0.71693,-2.116103 1.595749,-2.029376 0.867255,0.08094 1.266192,1.191028 1.173685,3.249317 z m -14.552543,6.284708 c -0.01151,1.682475 -0.27752,3.1568113 -0.844128,3.5846523 -0.803657,0.607081 -1.890615,0.150333 -1.665132,-1.0753933 0.196578,-1.086961 1.138996,-2.197048 2.50926,-3.549965 0,0 0.0056,0.30643 0,1.040706 z m -0.219699,-6.290491 c -0.04626,0.925076 -0.289087,1.850147 -0.549263,2.370497 -0.537696,1.081179 -1.665131,1.416519 -2.13345,-0.138783 -0.317992,-1.063833 -0.242822,-2.439876 -0.08672,-3.307133 0.202338,-1.127433 0.699586,-2.168138 1.59575,-2.168138 0.867254,0 1.295103,0.953979 1.173686,3.243533 z m -8.429724,-0.01741 c -0.05205,0.977107 -0.242823,1.79233 -0.549263,2.387844 -0.555044,1.075397 -1.647783,1.416516 -2.13345,-0.138784 -0.346901,-1.115867 -0.231274,-2.642238 -0.08674,-3.46902 0.213938,-1.225721 0.751621,-2.087197 1.595751,-2.00625 0.861474,0.08672 1.283541,1.191029 1.173688,3.226189 z m 38.633323,1.138998 c -0.21392,0 -0.306428,0.219698 -0.38737,0.58395 -0.277523,1.271972 -0.566611,1.561062 -0.942416,1.561062 -0.416283,0 -0.792097,-0.630209 -0.890379,-1.89062 -0.07515,-0.994451 -0.06358,-2.815691 0.03471,-4.636922 0.01729,-0.375812 -0.08094,-0.740062 -1.086961,-1.104306 -0.433627,-0.156119 -1.05805,-0.387374 -1.370262,0.364244 -0.878819,2.127667 -1.225721,3.815925 -1.306664,4.498169 -0.0056,0.03469 -0.04626,0.04048 -0.05781,-0.04048 -0.05205,-0.549263 -0.167667,-1.549495 -0.179242,-3.642469 0,-0.410502 -0.08672,-0.757406 -0.543481,-1.040708 -0.294866,-0.185003 -1.179468,-0.514573 -1.50324,-0.121417 -0.277521,0.31799 -0.601299,1.173683 -0.930855,2.191265 -0.271739,0.82678 -0.462536,1.381825 -0.462536,1.381825 0,0 0.0056,-2.225958 0.0056,-3.070086 0,-0.317991 -0.219712,-0.422061 -0.283304,-0.445187 -0.294865,-0.08672 -0.878819,-0.231248 -1.127433,-0.231248 -0.306428,0 -0.38159,0.173479 -0.38159,0.422062 0,0.03469 -0.04626,2.931323 -0.04626,4.960702 0,0.08672 0,0.185005 0,0.289084 -0.167663,0.930853 -0.716931,2.197049 -1.318227,2.197049 -0.595515,0 -0.87882,-0.531917 -0.87882,-2.942889 0,-1.410736 0.04048,-2.023596 0.06359,-3.041174 0.01165,-0.58973 0.03468,-1.040708 0.03468,-1.138995 -0.0056,-0.312212 -0.549261,-0.474097 -0.797873,-0.531916 -0.254395,-0.05782 -0.4741,-0.08093 -0.64755,-0.0694 -0.242833,0.01151 -0.416283,0.173454 -0.416283,0.393156 0,0.115632 0,0.341118 0,0.341118 -0.312213,-0.491444 -0.821002,-0.838344 -1.15634,-0.936634 -0.901947,-0.271741 -1.850144,-0.02893 -2.561295,0.965545 -0.566605,0.79209 -0.907725,1.688257 -1.040706,2.977573 -0.09828,0.942419 -0.06359,1.8964 0.109848,2.705841 -0.208134,0.913507 -0.601298,1.283533 -1.029142,1.283533 -0.624425,0 -1.075398,-1.017578 -1.023362,-2.769434 0.03469,-1.156342 0.265958,-1.965779 0.520352,-3.139462 0.109862,-0.497228 0.01732,-0.763188 -0.196581,-1.011799 -0.202369,-0.231248 -0.630205,-0.346901 -1.248846,-0.202338 -0.439412,0.104062 -1.069617,0.213912 -1.642004,0.300647 0,0 0.03468,-0.138785 0.06359,-0.381593 0.150326,-1.277755 -1.243067,-1.173684 -1.682475,-0.768966 -0.265961,0.242822 -0.445192,0.531918 -0.514572,1.046485 -0.109847,0.821008 0.560824,1.208375 0.560824,1.208375 -0.2197,1.006017 -0.7574,2.318464 -1.312447,3.266663 -0.294866,0.50879 -0.526135,0.884602 -0.821002,1.28932 0,-0.150332 0,-0.300645 0,-0.445188 -0.0056,-2.116105 0.02305,-3.775454 0.03467,-4.376749 0.01151,-0.589731 0.03467,-1.029144 0.03467,-1.127432 -0.0056,-0.231247 -0.138757,-0.317994 -0.416282,-0.427846 -0.248613,-0.09828 -0.537696,-0.161905 -0.838345,-0.185028 -0.381594,-0.04627 -0.612861,0.156118 -0.607078,0.393154 0,0.04627 0,0.323779 0,0.323779 -0.312212,-0.491444 -0.821001,-0.83835 -1.156342,-0.936639 -0.901945,-0.265953 -1.850143,-0.02894 -2.561292,0.965545 -0.566609,0.792094 -0.936639,1.902179 -1.040706,2.966011 -0.09828,0.994457 -0.08094,1.832803 0.05205,2.543951 -0.144546,0.711149 -0.555047,1.456992 -1.023363,1.456992 -0.595517,0 -0.936637,-0.531921 -0.936637,-2.942886 0,-1.410739 0.04048,-2.0236 0.06361,-3.041178 0.01152,-0.589734 0.03468,-1.040705 0.03468,-1.138996 -0.0057,-0.31221 -0.549261,-0.474098 -0.797877,-0.531915 -0.265956,-0.06361 -0.491443,-0.08094 -0.664893,-0.0694 -0.231275,0.01741 -0.393155,0.22546 -0.393155,0.375811 v 0.358466 c -0.312212,-0.491448 -0.821004,-0.838346 -1.156343,-0.936635 -0.901945,-0.265963 -1.844363,-0.02894 -2.561293,0.965544 -0.468319,0.647551 -0.844128,1.364481 -1.040708,2.95445 -0.0578,0.456755 -0.08093,0.89038 -0.07515,1.289318 -0.185004,1.138994 -1.011797,2.457222 -1.6824723,2.457222 -0.3931576,0 -0.7689736,-0.763182 -0.7689736,-2.393628 0,-2.173914 0.1330013,-5.261342 0.1561202,-5.561993 0,0 0.8499137,-0.01152 1.0175817,-0.01741 0.422064,-0.0059 0.809438,0.0056 1.376047,-0.02305 0.283303,-0.01152 0.555042,-1.034927 0.265958,-1.15634 -0.133002,-0.05781 -1.069619,-0.109848 -1.445427,-0.115633 -0.312213,-0.0056 -1.1852491,-0.06937 -1.1852491,-0.06937 0,0 0.080932,-2.052507 0.098277,-2.26643 0.017406,-0.179265 -0.219725,-0.271736 -0.3526826,-0.329553 -0.3237784,-0.138758 -0.6186425,-0.202388 -0.965544,-0.277521 -0.4798833,-0.09828 -0.6938055,0 -0.7342759,0.398934 -0.063579,0.612862 -0.098278,2.405187 -0.098278,2.405187 -0.3526843,0 -1.5494969,-0.06936 -1.8963995,-0.06936 -0.3237711,0 -0.6764564,1.399168 -0.2254621,1.416515 0.5203508,0.01741 1.4222993,0.03469 2.017811,0.05783 0,0 -0.028928,3.145241 -0.028928,4.110784 0,0.104063 0,0.202388 0,0.30065 -0.3295574,1.717167 -1.4916793,2.64224 -1.4916793,2.64224 0.2486217,-1.133218 -0.2601781,-1.988911 -1.1794673,-2.711619 -0.3353409,-0.265958 -1.0060147,-0.768968 -1.7518558,-1.324012 0,0 0.4336281,-0.427845 0.8152204,-1.283534 0.2717389,-0.607082 0.2833024,-1.300884 -0.3815923,-1.456992 -1.0985219,-0.254396 -2.0120303,0.555044 -2.2779902,1.416516 -0.208125,0.670681 -0.0982789,1.167907 0.3122121,1.682477 0.028932,0.03469 0.06358,0.07515 0.098278,0.115633 -0.2486246,0.479877 -0.58973732,1.121649 -0.87881967,1.624656 -0.80365684,1.387611 -1.41073483,2.486132 -1.86749093,2.486132 -0.3642488,0 -0.3642488,-1.115867 -0.3642488,-2.162352 0,-0.901952 0.06358,-2.254871 0.1214315,-3.654038 0.017406,-0.462538 -0.2139387,-0.728497 -0.6012945,-0.965545 -0.2370347,-0.144545 -0.7400566,-0.43363 -1.0291417,-0.43363 -0.4394126,0 -1.6940428,0.05783 -2.8850719,3.503713 -0.1503338,0.433627 -0.4451916,1.22572 -0.4451916,1.22572 l 0.02306,-4.139695 c 0,-0.09828 -0.052037,-0.190816 -0.1676445,-0.254396 -0.2023396,-0.109848 -0.7342758,-0.329559 -1.2141607,-0.329559 -0.2254635,0 -0.3411178,0.104062 -0.3411178,0.317997 l -0.052046,6.475505 c 0,0.491442 0.011507,1.063832 0.063571,1.318228 0.046265,0.248597 0.1272151,0.456754 0.2254621,0.578167 0.098278,0.121431 0.2081246,0.213889 0.3931563,0.254396 0.1734546,0.03469 1.1158699,0.156119 1.1679012,-0.202315 0.057827,-0.43363 0.063608,-0.901949 0.5550413,-2.648025 0.76897,-2.717399 1.7807655,-4.041405 2.249085,-4.509722 0.080941,-0.08096 0.1792418,-0.08672 0.1734792,0.04627 -0.023278,0.595521 -0.09252,2.081415 -0.1387822,3.34761 -0.1272169,3.382295 0.4856557,4.012497 1.3644772,4.012497 0.6706764,0 1.61887446,-0.670679 2.63645627,-2.358935 0.63598592,-1.052266 1.24884673,-2.087195 1.69404013,-2.833032 0.3064258,0.283303 0.6533293,0.589734 1.0002329,0.91929 0.8036587,0.763187 1.0696113,1.485898 0.8903805,2.173924 -0.1330005,0.526131 -0.6359869,1.063832 -1.5321536,0.537695 -0.2601736,-0.156119 -0.3758078,-0.27174 -0.6359832,-0.445194 -0.1387832,-0.09252 -0.3584671,-0.121405 -0.4856676,-0.02305 -0.33533277,0.254394 -0.52613347,0.578172 -0.63598319,0.971328 -0.10406341,0.38737 0.28330242,0.595513 0.68223819,0.774744 0.3469045,0.156121 1.0927438,0.294872 1.5668423,0.312213 1.8501438,0.06361 3.3360437,-0.896164 4.3709654,-3.359167 0.1850038,2.127665 0.9713279,3.336041 2.3415883,3.336041 0.9135107,0 1.8328007,-1.179468 2.2317367,-2.341586 0.115632,0.474098 0.283303,0.884599 0.503011,1.231501 1.052271,1.670908 3.098994,1.312447 4.122354,-0.109848 0.317995,-0.439412 0.364249,-0.595519 0.364249,-0.595519 0.150332,1.335575 1.225719,1.803892 1.844363,1.803892 0.693802,0 1.404951,-0.323771 1.902177,-1.451208 0.05783,0.121431 0.121405,0.237036 0.190791,0.346907 1.052272,1.67091 3.098995,1.306661 4.122359,-0.109849 0.04627,-0.06358 0.09252,-0.127215 0.127189,-0.179266 l 0.02891,0.87882 c 0,0 -0.583953,0.537695 -0.942418,0.867254 -1.584189,1.451207 -2.786782,2.555513 -2.873507,3.833268 -0.115633,1.6362213 1.214157,2.2432988 2.214391,2.3242416 1.063832,0.086721 1.977344,-0.5030093 2.538167,-1.3297893 0.491445,-0.7227133 0.815222,-2.2837723 0.79209,-3.8274893 -0.01151,-0.618641 -0.02305,-1.399167 -0.03466,-2.243298 0.555043,-0.64755 1.179469,-1.462772 1.757637,-2.416748 0.630208,-1.040708 1.300884,-2.439884 1.647785,-3.52684 0,0 0.58395,0.0056 1.208377,-0.03469 0.202368,-0.01151 0.260176,0.02894 0.219711,0.17348 -0.04626,0.179242 -0.786311,3.046957 -0.109847,4.960699 0.462534,1.306667 1.514805,1.728732 2.133447,1.728732 0.728494,0 1.422299,-0.549264 1.798109,-1.364486 0.04626,0.09252 0.09252,0.179244 0.144539,0.260181 1.052268,1.670909 3.08743,1.306662 4.122352,-0.109848 0.231264,-0.317994 0.364248,-0.595512 0.364248,-0.595512 0.219713,1.387605 1.300882,1.815452 1.913742,1.815452 0.64177,0 1.25463,-0.265957 1.746075,-1.433864 0.02301,0.514575 0.05204,0.936637 0.104062,1.069619 0.02893,0.08093 0.213922,0.185029 0.346901,0.231248 0.589734,0.2197 1.185247,0.115632 1.410735,0.06937 0.156115,-0.02894 0.27174,-0.15612 0.289085,-0.474098 0.04048,-0.838349 0.01732,-2.243297 0.271738,-3.284004 0.427848,-1.751858 0.821003,-2.434099 1.011799,-2.769439 0.104064,-0.19079 0.225477,-0.219699 0.231265,-0.02305 0.01165,0.404719 0.02893,1.58997 0.190796,3.17994 0.121403,1.173682 0.283301,1.861704 0.404718,2.081406 0.352683,0.624427 0.792095,0.653333 1.150559,0.653333 0.225477,0 0.699585,-0.06361 0.659112,-0.462532 -0.02303,-0.196603 0.01732,-1.393393 0.433629,-3.122121 0.27174,-1.127434 0.728494,-2.145011 0.896164,-2.515038 0.06359,-0.138783 0.08672,-0.02894 0.08672,-0.0056 -0.03468,0.77475 -0.109862,3.31292 0.20237,4.700526 0.427844,1.879055 1.670909,2.092974 2.09875,2.092974 0.919293,0 1.676701,-0.699585 1.931093,-2.549729 0.07518,-0.427847 -0.01729,-0.774746 -0.289088,-0.774746 z m 0,0 z"
       id="path1"
       style="stroke-width:0.578169" /><g
       id="g10"
       transform="matrix(0.13396005,0,0,0.13396005,-35.288842,-29.978711)"><path
         d="M 65.033,0 C 37.891,0 29.953,0.028 28.41,0.156 c -5.57,0.463 -9.036,1.34 -12.812,3.22 -2.91,1.445 -5.205,3.12 -7.47,5.468 -4.125,4.282 -6.625,9.55 -7.53,15.812 -0.44,3.04 -0.568,3.66 -0.594,19.188 -0.01,5.176 0,11.988 0,21.125 0,27.12 0.03,35.05 0.16,36.59 0.45,5.42 1.3,8.83 3.1,12.56 3.44,7.14 10.01,12.5 17.75,14.5 2.68,0.69 5.64,1.07 9.44,1.25 1.61,0.07 18.02,0.12 34.44,0.12 16.42,0 32.84,-0.02 34.41,-0.1 4.4,-0.207 6.955,-0.55 9.78,-1.28 a 27.22,27.22 0 0 0 17.75,-14.53 c 1.765,-3.64 2.66,-7.18 3.065,-12.317 0.088,-1.12 0.125,-18.977 0.125,-36.81 0,-17.836 -0.04,-35.66 -0.128,-36.78 -0.41,-5.22 -1.305,-8.73 -3.127,-12.44 -1.495,-3.037 -3.155,-5.305 -5.565,-7.624 C 116.904,4 111.644,1.5 105.375,0.596 102.338,0.157 101.733,0.027 86.193,0 Z"
         fill="url(#c)"
         id="path7"
         style="fill:url(#c-5)" /><path
         d="M 65.033,0 C 37.891,0 29.953,0.028 28.41,0.156 c -5.57,0.463 -9.036,1.34 -12.812,3.22 -2.91,1.445 -5.205,3.12 -7.47,5.468 -4.125,4.282 -6.625,9.55 -7.53,15.812 -0.44,3.04 -0.568,3.66 -0.594,19.188 -0.01,5.176 0,11.988 0,21.125 0,27.12 0.03,35.05 0.16,36.59 0.45,5.42 1.3,8.83 3.1,12.56 3.44,7.14 10.01,12.5 17.75,14.5 2.68,0.69 5.64,1.07 9.44,1.25 1.61,0.07 18.02,0.12 34.44,0.12 16.42,0 32.84,-0.02 34.41,-0.1 4.4,-0.207 6.955,-0.55 9.78,-1.28 a 27.22,27.22 0 0 0 17.75,-14.53 c 1.765,-3.64 2.66,-7.18 3.065,-12.317 0.088,-1.12 0.125,-18.977 0.125,-36.81 0,-17.836 -0.04,-35.66 -0.128,-36.78 -0.41,-5.22 -1.305,-8.73 -3.127,-12.44 -1.495,-3.037 -3.155,-5.305 -5.565,-7.624 C 116.904,4 111.644,1.5 105.375,0.596 102.338,0.157 101.733,0.027 86.193,0 Z"
         fill="url(#d)"
         id="path8"
         style="fill:url(#d-3)" /><path
         d="m 65.003,17 c -13.036,0 -14.672,0.057 -19.792,0.29 -5.11,0.234 -8.598,1.043 -11.65,2.23 -3.157,1.226 -5.835,2.866 -8.503,5.535 -2.67,2.668 -4.31,5.346 -5.54,8.502 -1.19,3.053 -2,6.542 -2.23,11.65 C 17.06,50.327 17,51.964 17,65 c 0,13.036 0.058,14.667 0.29,19.787 0.235,5.11 1.044,8.598 2.23,11.65 1.227,3.157 2.867,5.835 5.536,8.503 2.667,2.67 5.345,4.314 8.5,5.54 3.054,1.187 6.543,1.996 11.652,2.23 5.12,0.233 6.755,0.29 19.79,0.29 13.037,0 14.668,-0.057 19.788,-0.29 5.11,-0.234 8.602,-1.043 11.656,-2.23 3.156,-1.226 5.83,-2.87 8.497,-5.54 2.67,-2.668 4.31,-5.346 5.54,-8.502 1.18,-3.053 1.99,-6.542 2.23,-11.65 0.23,-5.12 0.29,-6.752 0.29,-19.788 0,-13.036 -0.06,-14.672 -0.29,-19.792 -0.24,-5.11 -1.05,-8.598 -2.23,-11.65 -1.23,-3.157 -2.87,-5.835 -5.54,-8.503 -2.67,-2.67 -5.34,-4.31 -8.5,-5.535 -3.06,-1.187 -6.55,-1.996 -11.66,-2.23 C 79.659,17.057 78.029,17 64.989,17 Z m -4.306,8.65 c 1.278,-0.002 2.704,0 4.306,0 12.816,0 14.335,0.046 19.396,0.276 4.68,0.214 7.22,0.996 8.912,1.653 2.24,0.87 3.837,1.91 5.516,3.59 1.68,1.68 2.72,3.28 3.592,5.52 0.657,1.69 1.44,4.23 1.653,8.91 0.23,5.06 0.28,6.58 0.28,19.39 0,12.81 -0.05,14.33 -0.28,19.39 -0.214,4.68 -0.996,7.22 -1.653,8.91 -0.87,2.24 -1.912,3.835 -3.592,5.514 -1.68,1.68 -3.275,2.72 -5.516,3.59 -1.69,0.66 -4.232,1.44 -8.912,1.654 -5.06,0.23 -6.58,0.28 -19.396,0.28 -12.817,0 -14.336,-0.05 -19.396,-0.28 -4.68,-0.216 -7.22,-0.998 -8.913,-1.655 -2.24,-0.87 -3.84,-1.91 -5.52,-3.59 -1.68,-1.68 -2.72,-3.276 -3.592,-5.517 -0.657,-1.69 -1.44,-4.23 -1.653,-8.91 -0.23,-5.06 -0.276,-6.58 -0.276,-19.398 0,-12.818 0.046,-14.33 0.276,-19.39 0.214,-4.68 0.996,-7.22 1.653,-8.912 0.87,-2.24 1.912,-3.84 3.592,-5.52 1.68,-1.68 3.28,-2.72 5.52,-3.592 1.692,-0.66 4.233,-1.44 8.913,-1.655 4.428,-0.2 6.144,-0.26 15.09,-0.27 z m 29.928,7.97 a 5.76,5.76 0 1 0 5.76,5.758 c 0,-3.18 -2.58,-5.76 -5.76,-5.76 z m -25.622,6.73 c -13.613,0 -24.65,11.037 -24.65,24.65 0,13.613 11.037,24.645 24.65,24.645 C 78.616,89.645 89.65,78.613 89.65,65 89.65,51.387 78.615,40.35 65.002,40.35 Z m 0,8.65 c 8.836,0 16,7.163 16,16 0,8.836 -7.164,16 -16,16 -8.837,0 -16,-7.164 -16,-16 0,-8.837 7.163,-16 16,-16 z"
         fill="#ffffff"
         id="path9" /></g></g></svg>
