<?xml version="1.0" encoding="UTF-8" standalone="no"?>
<svg
   width="393"
   height="393"
   viewBox="0 0 393 393"
   fill="none"
   version="1.1"
   id="svg9"
   xml:space="preserve"
   sodipodi:docname="optpage.svg"
   inkscape:export-filename="optpage.svg"
   inkscape:export-xdpi="96"
   inkscape:export-ydpi="96"
   inkscape:version="1.4 (e7c3feb100, 2024-10-09)"
   xmlns:inkscape="http://www.inkscape.org/namespaces/inkscape"
   xmlns:sodipodi="http://sodipodi.sourceforge.net/DTD/sodipodi-0.dtd"
   xmlns:xlink="http://www.w3.org/1999/xlink"
   xmlns="http://www.w3.org/2000/svg"
   xmlns:svg="http://www.w3.org/2000/svg"><sodipodi:namedview
     id="namedview1"
     pagecolor="#ffffff"
     bordercolor="#000000"
     borderopacity="0.25"
     inkscape:showpageshadow="2"
     inkscape:pageopacity="0.0"
     inkscape:pagecheckerboard="0"
     inkscape:deskcolor="#d1d1d1"
     inkscape:zoom="1.4358046"
     inkscape:cx="164.36777"
     inkscape:cy="242.37281"
     inkscape:window-width="1910"
     inkscape:window-height="1009"
     inkscape:window-x="0"
     inkscape:window-y="35"
     inkscape:window-maximized="1"
     inkscape:current-layer="svg9" /><defs
     id="defs9"><linearGradient
       id="linearGradient30"><stop
         style="stop-color:#cb3e8a;stop-opacity:1;"
         offset="0"
         id="stop30" /><stop
         style="stop-color:#ff7f45;stop-opacity:1;"
         offset="1"
         id="stop31" /></linearGradient><linearGradient
       id="linearGradient28"><stop
         style="stop-color:#c33b93;stop-opacity:1;"
         offset="0"
         id="stop28" /><stop
         style="stop-color:#ff9849;stop-opacity:1;"
         offset="1"
         id="stop29" /></linearGradient><style
       id="style1">
      .cls-1 {
        fill: none;
      }
    </style><linearGradient
       xlink:href="#linearGradient28"
       id="linearGradient29"
       x1="12.593984"
       y1="39.225563"
       x2="66.629074"
       y2="39.225563"
       gradientUnits="userSpaceOnUse" /><linearGradient
       xlink:href="#linearGradient30"
       id="linearGradient31"
       x1="7.5890002"
       y1="22.295"
       x2="17"
       y2="22.295"
       gradientUnits="userSpaceOnUse" /><linearGradient
       xlink:href="#linearGradient28"
       id="linearGradient33"
       gradientUnits="userSpaceOnUse"
       x1="12.593984"
       y1="39.225563"
       x2="66.629074"
       y2="39.225563" /><linearGradient
       xlink:href="#linearGradient28"
       id="linearGradient34"
       gradientUnits="userSpaceOnUse"
       x1="12.593984"
       y1="39.225563"
       x2="66.629074"
       y2="39.225563" /></defs><rect
     style="fill:#ffffff;stroke-width:1.38518"
     id="rect1"
     width="393"
     height="393"
     x="0"
     y="0" /><g
     id="g33"
     transform="matrix(0.6602504,0,0,0.6602504,170.34647,303.53898)"><polygon
       points="11,26 17,20 15.59,18.59 11,23.18 9,21.179 7.589,22.589 "
       id="polygon1"
       transform="matrix(1.9298246,0,0,1.9298246,8.7343353,8.3483703)"
       style="fill:url(#linearGradient31)" /><g
       id="g28"
       style="fill:url(#linearGradient29)"><path
         d="m 62.769424,66.243108 h -7.719298 v -3.859649 h 7.719298 V 39.225564 H 55.050126 V 23.786967 a 7.7279826,7.7279826 0 0 0 -7.719299,-7.719298 v -3.85965 a 11.591877,11.591877 0 0 1 11.578948,11.578948 v 11.578948 h 3.859649 a 3.8637018,3.8637018 0 0 1 3.859649,3.859649 v 23.157895 a 3.8637018,3.8637018 0 0 1 -3.859649,3.859649 z"
         id="path1"
         style="fill:url(#linearGradient33);stroke-width:1.92982" /><path
         d="M 47.330827,35.365915 H 43.471178 V 23.786967 a 11.578948,11.578948 0 0 0 -23.157895,0 v 11.578948 h -3.859649 a 3.8596492,3.8596492 0 0 0 -3.85965,3.859649 v 23.157895 a 3.8596492,3.8596492 0 0 0 3.85965,3.859649 h 30.877193 a 3.8596492,3.8596492 0 0 0 3.859649,-3.859649 V 39.225564 A 3.8596492,3.8596492 0 0 0 47.330827,35.365915 Z M 24.172932,23.786967 a 7.7192985,7.7192985 0 0 1 15.438597,0 V 35.365915 H 24.172932 Z M 47.330827,62.383459 H 16.453634 V 39.225564 h 30.877193 z"
         id="path2"
         style="fill:url(#linearGradient34);stroke-width:1.92982" /></g></g><style
     type="text/css"
     id="style1-6"><![CDATA[
	.st0{fill:#262626;}
]]></style><path
     class="st0"
     d="m 120.69757,89.8025 c -3.4524,1.44423 -7.26241,5.54309 -8.45906,10.67354 -1.52676,6.50591 4.8141,9.25682 5.32301,8.34902 0.60521,-1.0591 -1.14162,-1.41672 -1.49924,-4.80034 -0.4539,-4.34644 1.58177,-9.21556 4.12637,-11.34752 0.46765,-0.39888 0.4539,0.1513 0.4539,1.1829 0,1.82935 -0.0963,18.23855 -0.0963,21.66344 0,4.63528 -0.19257,6.09327 -0.53643,7.55125 -0.34386,1.47174 -0.9078,2.46207 -0.48141,2.83344 0.46765,0.42639 2.50333,-0.59144 3.67247,-2.22824 1.40297,-1.9669 1.89813,-4.31893 1.98066,-6.87728 0.11003,-3.08102 0.0963,-7.97765 0.11003,-10.76982 0,-2.55835 0.0413,-10.05459 -0.0413,-14.56609 -0.0275,-1.11412 -3.09477,-2.2695 -4.55276,-1.6643 z m 122.84202,21.69095 c -0.11004,2.40705 -0.64646,4.29142 -1.30668,5.62561 -1.27917,2.57211 -3.94756,3.36987 -5.07544,-0.3301 -0.61895,-2.00817 -0.64646,-5.37804 -0.20631,-8.19773 0.4539,-2.86095 1.70556,-5.03417 3.79626,-4.82785 2.06318,0.19257 3.01225,2.83344 2.79217,7.73007 z m -34.62024,14.95121 c -0.0275,4.00258 -0.66022,7.50999 -2.00816,8.52783 -1.91189,1.44423 -4.49775,0.35762 -3.96132,-2.55835 0.46766,-2.58586 2.70965,-5.22673 5.96948,-8.4453 0,0 0.0138,0.72899 0,2.47582 z m -0.52267,-14.96497 c -0.11004,2.20073 -0.68773,4.40146 -1.30668,5.63937 -1.27918,2.57211 -3.96132,3.36987 -5.07544,-0.3301 -0.7565,-2.53084 -0.57769,-5.80443 -0.20632,-7.86762 0.48141,-2.68214 1.6643,-5.15796 3.79626,-5.15796 2.06319,0 3.08103,2.26951 2.79218,7.71631 z m -20.05416,-0.0413 c -0.12379,2.32453 -0.57769,4.26392 -1.30668,5.68064 -1.32044,2.55835 -3.92005,3.36987 -5.07544,-0.33011 -0.82527,-2.65463 -0.55018,-6.28584 -0.20631,-8.25274 0.50892,-2.91597 1.78809,-4.9654 3.79626,-4.77283 2.04943,0.20632 3.05351,2.83344 2.79217,7.67504 z m 91.90801,2.70965 c -0.50892,0 -0.72899,0.52268 -0.92155,1.38922 -0.66022,3.026 -1.34794,3.71373 -2.24199,3.71373 -0.99033,0 -1.88438,-1.49925 -2.1182,-4.49774 -0.17881,-2.36579 -0.15132,-6.69848 0.0825,-11.03117 0.0413,-0.89404 -0.19257,-1.76058 -2.58587,-2.62712 -1.03158,-0.37137 -2.51708,-0.92155 -3.25982,0.86654 -2.09071,5.06168 -2.91597,9.07801 -3.10854,10.70105 -0.0138,0.0825 -0.11015,0.0963 -0.13753,-0.0963 -0.1239,-1.30668 -0.39889,-3.68622 -0.42641,-8.66538 0,-0.97657 -0.20632,-1.80184 -1.29293,-2.47582 -0.70148,-0.44014 -2.80593,-1.22415 -3.57619,-0.28884 -0.66022,0.7565 -1.43047,2.79217 -2.21448,5.21298 -0.64647,1.9669 -1.10037,3.28734 -1.10037,3.28734 0,0 0.0138,-5.29551 0.0138,-7.30368 0,-0.7565 -0.52267,-1.00408 -0.67397,-1.0591 -0.70148,-0.20632 -2.09069,-0.55018 -2.68214,-0.55018 -0.72899,0 -0.9078,0.41264 -0.9078,1.00408 0,0.0825 -0.11004,6.97357 -0.11004,11.80142 0,0.20632 0,0.44015 0,0.68773 -0.39888,2.21448 -1.70557,5.22673 -3.13604,5.22673 -1.41672,0 -2.09069,-1.26542 -2.09069,-7.00107 0,-3.35611 0.0963,-4.8141 0.1513,-7.2349 0.0275,-1.40297 0.0825,-2.47582 0.0825,-2.70965 -0.0137,-0.74274 -1.30667,-1.12787 -1.89812,-1.26542 -0.6052,-0.13754 -1.12787,-0.19256 -1.54051,-0.16505 -0.57769,0.0275 -0.99033,0.41264 -0.99033,0.93531 0,0.27509 0,0.81152 0,0.81152 -0.74274,-1.16914 -1.95314,-1.99441 -2.75091,-2.22824 -2.14571,-0.64646 -4.40146,-0.0688 -6.09327,2.29701 -1.34795,1.88438 -2.15947,4.01634 -2.47582,7.0836 -0.23383,2.242 -0.1513,4.5115 0.26133,6.43714 -0.49516,2.17322 -1.43047,3.05351 -2.44831,3.05351 -1.48549,0 -2.55835,-2.4208 -2.43456,-6.58843 0.0825,-2.75092 0.63271,-4.67656 1.23791,-7.46873 0.26134,-1.18289 0.0413,-1.8156 -0.46765,-2.40705 -0.48141,-0.55018 -1.49925,-0.82527 -2.97099,-0.48141 -1.04534,0.24758 -2.54459,0.50892 -3.90629,0.71524 0,0 0.0825,-0.33011 0.1513,-0.9078 0.35762,-3.03976 -2.95724,-2.79218 -4.00258,-1.82936 -0.63271,0.57769 -1.0591,1.26542 -1.22416,2.48957 -0.26134,1.95315 1.33419,2.87471 1.33419,2.87471 -0.52267,2.39329 -1.80184,5.51558 -3.12228,7.77133 -0.70148,1.2104 -1.25167,2.10445 -1.95315,3.06727 0,-0.35762 0,-0.71524 0,-1.05911 -0.0137,-5.03417 0.055,-8.98173 0.0825,-10.4122 0.0275,-1.40297 0.0825,-2.44831 0.0825,-2.68214 -0.0137,-0.55018 -0.33009,-0.7565 -0.99031,-1.01784 -0.59145,-0.23382 -1.27917,-0.38512 -1.99441,-0.44014 -0.9078,-0.11004 -1.45799,0.37137 -1.44423,0.93531 0,0.11004 0,0.77025 0,0.77025 -0.74275,-1.16914 -1.95315,-1.99441 -2.75091,-2.22824 -2.14572,-0.63271 -4.40147,-0.0688 -6.09328,2.29702 -1.34794,1.88437 -2.22824,4.52525 -2.47582,7.05609 -0.23383,2.36578 -0.19256,4.36019 0.12379,6.05201 -0.34386,1.69181 -1.32044,3.46615 -2.43456,3.46615 -1.41672,0 -2.22824,-1.26542 -2.22824,-7.00108 0,-3.35611 0.0963,-4.81409 0.1513,-7.2349 0.0275,-1.40296 0.0825,-2.47582 0.0825,-2.70965 -0.0138,-0.74274 -1.30668,-1.12787 -1.89812,-1.26542 -0.63271,-0.1513 -1.16914,-0.19256 -1.58178,-0.16505 -0.55018,0.0413 -0.93531,0.53643 -0.93531,0.89404 v 0.85279 c -0.74275,-1.16914 -1.95315,-1.99441 -2.75091,-2.22824 -2.14571,-0.63271 -4.38771,-0.0688 -6.09327,2.29701 -1.11412,1.54051 -2.00817,3.24608 -2.47583,7.02858 -0.13754,1.08661 -0.19256,2.11821 -0.1788,3.06727 -0.44015,2.70965 -2.40705,5.84569 -4.00258,5.84569 -0.93531,0 -1.82936,-1.8156 -1.82936,-5.69439 0,-5.17171 0.31635,-12.51665 0.37137,-13.23189 0,0 2.02192,-0.0275 2.42081,-0.0413 1.00408,-0.0137 1.92563,0.0138 3.27358,-0.055 0.67398,-0.0275 1.32044,-2.46207 0.63271,-2.75091 -0.31635,-0.13755 -2.54459,-0.26134 -3.43864,-0.27509 -0.74275,-0.0137 -2.81969,-0.16506 -2.81969,-0.16506 0,0 0.19257,-4.88287 0.23383,-5.39179 0.0413,-0.42639 -0.52267,-0.64646 -0.83903,-0.78401 -0.77025,-0.33011 -1.47173,-0.48141 -2.29701,-0.66022 -1.14163,-0.23383 -1.65054,0 -1.74683,0.94907 -0.1513,1.45798 -0.23383,5.7219 -0.23383,5.7219 -0.83902,0 -3.68622,-0.16506 -4.51149,-0.16506 -0.77026,0 -1.60929,3.32861 -0.53643,3.36987 1.23791,0.0413 3.38362,0.0825 4.80034,0.13755 0,0 -0.0688,7.48248 -0.0688,9.77949 0,0.24758 0,0.48141 0,0.71524 -0.78401,4.0851 -3.54868,6.28584 -3.54868,6.28584 0.59145,-2.6959 -0.61895,-4.73158 -2.80593,-6.4509 -0.79776,-0.63271 -2.39329,-1.82935 -4.16763,-3.14979 0,0 1.03159,-1.01784 1.93939,-3.05352 0.64647,-1.44422 0.67398,-3.09477 -0.9078,-3.46615 -2.61337,-0.6052 -4.78659,1.32044 -5.4193,3.36987 -0.49516,1.59553 -0.23383,2.77843 0.74275,4.00258 0.0688,0.0825 0.1513,0.17881 0.23383,0.27509 -0.59145,1.14163 -1.40297,2.66839 -2.0907,3.86504 -1.91188,3.30109 -3.35611,5.91446 -4.44272,5.91446 -0.86654,0 -0.86654,-2.65463 -0.86654,-5.14421 0,-2.14571 0.1513,-5.36428 0.28885,-8.69288 0.0412,-1.10037 -0.50892,-1.73308 -1.43048,-2.29702 -0.56394,-0.34386 -1.76058,-1.03159 -2.44831,-1.03159 -1.04535,0 -4.03009,0.13755 -6.86354,8.33527 -0.35761,1.03159 -1.0591,2.91597 -1.0591,2.91597 l 0.055,-9.84827 c 0,-0.23383 -0.12379,-0.4539 -0.39888,-0.6052 -0.48141,-0.26134 -1.74683,-0.78401 -2.88846,-0.78401 -0.53643,0 -0.81152,0.24758 -0.81152,0.7565 l -0.12371,15.40511 c 0,1.16914 0.0275,2.53084 0.1513,3.13604 0.11004,0.59145 0.3026,1.08661 0.53643,1.37546 0.23383,0.28885 0.49516,0.50892 0.93531,0.6052 0.41264,0.0825 2.65463,0.37137 2.77842,-0.48141 0.13755,-1.03159 0.1513,-2.14571 1.32044,-6.29959 1.82936,-6.46464 4.23641,-9.61444 5.35053,-10.72856 0.19256,-0.19256 0.42639,-0.20632 0.41264,0.11004 -0.055,1.41672 -0.22008,4.95164 -0.33011,7.96389 -0.3026,8.04642 1.15538,9.54567 3.24607,9.54567 1.59553,0 3.85128,-1.59553 6.27209,-5.61186 1.513,-2.50333 2.97098,-4.9654 4.03008,-6.73974 0.729,0.67397 1.55427,1.40296 2.37954,2.18697 1.91189,1.81561 2.5446,3.53493 2.11821,5.17172 -0.31636,1.25167 -1.51301,2.53084 -3.64496,1.27918 -0.61896,-0.37138 -0.89405,-0.64647 -1.513,-1.05911 -0.33012,-0.22007 -0.85279,-0.28884 -1.15539,-0.055 -0.79776,0.60521 -1.25167,1.37546 -1.513,2.31077 -0.24758,0.92156 0.67397,1.41672 1.62304,1.84311 0.82527,0.37138 2.59961,0.70149 3.72749,0.74275 4.40146,0.1513 7.93638,-2.13196 10.39845,-7.9914 0.44014,5.06168 2.31076,7.93638 5.5706,7.93638 2.17322,0 4.36019,-2.80593 5.30926,-5.5706 0.27509,1.12788 0.67397,2.10445 1.19664,2.92973 2.50334,3.97506 7.37245,3.12228 9.80701,-0.26134 0.7565,-1.04535 0.86654,-1.41672 0.86654,-1.41672 0.35762,3.1773 2.91597,4.29142 4.3877,4.29142 1.65055,0 3.34236,-0.77025 4.52525,-3.45239 0.13755,0.28884 0.28885,0.56393 0.45391,0.82527 2.50333,3.97507 7.37244,3.10853 9.807,-0.26134 0.11004,-0.1513 0.22007,-0.3026 0.3026,-0.42639 l 0.0688,2.0907 c 0,0 -1.38921,1.27917 -2.24199,2.06318 -3.76875,3.4524 -6.6297,6.07952 -6.83602,9.11928 -0.27509,3.89254 2.88846,5.33677 5.268,5.52933 2.53084,0.20632 4.70406,-1.19664 6.03825,-3.16355 1.16914,-1.71932 1.93939,-5.43305 1.88438,-9.10552 -0.0275,-1.47174 -0.055,-3.3286 -0.0825,-5.33677 1.32044,-1.54051 2.80594,-3.47991 4.18139,-5.74941 1.49925,-2.47582 3.09478,-5.80443 3.92005,-8.39028 0,0 1.38921,0.0138 2.87471,-0.0825 0.48141,-0.0275 0.61895,0.0688 0.52267,0.41263 -0.11004,0.4264 -1.87062,7.24866 -0.26134,11.80142 1.10037,3.10853 3.6037,4.11262 5.07544,4.11262 1.73307,0 3.38362,-1.30669 4.27767,-3.24608 0.11004,0.22007 0.22007,0.42639 0.34386,0.61895 2.50333,3.97507 7.34494,3.10854 9.80701,-0.26133 0.55018,-0.7565 0.86653,-1.41672 0.86653,-1.41672 0.52268,3.30109 3.09478,4.31893 4.55277,4.31893 1.52675,0 2.98474,-0.63271 4.15387,-3.41113 0.055,1.22416 0.12379,2.22824 0.24759,2.54459 0.0688,0.19257 0.50892,0.44015 0.82527,0.55019 1.40297,0.52267 2.81969,0.27509 3.35611,0.16505 0.37138,-0.0688 0.64647,-0.37137 0.68773,-1.12787 0.0963,-1.99442 0.0413,-5.33677 0.64647,-7.8126 1.01784,-4.16763 1.95315,-5.79067 2.40705,-6.58843 0.24758,-0.4539 0.53642,-0.52268 0.55018,-0.055 0.0275,0.96282 0.0688,3.7825 0.4539,7.56501 0.28885,2.79217 0.67397,4.42897 0.96282,4.95164 0.83903,1.48549 1.88437,1.55427 2.73716,1.55427 0.53643,0 1.66429,-0.1513 1.56802,-1.10037 -0.055,-0.46765 0.0413,-3.31485 1.03159,-7.42746 0.64648,-2.68214 1.73309,-5.10295 2.13197,-5.98324 0.1513,-0.33011 0.2063,-0.0688 0.2063,-0.0138 -0.0825,1.84311 -0.26133,7.88137 0.48141,11.18246 1.01784,4.47024 3.97508,4.97916 4.99292,4.97916 2.18698,0 3.98882,-1.66431 4.59402,-6.06577 0.17881,-1.01784 -0.0411,-1.84311 -0.68773,-1.84311 z m 0,0 z"
     id="path1-7"
     style="stroke-width:1.37546" /><text
     xml:space="preserve"
     style="font-size:10.6667px;font-family:sans-serif;-inkscape-font-specification:sans-serif;text-align:center;writing-mode:lr-tb;direction:ltr;text-anchor:middle;fill:#999999"
     x="196.5625"
     y="383.15039"
     id="text1"><tspan
       sodipodi:role="line"
       id="tspan1"
       x="196.5625"
       y="383.15039">2-Step Verification</tspan></text></svg>
