<?xml version="1.0" encoding="UTF-8" standalone="no"?>
<svg
   width="52"
   height="26"
   viewBox="0 0 52 26"
   fill="none"
   version="1.1"
   id="svg7"
   xmlns="http://www.w3.org/2000/svg"
   xmlns:svg="http://www.w3.org/2000/svg">
  <g
     id="g7"
     transform="matrix(1.3257595,0,0,1.3257595,-8.7392123,-2.40526)">
    <path
       d="m 19.612092,7.6489952 v -3.093461 h -0.674264 v -0.493943 h 0.674264 v -0.450657 c 0,-0.425428 0.108148,-0.749327 0.324442,-0.971693 0.216376,-0.222246 0.515642,-0.333405 0.897796,-0.333477 0.225917,0 0.42419,0.02523 0.594861,0.07568 v 0.508421 c -0.08929,-0.02463 -0.180272,-0.04272 -0.272192,-0.05411 -0.08079,-0.0095 -0.162048,-0.01429 -0.243388,-0.01441 -0.487937,0 -0.731895,0.24996 -0.731895,0.749878 v 0.490361 h 1.222258 v 0.493942 h -1.222258 v 3.093462 z"
       fill="#67788a"
       id="path1"
       style="stroke-width:0.203859" />
    <path
       d="m 22.204346,7.6490362 v -3.587416 h 0.569623 v 0.623731 c 0.112958,-0.225896 0.257189,-0.39955 0.432671,-0.520956 0.175441,-0.121336 0.378566,-0.182042 0.609335,-0.182113 0.106618,-4.04e-4 0.212972,0.01048 0.317286,0.03247 v 0.569693 c -0.05533,-0.0072 -0.114813,-0.01325 -0.178458,-0.01806 -0.06373,-0.0048 -0.125618,-0.0072 -0.185695,-0.0072 -0.262021,0 -0.474136,0.07993 -0.636347,0.23982 -0.162272,0.159887 -0.281855,0.373205 -0.358792,0.639914 v 2.21016 z"
       fill="#67788a"
       id="path2"
       style="stroke-width:0.203859" />
    <path
       d="m 26.354061,7.7283572 c -0.358137,0 -0.668208,-0.08052 -0.930209,-0.241593 -0.260774,-0.159683 -0.471301,-0.389595 -0.607459,-0.663378 -0.143045,-0.281224 -0.214561,-0.603321 -0.2145,-0.966252 0,-0.365356 0.07149,-0.688657 0.2145,-0.969901 0.136178,-0.273762 0.346705,-0.503675 0.607459,-0.663364 0.261961,-0.161041 0.572032,-0.241573 0.930209,-0.241597 h 0.07217 c 0.358061,0 0.668127,0.08053 0.930193,0.241597 0.260774,0.159689 0.471281,0.389602 0.607479,0.663364 0.142966,0.281244 0.214481,0.604545 0.214501,0.969901 0,0.362931 -0.07149,0.685028 -0.214501,0.966252 -0.136178,0.273783 -0.346705,0.503695 -0.607479,0.663378 -0.262021,0.161029 -0.572092,0.241573 -0.930193,0.241593 z m 0.0035,-0.526404 h 0.06487 c 0.358121,0 0.64177,-0.122581 0.85093,-0.367742 0.20906,-0.245182 0.313595,-0.570867 0.313615,-0.977077 0,-0.408574 -0.104535,-0.734872 -0.313615,-0.97885 -0.209145,-0.243958 -0.492794,-0.365968 -0.850935,-0.366009 h -0.06487 c -0.358196,0 -0.64185,0.121989 -0.850925,0.366009 -0.20906,0.243958 -0.3136,0.570255 -0.31364,0.97885 0,0.40623 0.10456,0.731916 0.31364,0.977077 0.209115,0.245181 0.492769,0.367762 0.850925,0.367742 z"
       fill="#67788a"
       id="path3"
       style="stroke-width:0.203859" />
    <path
       d="m 29.004068,7.6490152 v -3.587409 h 0.56979 v 0.667025 c 0.129651,-0.230769 0.295596,-0.412862 0.497618,-0.546263 0.201822,-0.133375 0.436054,-0.200074 0.702905,-0.200096 h 0.07217 c 0.596088,0 0.979546,0.286032 1.150175,0.858094 0.136995,-0.264385 0.315372,-0.473483 0.535334,-0.62732 0.219966,-0.153801 0.472952,-0.230727 0.758968,-0.230774 h 0.07564 c 0.403844,0 0.712079,0.135215 0.924907,0.405649 0.212624,0.270399 0.319041,0.656773 0.319041,1.159103 v 2.101991 h -0.569584 v -2.019082 c 0,-0.745064 -0.272967,-1.117617 -0.818496,-1.117678 h -0.06483 c -0.257266,0 -0.478454,0.08534 -0.663358,0.256006 -0.185305,0.170711 -0.319852,0.387047 -0.403845,0.648965 v 2.231789 h -0.569784 v -2.019082 c 0,-0.745064 -0.271541,-1.117617 -0.814827,-1.117678 h -0.0685 c -0.257265,0 -0.477637,0.08534 -0.66152,0.256006 -0.183879,0.170711 -0.31802,0.387047 -0.402008,0.648965 v 2.231789 z"
       fill="#67788a"
       id="path4"
       style="stroke-width:0.203859" />
    <path
       fill-rule="evenodd"
       clip-rule="evenodd"
       d="m 13.785022,15.187504 c 0.645703,-0.873006 1.358824,-1.560256 2.271318,-1.560256 1.723099,0 3.141389,2.192933 3.141674,4.803534 0,1.592935 -0.685477,2.590622 -1.917418,2.590622 -1.073258,0 -1.665408,-0.602363 -2.728309,-2.381075 l -0.545731,-0.917958 c -0.129655,-0.218191 -0.252887,-0.421642 -0.369719,-0.610354 -0.333799,0.590091 -0.818882,1.446687 -0.818882,1.446687 -1.163608,2.034249 -1.81818,2.463128 -2.728313,2.463128 -1.2652165,0 -2.0194665,-0.984212 -2.0194665,-2.544774 0,-2.493748 1.387078,-4.84981 3.1975725,-4.84981 0.88795,0 1.629916,0.430509 2.517274,1.560256 z m -3.649589,4.630784 c 0.525304,0 0.851703,-0.331434 1.795102,-1.810351 0,0 0.429042,-0.681338 1.13729,-1.767153 -0.745819,-1.068386 -1.232818,-1.404978 -1.815509,-1.404978 -1.076519,0 -1.9786565,1.851307 -1.9786565,3.661658 0,0.84624 0.321222,1.320824 0.8617735,1.320824 z m 5.355952,-1.996536 -0.652513,-1.088771 c -0.176582,-0.287115 -0.346255,-0.551398 -0.509036,-0.792849 0.588011,-0.907622 1.073094,-1.359863 1.650036,-1.359863 1.197918,0 2.157136,1.764503 2.157136,3.931853 0,0.826282 -0.270643,1.305596 -0.831297,1.305596 -0.537291,6e-4 -0.794623,-0.354349 -1.814326,-1.995966 z m 6.047483,-3.956845 h 1.390788 l 2.364645,4.277638 2.364787,-4.277638 h 1.360677 v 7.029024 h -1.134699 v -5.387265 l -2.073596,3.73042 H 24.7471 l -2.073593,-3.73042 v 5.387265 h -1.134639 z m 9.755149,6.805554 c 0.398344,0.232684 0.860085,0.349027 1.385633,0.349027 0.870275,0 1.604983,-0.27468 2.204123,-0.82406 l -0.602403,-0.73797 c -0.214256,0.204185 -0.443392,0.356468 -0.687819,0.456828 -0.244427,0.10038 -0.535743,0.15057 -0.873739,0.15057 -0.421583,-6.01e-4 -0.770591,-0.123845 -1.046616,-0.369739 -0.276225,-0.245896 -0.449508,-0.58314 -0.519842,-1.011733 h 3.850701 v -0.31058 c 0,-0.572437 -0.09724,-1.071178 -0.291316,-1.496204 -0.194075,-0.424659 -0.470916,-0.754951 -0.83093,-0.990878 -0.359813,-0.235946 -0.78914,-0.35392 -1.287779,-0.35392 -0.502103,0 -0.946316,0.117138 -1.332832,0.351392 -0.386722,0.234275 -0.68884,0.558941 -0.906359,0.974019 -0.217519,0.415078 -0.326378,0.892088 -0.326378,1.43101 0,0.532113 0.111307,1.004027 0.333716,1.415761 0.21426,0.402908 0.536965,0.737726 0.93184,0.966477 z m 1.280237,-4.18474 c 0.384885,0 0.696182,0.121316 0.933882,0.363949 0.2377,0.242735 0.373263,0.578512 0.406698,1.007289 h -2.761275 c 0.06667,-0.418829 0.226489,-0.752077 0.47948,-0.999746 0.252786,-0.247668 0.566521,-0.371492 0.941215,-0.371492 z m 2.76168,0.10038 h 1.044168 v 2.486226 c 0,1.291591 0.590782,1.937376 1.77235,1.937376 0.163907,4.48e-4 0.327605,-0.01131 0.48967,-0.03521 0.141479,-0.02043 0.281531,-0.05062 0.418931,-0.09035 v -0.918852 c -0.120477,0.0202 -0.230768,0.03612 -0.331269,0.04776 -0.121703,0.01286 -0.244021,0.01873 -0.366335,0.01759 -0.324747,-2.87e-4 -0.554088,-0.08409 -0.687824,-0.251401 -0.133931,-0.167327 -0.201001,-0.446798 -0.201001,-0.838411 v -2.354728 h 1.586429 v -0.928905 h -1.586429 v -1.536303 h -1.094522 v 1.536303 h -1.044168 z m 8.354554,4.30781 h 1.07434 v -5.236695 h -1.07434 v 0.672165 c -0.18428,-0.251542 -0.42728,-0.454056 -0.708,-0.589785 -0.28438,-0.13893 -0.60587,-0.208385 -0.96405,-0.208385 -0.47519,0 -0.896162,0.117117 -1.262703,0.351392 -0.366335,0.234255 -0.653367,0.557249 -0.860895,0.968983 -0.207529,0.411735 -0.311293,0.885381 -0.311293,1.42094 -2.05e-4,0.532215 0.101928,1.004985 0.306197,1.418289 0.204265,0.414201 0.48457,0.739316 0.84112,0.975344 0.356345,0.236048 0.765494,0.354063 1.227434,0.354063 0.3749,-2.04e-4 0.70964,-0.07469 1.00421,-0.22347 0.29234,-0.147248 0.54268,-0.365989 0.72798,-0.635939 z m -0.57488,-4.109476 c 0.25259,0.172241 0.43749,0.407393 0.5547,0.705455 v 1.571489 c -0.11232,0.288543 -0.31252,0.534438 -0.57243,0.702785 -0.26441,0.174116 -0.56551,0.261184 -0.90351,0.261184 -0.45868,0 -0.82175,-0.157318 -1.089625,-0.471934 -0.267667,-0.314616 -0.401603,-0.741375 -0.401603,-1.280297 0,-0.535559 0.139031,-0.960646 0.416688,-1.275261 0.27786,-0.314616 0.65093,-0.471935 1.11959,-0.471935 0.33128,1.02e-4 0.62341,0.08627 0.87619,0.258514 z"
       fill="url(#paint0_linear_2418_171070)"
       id="path5"
       style="fill:url(#paint0_linear_2418_171070);stroke-width:0.203859" />
  </g>
  <defs
     id="defs7">
    <linearGradient
       id="paint0_linear_2418_171070"
       x1="1.70919"
       y1="93.908302"
       x2="177.38901"
       y2="56.141499"
       gradientUnits="userSpaceOnUse"
       gradientTransform="matrix(0.2038592,0,0,0.2038592,8.0701765,2.3057642)">
      <stop
         stop-color="#FF7A00"
         id="stop5" />
      <stop
         offset="0.5"
         stop-color="#FF0169"
         id="stop6" />
      <stop
         offset="1"
         stop-color="#D300C5"
         id="stop7" />
    </linearGradient>
  </defs>
</svg>
